<?xml version="1.0" standalone="no"?>
<!DOCTYPE svg PUBLIC "-//W3C//DTD SVG 1.1//EN" "http://www.w3.org/Graphics/SVG/1.1/DTD/svg11.dtd" >
<svg xmlns="http://www.w3.org/2000/svg" xmlns:xlink="http://www.w3.org/1999/xlink" version="1.1">
<metadata></metadata>
<defs>
<font id="lilgroteskthin" horiz-adv-x="600" >
<font-face units-per-em="1000" ascent="800" descent="-200" />
<missing-glyph horiz-adv-x="290" />
<glyph horiz-adv-x="0" />
<glyph horiz-adv-x="333" />
<glyph unicode="&#xd;" />
<glyph unicode=" "  horiz-adv-x="290" />
<glyph unicode="&#x09;" horiz-adv-x="290" />
<glyph unicode="&#xa0;" horiz-adv-x="290" />
<glyph unicode="!" horiz-adv-x="168" d="M74 250l-12 450h44l-12 -450h-20zM48 29q0 14 11 24t25 10t24.5 -10t10.5 -24q0 -15 -10.5 -25t-24.5 -10q-15 0 -25.5 10t-10.5 25z" />
<glyph unicode="&#x22;" horiz-adv-x="290" d="M365 547l-16 218h39l-6 -218h-17zM-171 765h39l-6 -218h-17z" />
<glyph unicode="#" horiz-adv-x="658" d="M88 -2l53 193h-129v19h133l82 303h-128v18h133l57 210h23l-57 -210h243l58 218h22l-59 -218h127v-18h-132l-82 -303h127v-19h-133l-53 -191h-22l53 191h-242l-50 -193h-24zM168 210h240l84 303h-243z" />
<glyph unicode="$" d="M277 -38q-86 2 -152 44t-95 89l18 9q26 -44 87.5 -82t141.5 -38q91 0 155 43.5t64 130.5q0 19 -4.5 37t-10 31.5t-17 27t-20.5 22.5t-25 19t-25 15.5t-27.5 13.5t-25 10.5t-24.5 8.5t-20 7l-28 11q-39 14 -66 27t-59 34.5t-50.5 51.5t-22.5 68q-6 87 53.5 144.5 t152.5 52.5v78h21v-80q50 -8 93.5 -33t62.5 -46l19 -21l-17 -12q-3 4 -8 9.5t-22.5 21t-37 27.5t-50 22.5t-62.5 11.5q-81 5 -135.5 -47t-47.5 -127q3 -33 19.5 -60t46 -47t55 -32t62.5 -26l28 -11q3 -1 26 -9.5t33.5 -12.5t34.5 -15.5t36.5 -21t31 -26t28 -33.5t17 -41 t7.5 -50q0 -91 -64 -139.5t-156 -54.5v-79h-21v77z" />
<glyph unicode="%" horiz-adv-x="791" d="M185 391q62 0 102 56t40 161q0 106 -40 160.5t-102 54.5t-102.5 -54.5t-40.5 -160.5q0 -105 40.5 -161t102.5 -56zM55 608q0 100 37 151.5t93 51.5t92.5 -51.5t36.5 -151.5t-37 -152.5t-92 -52.5q-56 0 -93 52.5t-37 152.5zM129 -2l581 753h20l-581 -753h-20zM464 213 q0 -105 40.5 -161t102.5 -56t102 56t40 161q0 106 -40 160.5t-102 54.5t-102.5 -54.5t-40.5 -160.5zM477 213q0 100 37 151.5t93 51.5t92.5 -51.5t36.5 -151.5t-37 -152.5t-92 -52.5q-56 0 -93 52.5t-37 152.5z" />
<glyph unicode="&#x26;" horiz-adv-x="650" d="M436 599q0 49 -34.5 79t-76.5 30q-40 0 -68.5 -15.5t-43 -40.5t-20.5 -48.5t-6 -47.5q0 -40 10 -69t38 -61q105 42 136 63q65 43 65 110zM14 179q0 50 15.5 89t46 66.5t61 45.5t74.5 36q-27 33 -35.5 67t-8.5 83q0 75 48 117.5t110 42.5q51 0 92.5 -35.5t41.5 -92.5 q0 -38 -13.5 -66t-49.5 -52t-56 -33.5t-76 -31.5q-9 -4 -14 -6l240 -255q23 60 29 146h21q-3 -91 -34 -162l130 -138h-28l-112 117q-76 -141 -263 -141q-96 0 -157.5 57.5t-61.5 145.5zM36 180q0 -79 56.5 -132t140.5 -53q79 0 122 16q84 31 126 121l-250 261l-6 6 q-43 -18 -72 -34.5t-58.5 -42t-44 -61t-14.5 -81.5z" />
<glyph unicode="'" horiz-adv-x="90" d="M28 547l-17 218h39l-6 -218h-16z" />
<glyph unicode="(" horiz-adv-x="224" d="M183 -146q-5 9 -14 26t-32 69.5t-40.5 105t-32 127.5t-14.5 144q0 68 14 140t33.5 126t39 98t33.5 67l14 23l18 -10q-5 -8 -14 -23.5t-31.5 -64t-40 -98t-31.5 -120.5t-14 -138t13.5 -139.5t32.5 -128t38.5 -101t32.5 -69.5l14 -25z" />
<glyph unicode=")" horiz-adv-x="232" d="M50 -137q5 9 14 25.5t31.5 68t40 103.5t31.5 125.5t14 140.5t-13.5 137t-32.5 122.5t-38 96t-33 66.5l-13 22l18 10q5 -9 14 -24.5t32 -65t40.5 -100t32 -123.5t14.5 -141q0 -69 -13.5 -142.5t-33 -130t-39.5 -103t-34 -71.5l-13 -25z" />
<glyph unicode="*" horiz-adv-x="449" d="M205 780l-13 -183l168 69l9 -27l-177 -45l116 -137l-26 -17l-93 151l-92 -151l-27 17l117 137l-177 45l9 27l168 -69l-13 183h31z" />
<glyph unicode="+" d="M281 6v256h-254v18h254v255h21v-255h252v-18h-252v-256h-21z" />
<glyph unicode="," horiz-adv-x="154" d="M-9 -104q67 56 81 98h-3q-15 0 -25.5 10t-10.5 25q0 14 11 24t25 10t24.5 -10t10.5 -24q0 -35 -28 -75t-70 -72z" />
<glyph unicode="-" horiz-adv-x="496" d="M65 280v17h367v-17h-367z" />
<glyph unicode="." horiz-adv-x="137" d="M69 -6q-15 0 -25.5 10t-10.5 25q0 14 11 24t25 10t24.5 -10t10.5 -24q0 -15 -10.5 -25t-24.5 -10z" />
<glyph unicode="/" d="M191 -124l-29 7l259 853l27 -7z" />
<glyph unicode="0" horiz-adv-x="609" d="M305 -7q102 0 168.5 92.5t66.5 266.5t-66 264t-169 90t-169.5 -90t-66.5 -264q0 -173 67 -266t169 -93zM91 352q0 165 60.5 250t153.5 85q92 0 152.5 -85t60.5 -250t-61 -252t-152 -87q-92 0 -153 87t-61 252z" />
<glyph unicode="1" horiz-adv-x="415" d="M24 0v18h171v666l-162 -60v14l161 62h23v-682h175v-18h-368z" />
<glyph unicode="2" horiz-adv-x="443" d="M17 25q93 95 197 212.5t146 177.5q33 46 36.5 95t-18 86t-64 61t-96.5 24q-52 0 -94.5 -26t-66.5 -68l-22 6q28 53 76.5 83t106.5 30q48 0 89 -17.5t67.5 -48.5t38.5 -69.5t3.5 -83.5t-39.5 -87q-67 -94 -332 -375h392v-25h-420v25z" />
<glyph unicode="3" horiz-adv-x="439" d="M203 -3q-127 0 -186 110l18 11q34 -56 74 -76t94 -20q83 0 134.5 49.5t51.5 126.5q0 78 -54.5 130.5t-146.5 52.5h-13v20h11q76 0 115.5 39t39.5 102q0 59 -40.5 98t-97.5 39q-43 0 -78 -20.5t-48 -56.5l-23 4q9 37 50 67.5t99 30.5q66 0 113.5 -47.5t47.5 -114.5 q0 -55 -29.5 -96.5t-75.5 -53.5q62 -12 107 -63.5t45 -130.5q0 -84 -58.5 -142.5t-149.5 -58.5z" />
<glyph unicode="4" horiz-adv-x="560" d="M420 0v163h-387v31l383 506h25v-507h97v-30h-97v-163h-21zM60 193h360v477z" />
<glyph unicode="5" horiz-adv-x="471" d="M174 0q-91 14 -148 78l19 11q43 -54 132 -71q86 -14 147.5 32t75.5 128q13 79 -35.5 146t-125.5 80q-87 13 -167 -25l-11 16l69 305h269v-19h-252l-67 -281q81 37 163 21q87 -16 140 -87.5t38 -158.5q-15 -90 -83.5 -140t-163.5 -35z" />
<glyph unicode="6" horiz-adv-x="438" d="M146 7q-83 38 -110 125.5t17 159.5l236 408h26l-191 -331l-19 -21q41 32 105 36.5t109 -20.5q70 -41 91.5 -119t-18.5 -150q-36 -62 -102.5 -88t-143.5 0zM73 277q-35 -61 -16.5 -130t81.5 -105q61 -35 130 -16t103 80q35 61 16.5 130.5t-80.5 103.5q-62 35 -130 16.5 t-104 -79.5z" />
<glyph unicode="7" horiz-adv-x="498" d="M49 0l399 675h-375v25h415l-413 -700h-26z" />
<glyph unicode="8" horiz-adv-x="484" d="M140 21q-76 39 -98 114t21 144q39 60 103 85q-72 38 -94 111.5t17 140.5q36 63 108 82.5t133 -16.5q65 -37 84 -106t-19 -133q-26 -46 -76 -77q90 -36 120.5 -118t-17.5 -157q-43 -67 -125.5 -87.5t-156.5 17.5zM81 269q-38 -61 -18.5 -128.5t86.5 -102.5 q68 -36 141.5 -17.5t113.5 80.5q27 41 24 85.5t-23.5 82t-63.5 61.5t-96 24q-51 0 -94.5 -22.5t-69.5 -62.5zM108 608q-29 -59 -18 -111t55 -88t100 -36q87 0 133 79q32 55 15 118t-74 95q-55 32 -117 15.5t-94 -72.5z" />
<glyph unicode="9" horiz-adv-x="438" d="M292 689q83 -38 110 -125.5t-17 -159.5l-236 -408h-26l191 331l19 21q-41 -32 -105 -36.5t-109 20.5q-70 41 -91.5 119t18.5 150q36 62 102.5 88t143.5 0zM67 590q-35 -61 -16.5 -130.5t80.5 -103.5q62 -35 130 -16.5t104 79.5q35 61 16.5 130t-81.5 105q-61 35 -130 16 t-103 -80z" />
<glyph unicode=":" horiz-adv-x="137" d="M69 -6q-15 0 -25.5 10t-10.5 25q0 14 11 24t25 10t24.5 -10t10.5 -24q0 -15 -10.5 -25t-24.5 -10zM33 439q0 14 11 24t25 10t24.5 -10t10.5 -24q0 -15 -10.5 -25t-24.5 -10q-15 0 -25.5 10t-10.5 25z" />
<glyph unicode=";" horiz-adv-x="154" d="M-9 -104q67 56 81 98h-3q-15 0 -25.5 10t-10.5 25q0 14 11 24t25 10t24.5 -10t10.5 -24q0 -35 -28 -75t-70 -72zM33 439q0 14 11 24t25 10t24.5 -10t10.5 -24q0 -15 -10.5 -25t-24.5 -10q-15 0 -25.5 10t-10.5 25z" />
<glyph unicode="&#x3c;" horiz-adv-x="566" d="M454 138l-309 147v19l319 -149zM145 310v17l308 147l10 -16z" />
<glyph unicode="=" d="M99 420v19h410v-19h-410zM99 141v19h410v-19h-410z" />
<glyph unicode="&#x3e;" horiz-adv-x="566" d="M156 138l-9 17l320 150v-20zM148 458l8 16l311 -147v-18zM467 305l4 2l-4 2v-4z" />
<glyph unicode="?" horiz-adv-x="344" d="M77 378q32 11 53 19t49.5 23.5t45.5 31.5t30.5 41t15.5 55q4 62 -36.5 100t-108.5 38q-32 0 -59 -16.5t-38 -31t-16 -25.5l-23 13q2 3 5 8.5t15.5 19.5t26.5 24.5t38 19.5t50 9q86 0 129.5 -44t38.5 -117q-7 -74 -58 -115.5t-131 -68.5v-190h-23zM60 29q0 14 11 24t25 10 t24.5 -10t10.5 -24q0 -15 -10.5 -25t-24.5 -10q-15 0 -25.5 10t-10.5 25z" />
<glyph unicode="@" horiz-adv-x="1103" d="M533 -24q-78 0 -117 41.5t-39 91.5q0 49 18 82t52 49.5t71.5 23t88.5 6.5q61 0 112 -11v69q0 137 -152 137q-52 0 -88 -19t-70 -56l-18 14q32 38 72 61.5t104 23.5q77 0 127 -37.5t50 -119.5v-200q0 -131 113 -131q62 0 117.5 76.5t55.5 181.5q0 204 -134 341.5 t-337 137.5q-133 0 -246.5 -66t-179 -179t-65.5 -247q0 -135 66 -248.5t179 -179t246 -65.5q136 0 264 77l11 -17q-123 -79 -275 -79q-139 0 -257 69t-186.5 187t-68.5 256t68.5 255.5t186.5 186t257 68.5q212 0 352 -143t140 -354q0 -112 -60 -195t-135 -83 q-132 0 -132 167q0 -72 -62 -122t-129 -50zM402 117q0 -45 33.5 -80t92.5 -35q90 0 140.5 60.5t50.5 174.5q-51 11 -105 11q-212 0 -212 -131z" />
<glyph unicode="A" horiz-adv-x="605" d="M567 0l-92 236h-346l-92 -236h-22l274 700h26l274 -700h-22zM137 255h330l-165 422z" />
<glyph unicode="B" horiz-adv-x="571" d="M541 209q0 -96 -61.5 -152.5t-162.5 -56.5h-237v700h218q62 0 106 -44t44 -107q0 -52 -18.5 -87.5t-72.5 -50.5q80 -1 132 -53t52 -149zM101 19h202q112 0 164 53t52 137q0 77 -42.5 133.5t-134.5 56.5h-241v-380zM101 417h207q69 0 93.5 35t24.5 97q0 54 -37 93t-84 39 h-204v-264z" />
<glyph unicode="C" horiz-adv-x="654" d="M375 -2q-137 0 -233.5 103t-96.5 249q0 90 40 169.5t117 130.5t173 51q135 0 234 -102l-16 -13q-90 96 -218 96q-133 0 -221 -100t-88 -232q0 -139 91 -236t218 -97q138 0 231 111l18 -13q-103 -117 -249 -117z" />
<glyph unicode="D" horiz-adv-x="613" d="M80 0v700h134q179 0 266.5 -94t87.5 -256q0 -159 -88.5 -254.5t-260.5 -95.5h-139zM101 19h118q163 0 245 89t82 242q0 157 -80.5 244t-251.5 87h-113v-662z" />
<glyph unicode="E" horiz-adv-x="533" d="M80 0v700h431v-19h-410v-317h330v-19h-330v-326h411v-19h-432z" />
<glyph unicode="F" horiz-adv-x="497" d="M80 0v701h410v-19h-389v-319h309v-18h-309v-345h-21z" />
<glyph unicode="G" horiz-adv-x="701" d="M394 -6q-145 0 -247 103.5t-102 252.5q0 148 101.5 252t247.5 104q105 0 197 -54l-18 -15q-88 50 -179 50q-137 0 -232.5 -98t-95.5 -239t96.5 -239t231.5 -98q70 0 139 31.5t116 88.5v175h-202v18h224v-199q-50 -63 -124 -98t-153 -35z" />
<glyph unicode="H" horiz-adv-x="694" d="M80 0v700h21v-336h492v336h21v-700h-21v345h-492v-345h-21z" />
<glyph unicode="I" horiz-adv-x="181" d="M80 0v700h21v-700h-21z" />
<glyph unicode="J" horiz-adv-x="423" d="M194 -2q-62 0 -110 41t-60 103h19q13 -55 55 -90t96 -35q64 0 103.5 34.5t40.5 108.5v541h22v-534q-1 -169 -166 -169z" />
<glyph unicode="K" horiz-adv-x="522" d="M80 0v700h21v-350l378 350h33l-317 -295l310 -405h-30l-297 391l-77 -72v-319h-21z" />
<glyph unicode="L" horiz-adv-x="463" d="M80 0v700h21v-681h342v-19h-363z" />
<glyph unicode="M" horiz-adv-x="845" d="M422 72l-321 586v-658h-21v700h24l318 -582l321 582h22v-700h-21v655z" />
<glyph unicode="N" horiz-adv-x="659" d="M80 0v700h25l451 -658v658h23v-700h-22l-456 667v-667h-21z" />
<glyph unicode="O" horiz-adv-x="790" d="M394 -6q-145 0 -247 103.5t-102 252.5q0 148 101.5 252t247.5 104q145 0 248 -103.5t103 -252.5q0 -82 -31 -150.5t-81 -112.5t-112 -68.5t-127 -24.5zM66 350q0 -141 96.5 -239t231.5 -98q60 0 118.5 23t105.5 64.5t76 107t29 142.5q0 142 -96 239.5t-233 97.5 t-232.5 -98t-95.5 -239z" />
<glyph unicode="P" horiz-adv-x="548" d="M80 0v708h249q74 0 126 -55q54 -51 54 -128q0 -74 -53 -127t-127 -53h-228v-345h-21zM101 363h228q65 0 111.5 47t46.5 115q0 69 -46 115q-49 49 -112 49h-228v-326z" />
<glyph unicode="Q" horiz-adv-x="739" d="M377 290h32l207 -191q107 97 107 251q0 142 -96 239.5t-233 97.5t-232.5 -98t-95.5 -239t96.5 -239t231.5 -98q115 0 205 72zM45 350q0 148 101.5 252t247.5 104q145 0 248 -103.5t103 -252.5q0 -163 -114 -265l93 -85h-32l-77 71q-99 -77 -221 -77q-145 0 -247 103.5 t-102 252.5z" />
<glyph unicode="R" horiz-adv-x="607" d="M354 399q73 0 112.5 39.5t39.5 101.5t-40.5 101.5t-120.5 39.5h-244v-282h253zM80 0v700h267q88 0 135 -45t47 -114q0 -71 -45.5 -115.5t-132.5 -44.5h-8l249 -381h-28l-246 381h-217v-381h-21z" />
<glyph unicode="S" horiz-adv-x="486" d="M231 -6q-109 0 -196 70l17 15q71 -64 179 -64q79 0 138.5 39t59.5 113q0 24 -5 45t-12 36t-21.5 29.5t-24.5 23t-31 19t-32 15t-36 14.5t-34 14q-76 31 -121.5 73t-45.5 110t51 114t122 46q88 0 158 -55l-16 -15q-64 51 -142 51q-64 0 -108 -39.5t-44 -101.5 q0 -58 40.5 -95t115.5 -67q102 -43 132 -62q73 -50 76 -144v-11q-1 -84 -64 -128.5t-156 -44.5z" />
<glyph unicode="T" horiz-adv-x="617" d="M297 0v681h-272v19h567v-19h-273v-681h-22z" />
<glyph unicode="U" horiz-adv-x="695" d="M347 -6q-114 0 -190.5 67t-76.5 204v435h23v-431q0 -124 68 -189t176 -65t176 65t68 189v431h24v-435q0 -137 -76.5 -204t-191.5 -67z" />
<glyph unicode="V" horiz-adv-x="592" d="M293 0l-273 700h22l255 -656l253 656h22l-271 -700h-8z" />
<glyph unicode="W" horiz-adv-x="955" d="M194 0l-174 700h22l170 -688l244 688h41l245 -689l171 689h22l-174 -700h-38l-246 694l-246 -694h-37z" />
<glyph unicode="X" horiz-adv-x="666" d="M57 700h25l251 -308l255 308h26l-267 -325l304 -375h-26l-294 362l-290 -362h-26l303 378z" />
<glyph unicode="Y" d="M289 0v346l-274 354h26l259 -334l259 334h26l-274 -354v-346h-22z" />
<glyph unicode="Z" horiz-adv-x="547" d="M10 0l495 681h-417v19h456l-494 -681h482v-19h-522z" />
<glyph unicode="[" horiz-adv-x="289" d="M33 -150v940h177v-19h-155v-902h155v-19h-177z" />
<glyph unicode="\" d="M409 -124l-257 853l27 7l259 -853z" />
<glyph unicode="]" horiz-adv-x="289" d="M78 -150v19h155v902h-155v19h177v-940h-177z" />
<glyph unicode="^" d="M124 414l-19 9l169 315l170 -315l-19 -9l-151 280z" />
<glyph unicode="_" d="M44 -104v18h495v-18h-495z" />
<glyph unicode="`" d="M417 536l-234 144l27 44l217 -174z" />
<glyph unicode="a" horiz-adv-x="511" d="M205 -7q-78 0 -117 41.5t-39 91.5q0 49 18 82t52 49.5t71.5 23t88.5 6.5q61 0 112 -11v69q0 137 -152 137q-52 0 -88 -19t-70 -56l-18 14q32 38 72 61.5t104 23.5q77 0 127 -37.5t50 -119.5v-349h-25v144q-10 -63 -59 -107t-127 -44zM74 134q0 -45 33.5 -80t92.5 -35 q90 0 140.5 60.5t50.5 174.5q-51 11 -105 11q-212 0 -212 -131z" />
<glyph unicode="b" horiz-adv-x="556" d="M60 700h25v-301q64 107 196 107q100 0 170 -73t70 -183q0 -108 -73 -182t-174 -74q-123 0 -189 105v-99h-25v700zM85 141q19 -50 68.5 -87.5t120.5 -37.5q90 0 156 67.5t66 166.5q0 103 -63 168.5t-152 65.5q-70 0 -123 -37t-73 -89v-217z" />
<glyph unicode="c" horiz-adv-x="506" d="M291 -6q-108 0 -182 69.5t-74 188.5q0 115 73.5 184.5t182.5 69.5q54 0 106.5 -23.5t74.5 -75.5l-23 -14q-16 40 -58.5 65.5t-99.5 25.5q-98 0 -164.5 -63t-66.5 -169q0 -111 66.5 -173t164.5 -62q45 0 80.5 14t51 28.5t33.5 37.5l20 -16q-65 -87 -185 -87z" />
<glyph unicode="d" horiz-adv-x="556" d="M496 700v-700h-25v99q-66 -105 -189 -105q-101 0 -174 74t-73 182q0 110 70 183t170 73q132 0 196 -107v301h25zM60 250q0 -99 66 -166.5t156 -67.5q71 0 120.5 37.5t68.5 87.5v217q-20 52 -73 89t-123 37q-89 0 -152 -65.5t-63 -168.5z" />
<glyph unicode="e" horiz-adv-x="517" d="M35 262q0 107 62.5 179t174.5 72q48 0 87 -14t63 -37t40 -51.5t21.5 -58.5t5.5 -56t-6 -47h-422q4 -108 65.5 -171t153.5 -63q132 0 183 108l21 -14q0 -3 -6 -14.5t-21.5 -29.5t-37.5 -34.5t-59 -28t-80 -11.5q-115 0 -180 78t-65 193zM61 272h402q8 101 -45.5 160.5 t-145.5 59.5q-83 0 -145 -57t-66 -163z" />
<glyph unicode="f" horiz-adv-x="311" d="M108 0v478h-103v22h103v90q0 128 112 128q34 0 61 -12.5t35 -29.5l-16 -17q-34 35 -83 35q-47 0 -65.5 -27t-18.5 -77v-90h157v-22h-157v-478h-25z" />
<glyph unicode="g" horiz-adv-x="557" d="M272 179q62 0 105.5 44t43.5 109t-44 108.5t-105 43.5t-104.5 -43t-43.5 -109q0 -65 43.5 -109t104.5 -44zM42 -144q0 99 89 151q-70 21 -70 86q0 34 24.5 65.5t75.5 36.5q-62 54 -62 137q0 72 51 123t122 51q48 0 86 -23l157 11l-14 -46l-114 14q59 -51 59 -130 q0 -73 -51 -124.5t-123 -51.5q-30 0 -81 20q-27 12 -65 -7t-38 -73q0 -74 120 -74q10 0 36 0.5t41 0.5q46 0 76.5 -2t62.5 -10t50.5 -23t30 -40.5t11.5 -62.5q0 -33 -14 -64.5t-43 -61t-83 -47.5t-125 -18q-61 0 -104.5 16t-65 42.5t-30.5 52t-9 51.5zM66 -127 q-2 -66 40.5 -110.5t144.5 -44.5q113 0 175.5 44t62.5 129q0 63 -50 84t-157 21q-96 0 -117 3q-44 -14 -70.5 -50.5t-28.5 -75.5z" />
<glyph unicode="h" horiz-adv-x="494" d="M50 0v700h25v-331q17 52 67.5 94.5t114.5 42.5q93 0 140 -45.5t47 -158.5v-302h-25v300q0 184 -162 184q-76 0 -127.5 -54t-54.5 -113v-317h-25z" />
<glyph unicode="i" horiz-adv-x="164" d="M70 0v500h25v-500h-25zM32 613q0 21 13.5 35t35.5 14q21 0 34.5 -14t13.5 -35t-13.5 -35t-34.5 -14q-22 0 -35.5 14t-13.5 35z" />
<glyph unicode="j" horiz-adv-x="145" d="M-79 -201q64 10 106.5 54.5t42.5 116.5v530h25v-530q0 -82 -48.5 -132t-125.5 -59v20zM34 613q0 21 13.5 35t35.5 14q21 0 34.5 -14t13.5 -35t-13.5 -35t-34.5 -14q-22 0 -35.5 14t-13.5 35z" />
<glyph unicode="k" horiz-adv-x="416" d="M60 0v700h25v-415l274 215h42l-218 -170l205 -330h-31l-195 313l-77 -61v-252h-25z" />
<glyph unicode="l" horiz-adv-x="145" d="M60 0v700h25v-700h-25z" />
<glyph unicode="m" horiz-adv-x="863" d="M50 0v500h25v-131q17 52 67.5 94.5t114.5 42.5q77 0 123.5 -33t59.5 -111q16 56 64.5 100t121.5 44q90 0 138.5 -46t48.5 -158v-302h-26v300q0 184 -161 184q-76 0 -127.5 -54t-54.5 -113v-317h-25v300q0 184 -162 184q-76 0 -127.5 -54t-54.5 -113v-317h-25z" />
<glyph unicode="n" horiz-adv-x="494" d="M50 0v500h25v-131q17 52 67.5 94.5t114.5 42.5q90 0 138.5 -46t48.5 -158v-302h-25v300q0 184 -162 184q-76 0 -127.5 -54t-54.5 -113v-317h-25z" />
<glyph unicode="o" horiz-adv-x="583" d="M292 -6q-107 0 -182 72.5t-75 183.5t75 183.5t182 72.5t181.5 -72.5t74.5 -183.5t-74.5 -183.5t-181.5 -72.5zM60 250q0 -102 68 -168.5t164 -66.5t163.5 66.5t67.5 168.5t-67.5 168.5t-163.5 66.5t-164 -66.5t-68 -168.5z" />
<glyph unicode="p" horiz-adv-x="556" d="M60 -200v700h25v-99q66 105 189 105q101 0 174 -74t73 -182q0 -110 -70 -183t-170 -73q-132 0 -196 107v-301h-25zM85 142q20 -52 73 -89t123 -37q89 0 152 65.5t63 168.5q0 99 -66 166.5t-156 67.5q-71 0 -120.5 -37.5t-68.5 -87.5v-217z" />
<glyph unicode="q" horiz-adv-x="556" d="M496 -200h-25v301q-64 -107 -196 -107q-100 0 -170 73t-70 183q0 108 73 182t174 74q123 0 189 -105v99h25v-700zM60 250q0 -103 63 -168.5t152 -65.5q70 0 123 37t73 89v217q-19 50 -68.5 87.5t-120.5 37.5q-90 0 -156 -67.5t-66 -166.5z" />
<glyph unicode="r" horiz-adv-x="370" d="M92 0v500h25v-131q13 70 48 103.5t79 33.5q33 0 56.5 -10.5t34.5 -27t16 -30.5t5 -28l-21 -11q-16 84 -91 82q-54 -1 -89 -48.5t-38 -130.5v-302h-25z" />
<glyph unicode="s" horiz-adv-x="366" d="M185 -6q-97 0 -172 75l20 18q57 -68 152 -68q60 0 98.5 34.5t38.5 90.5q0 46 -29 75t-70.5 42.5t-83.5 26t-71 37.5t-29 65q0 54 35 85t97 31q85 0 136 -66l-20 -15q-47 57 -114 57q-53 0 -81 -25.5t-28 -64.5q0 -36 29.5 -57.5t71 -33t83 -25.5t71 -47t29.5 -85 q0 -68 -46.5 -109t-116.5 -41z" />
<glyph unicode="t" horiz-adv-x="324" d="M211 -6q-33 0 -55.5 10t-34.5 24t-18.5 40t-7.5 46.5t-1 54.5v315h-84v24h84v192h25v-192h176v-24h-176v-325q0 -71 17 -105t64 -34q56 0 100 24l12 -22q-20 -14 -52 -21t-49 -7z" />
<glyph unicode="u" horiz-adv-x="494" d="M444 500v-500h-25v131q-17 -52 -67.5 -94.5t-114.5 -42.5q-90 0 -138.5 46t-48.5 158v302h25v-300q0 -184 162 -184q76 0 127.5 54t54.5 113v317h25z" />
<glyph unicode="v" horiz-adv-x="453" d="M215 0l-205 500h26l191 -465l190 465h26l-205 -500h-23z" />
<glyph unicode="w" horiz-adv-x="691" d="M36 500l149 -465l149 465h23l149 -465l149 465h26l-165 -500h-20l-150 461l-151 -461h-20l-165 500h26z" />
<glyph unicode="x" horiz-adv-x="471" d="M5 0l215 255l-214 245h33l199 -229l189 229h31l-205 -247l213 -253h-31l-200 235l-200 -235h-30z" />
<glyph unicode="y" horiz-adv-x="554" d="M109 -200l157 268l-256 432h30l241 -408l243 408h28l-414 -700h-29z" />
<glyph unicode="z" horiz-adv-x="486" d="M32 0v25l373 443h-358v28h405v-14l-381 -450h365v-32h-404z" />
<glyph unicode="{" horiz-adv-x="393" d="M50 330q46 0 74.5 9t41 29.5t16 41t3.5 57.5q0 23 -3 81t-3 92q0 157 121 157l45 -8l-3 -15q-20 9 -62 9q-34 0 -58 -23.5t-24 -81.5q0 -29 3.5 -91.5t3.5 -93.5q0 -94 -28 -132t-97 -43q69 -5 97 -43.5t28 -132.5q0 -31 -3.5 -93.5t-3.5 -91.5q0 -57 24 -80.5t58 -23.5 q42 0 62 9l3 -16q-30 -8 -45 -8q-121 0 -121 157q0 34 3 92t3 81q0 29 -2 47t-9 37t-21.5 29.5t-40 17t-62.5 6.5v25z" />
<glyph unicode="|" d="M316 -172v949h21v-949h-21z" />
<glyph unicode="}" horiz-adv-x="393" d="M343 305q-37 0 -62.5 -6.5t-40 -17t-21.5 -29.5t-9 -37t-2 -47q0 -23 3 -81t3 -92q0 -157 -121 -157l-45 8l3 16q20 -9 62 -9q34 0 58 23.5t24 80.5q0 29 -3.5 91.5t-3.5 93.5q0 94 28 132.5t97 43.5q-69 5 -97 43t-28 132q0 31 3.5 93.5t3.5 91.5q0 58 -24 81.5 t-58 23.5q-42 0 -62 -9l-3 15q30 8 45 8q121 0 121 -157q0 -34 -3 -92t-3 -81q0 -37 3.5 -57.5t16 -41t41 -29.5t74.5 -9v-25z" />
<glyph unicode="~" d="M451 270q-32 0 -64 24.5t-55 54t-56 54t-66 24.5q-41 0 -62 -25t-21 -66q0 -3 5 -38l-30 -4q-3 21 -3 41q0 56 30.5 87t89.5 31q27 0 54 -16.5t48.5 -39.5l43 -46t45.5 -39.5t48 -16.5q72 0 72 86q0 21 -2 39l30 4q1 -10 1 -45q0 -53 -28 -81t-80 -28z" />
<glyph unicode="&#xa1;" horiz-adv-x="168" d="M74 250h20l12 -450h-44zM48 471q0 15 10.5 25t25.5 10q14 0 24.5 -10t10.5 -25q0 -14 -10.5 -24t-24.5 -10t-25 10t-11 24z" />
<glyph unicode="&#xa2;" horiz-adv-x="546" d="M290 84q-94 10 -156.5 81.5t-62.5 169.5q0 95 61 168.5t158 82.5v88h21v-87q88 0 166 -68l-19 -15q-27 28 -67 44.5t-83 16.5q-93 0 -154.5 -69t-61.5 -161q0 -94 63.5 -161.5t152.5 -67.5q47 0 90 18.5t70 49.5l18 -11q-80 -80 -175 -81v-89h-21v91z" />
<glyph unicode="&#xa3;" d="M475 -28q-60 0 -109.5 22t-90.5 44t-80 22q-29 0 -53 -7t-38 -17t-24 -20.5t-14 -17.5l-4 -7l-22 5q1 3 3.5 8.5t12.5 19.5t23 25t36.5 22t52.5 15q38 97 -33 246h-106v19h96q-26 71 -30.5 138.5t14 125.5t73 91.5t139.5 29.5q87 -3 122 -32l-27 -15q-13 16 -29.5 21.5 t-32 4t-33.5 0.5q-77 4 -126 -27t-65 -85t-11 -118.5t31 -133.5h243v-19h-231q62 -120 32 -232q34 -5 65.5 -23t53.5 -35.5t64.5 -32t97.5 -14.5q26 0 45 3t30 10t16.5 11.5t10.5 12.5t6 9l26 -16q-1 0 -4 -5t-10.5 -13t-20 -16t-38.5 -13.5t-61 -5.5z" />
<glyph unicode="&#xa4;" horiz-adv-x="705" d="M114 85l-16 13l117 118q-50 58 -50 140q0 78 51 142l-118 117l16 15l116 -118q62 51 140 51q82 0 142 -51l116 118l16 -15l-119 -117q53 -61 53 -142q0 -77 -52 -140l118 -118l-16 -13l-115 116q-63 -53 -143 -53q-76 0 -141 53zM186 356q0 -78 54.5 -133.5t129.5 -55.5 q76 0 131 55.5t55 133.5t-55 133t-131 55q-75 0 -129.5 -55t-54.5 -133z" />
<glyph unicode="&#xa5;" d="M309 -1v149h-201v43h201v111h-201v43h181l-265 342l17 11l271 -349l270 349l18 -11l-266 -342h182v-43h-186v-111h186v-43h-186v-149h-21z" />
<glyph unicode="&#xa6;" d="M187 -73v300h22v-300h-22zM187 455v299h22v-299h-22z" />
<glyph unicode="&#xa7;" d="M299 -127q-78 0 -137.5 35t-85.5 75l18 10q24 -37 78.5 -69.5t126.5 -32.5q80 0 137 37t57 110q0 23 -6.5 42.5t-21 35t-26.5 26t-37 22t-36.5 17t-40 15.5t-34.5 12q-31 11 -49 18.5t-44.5 22t-42 29t-28.5 36.5t-15 48q-9 93 73 146q-65 44 -73 112q-6 74 48 122.5 t138 44.5q97 -5 177 -85l-17 -12q-73 73 -162 79q-72 2 -120 -41.5t-42 -106.5q3 -28 14 -48.5t36.5 -37t46.5 -26t67 -26.5q7 -3 41 -15.5t50 -19t44.5 -23t42.5 -32.5t26 -41.5t12 -55.5q0 -83 -69 -131q69 -51 69 -127q0 -82 -63.5 -123.5t-151.5 -41.5zM134 363 q2 -23 14 -42.5t23.5 -31t39 -26t40 -20t47.5 -19.5q96 -35 125 -50q70 42 70 122q0 23 -6.5 42.5t-20.5 34.5t-27.5 26t-36.5 21.5t-37 16.5t-39.5 15t-34.5 13q-60 24 -78 33q-39 -20 -60.5 -55.5t-18.5 -79.5z" />
<glyph unicode="&#xa8;" d="M418 564q-22 0 -35.5 14t-13.5 35t13.5 35t35.5 14q21 0 34.5 -14t13.5 -35t-13.5 -35t-34.5 -14zM80 613q0 21 13.5 35t35.5 14q21 0 34.5 -14t13.5 -35t-13.5 -35t-34.5 -14q-22 0 -35.5 14t-13.5 35z" />
<glyph unicode="&#xa9;" horiz-adv-x="819" d="M410 -20q-157 0 -264 104.5t-107 265.5q0 151 110 260.5t261 109.5q100 0 187 -52t136 -136q47 -80 47 -182q0 -152 -109 -261t-261 -109zM55 350q0 -115 63 -207q49 -70 126 -111t166 -41q148 0 251.5 105t103.5 254q0 98 -49 187q-49 79 -130 125.5t-176 46.5 q-148 0 -251.5 -105t-103.5 -254zM227 354q0 79 52.5 138.5t134.5 59.5q77 0 132 -57l-9 -8q-49 54 -123 54q-75 0 -125 -56.5t-50 -130.5q0 -78 51.5 -133t123.5 -55q77 0 131 62l10 -7q-58 -66 -141 -66q-77 0 -132 58.5t-55 140.5z" />
<glyph unicode="&#xaa;" horiz-adv-x="380" d="M156 435q-52 0 -82 30t-30 64q0 59 43 87.5t109 31.5q20 1 70 -5v22q0 38 -23.5 58.5t-59.5 20.5q-31 0 -83 -32l-33 27q47 47 116 47q54 0 92.5 -34.5t38.5 -86.5v-225h-48v36q-54 -41 -110 -41zM96 526q0 -54 58 -54q106 0 112 131q-45 5 -49 5q-64 0 -92.5 -17.5 t-28.5 -64.5z" />
<glyph unicode="&#xab;" horiz-adv-x="493" d="M350 87l-187 186l187 185l18 -13l-158 -172l158 -172zM28 273l188 185l17 -13l-158 -172l158 -172l-17 -14z" />
<glyph unicode="&#xac;" horiz-adv-x="744" d="M674 172v238h-623v18h645v-256h-22z" />
<glyph unicode="&#xad;" d="M65 280v17h367v-17h-367z" />
<glyph unicode="&#xae;" horiz-adv-x="817" d="M409 -20q-156 0 -263.5 104.5t-107.5 265.5q0 151 110 260.5t261 109.5q100 0 187 -52t136 -136q47 -80 47 -182q0 -152 -109.5 -261t-260.5 -109zM54 350q0 -115 63 -207q49 -70 126 -111t166 -41q148 0 251.5 105t103.5 254q0 98 -49 187q-48 79 -129.5 125.5 t-176.5 46.5q-148 0 -251.5 -105t-103.5 -254zM276 155v396h150q50 0 76.5 -25.5t26.5 -64.5q0 -40 -25.5 -65.5t-74.5 -25.5h-5l141 -215h-16l-138 215h-124v-215h-11zM287 381h143q42 0 64 22t22 57t-22.5 57.5t-68.5 22.5h-138v-159z" />
<glyph unicode="&#xaf;" d="M209 587v22h184v-22h-184z" />
<glyph unicode="&#xb0;" d="M304 465q-75 0 -128 52t-53 124t53 123.5t128 51.5t128 -51.5t53 -123.5t-53 -124t-128 -52zM140 642q0 -71 48 -116.5t116 -45.5t116 45.5t48 116.5q0 69 -48 114t-116 45t-116 -45t-48 -114z" />
<glyph unicode="&#xb1;" d="M290 181v183h-252v18h252v184h21v-184h254v-18h-254v-183h-21zM38 -29v19h527v-19h-527z" />
<glyph unicode="&#xb2;" horiz-adv-x="269" d="M10 410q56 58 119 129.5t89 107.5q40 58 11 109.5t-97 51.5q-31 0 -57 -15.5t-40 -41.5l-14 3q37 69 111 69q75 0 108.5 -60t-12.5 -126q-40 -56 -201 -227h238v-15h-255v15z" />
<glyph unicode="&#xb3;" horiz-adv-x="266" d="M123 393q-78 0 -113 67l11 7q36 -59 102 -59q51 0 82 30t31 77t-33 79t-89 32h-8v12h7q46 0 70 24t24 62q0 36 -24.5 59.5t-59.5 23.5q-26 0 -47 -12.5t-29 -34.5l-14 2q5 22 30 41t60 19q40 0 69 -29t29 -69q0 -34 -18 -59t-47 -33q38 -7 65.5 -37.5t27.5 -79.5 q0 -51 -35.5 -86.5t-90.5 -35.5z" />
<glyph unicode="&#xb4;" d="M213 536l-10 14l217 174l27 -44z" />
<glyph unicode="&#xb5;" d="M107 -239v715h22v-272q0 -29 7.5 -56.5t24 -54.5t50 -43.5t79.5 -16.5q69 0 105 41.5t37 105.5v296h21v-316q0 -15 3 -31.5t11 -37.5t25.5 -38.5t42.5 -25.5v-11q-71 8 -99 73q-44 -74 -146 -74q-105 0 -161 56v-310h-22z" />
<glyph unicode="&#xb6;" horiz-adv-x="553" d="M273 -159v586h-47q-71 0 -121 50t-50 122q0 74 50 122q52 50 121 50h232v-930h-22v912h-141v-912h-22zM76 599q0 -64 44.5 -108.5t105.5 -44.5h47v307h-47q-59 0 -107 -45q-43 -43 -43 -109z" />
<glyph unicode="&#xb7;" horiz-adv-x="197" d="M99 195q-15 0 -25.5 10t-10.5 25q0 14 11 24t25 10t24.5 -10t10.5 -24q0 -15 -10.5 -25t-24.5 -10z" />
<glyph unicode="&#xb8;" horiz-adv-x="577" d="M318 -79h-68l36 81h12l-21 -63h41q42 0 66 -14t23 -45q-1 -36 -36 -57t-81 -21q-70 0 -108 35v24q40 -40 108 -40q39 0 69 16t30 46q0 38 -71 38z" />
<glyph unicode="&#xb9;" horiz-adv-x="252" d="M15 393v11h103v404l-98 -37v9l98 37h14v-413h106v-11h-223z" />
<glyph unicode="&#xba;" horiz-adv-x="404" d="M202 434q-75 0 -127.5 52t-52.5 124q0 71 53 124t127 53q73 0 126.5 -53t53.5 -124t-53.5 -123.5t-126.5 -52.5zM70 610q0 -57 39.5 -98.5t92.5 -41.5q51 0 90 41.5t39 98.5t-38.5 98.5t-90.5 41.5t-92 -41.5t-40 -98.5z" />
<glyph unicode="&#xbb;" horiz-adv-x="484" d="M267 87l-17 14l157 172l-157 172l17 13l187 -185zM115 101l158 172l-158 172l17 13l188 -185l-188 -186z" />
<glyph unicode="&#xbc;" horiz-adv-x="800" d="M80 -2l581 753h20l-581 -753h-20zM30 393v11h103v404l-98 -37v9l98 37h14v-413h106v-11h-223zM407 99v19l232 306h15v-307h59v-18h-59v-99h-12v99h-235zM423 117h219v289z" />
<glyph unicode="&#xbd;" horiz-adv-x="800" d="M80 -2l581 753h20l-581 -753h-20zM30 393v11h103v404l-98 -37v9l98 37h14v-413h106v-11h-223zM461 0v15q56 58 119 129.5t89 107.5q40 58 11 109.5t-97 51.5q-31 0 -57 -15.5t-40 -41.5l-14 3q37 69 111 69q75 0 108.5 -60t-12.5 -126q-40 -56 -201 -227h238v-15h-255z " />
<glyph unicode="&#xbe;" horiz-adv-x="800" d="M80 -2l581 753h20l-581 -753h-20zM10 460l11 7q36 -59 102 -59q51 0 82 30t31 77t-33 79t-89 32h-8v12h7q46 0 70 24t24 62q0 36 -24.5 59.5t-59.5 23.5q-26 0 -47 -12.5t-29 -34.5l-14 2q5 22 30 41t60 19q40 0 69 -29t29 -69q0 -34 -18 -59t-47 -33q38 -7 65.5 -37.5 t27.5 -79.5q0 -51 -35.5 -86.5t-90.5 -35.5q-78 0 -113 67zM407 99v19l232 306h15v-307h59v-18h-59v-99h-12v99h-235zM423 117h219v289z" />
<glyph unicode="&#xbf;" horiz-adv-x="344" d="M267 122q-32 -11 -53 -19t-49.5 -23.5t-45.5 -31.5t-30.5 -41t-15.5 -55q-4 -62 36.5 -100t108.5 -38q32 0 59 16.5t38 31t16 25.5l23 -13q-2 -3 -5 -8.5t-15.5 -19.5t-26.5 -24.5t-38 -19.5t-50 -9q-86 0 -129.5 44t-38.5 117q7 74 58 115.5t131 68.5v190h23zM213 471 q0 15 10.5 25t24.5 10q15 0 25.5 -10t10.5 -25q0 -14 -11 -24t-25 -10t-24.5 10t-10.5 24z" />
<glyph unicode="&#xc0;" horiz-adv-x="605" d="M567 0l-92 236h-346l-92 -236h-22l274 700h26l274 -700h-22zM137 255h330l-165 422zM186 880l27 44l217 -174l-10 -14z" />
<glyph unicode="&#xc1;" horiz-adv-x="605" d="M567 0l-92 236h-346l-92 -236h-22l274 700h26l274 -700h-22zM137 255h330l-165 422zM206 750l217 174l27 -44l-234 -144z" />
<glyph unicode="&#xc2;" horiz-adv-x="605" d="M567 0l-92 236h-346l-92 -236h-22l274 700h26l274 -700h-22zM122 781l180 77l180 -77l-6 -16l-174 66l-174 -66zM137 255h330l-165 422z" />
<glyph unicode="&#xc3;" horiz-adv-x="605" d="M567 0l-92 236h-346l-92 -236h-22l274 700h26l274 -700h-22zM135 794q-1 27 24 51.5t64 24.5q26 0 73 -28.5t75 -28.5q66 0 68 54h25q-9 -76 -89 -76q-42 0 -87.5 28.5t-62.5 28.5q-57 0 -68 -54h-22zM137 255h330l-165 422z" />
<glyph unicode="&#xc4;" horiz-adv-x="605" d="M567 0l-92 236h-346l-92 -236h-22l274 700h26l274 -700h-22zM110 813q0 21 13.5 35t35.5 14q21 0 34.5 -14t13.5 -35t-13.5 -35t-34.5 -14q-22 0 -35.5 14t-13.5 35zM137 255h330l-165 422zM399 813q0 21 13.5 35t35.5 14q21 0 34.5 -14t13.5 -35t-13.5 -35t-34.5 -14 q-22 0 -35.5 14t-13.5 35z" />
<glyph unicode="&#xc5;" horiz-adv-x="605" d="M567 0l-92 236h-346l-92 -236h-22l274 700h26l274 -700h-22zM137 255h330l-165 422zM169 864q0 57 39.5 96.5t94.5 39.5t93.5 -39.5t38.5 -96.5q0 -56 -38.5 -95t-93.5 -39t-94.5 39t-39.5 95zM203 864q0 -44 29 -71.5t71 -27.5t70.5 27t28.5 72t-28.5 73t-70.5 28 t-71 -28t-29 -73z" />
<glyph unicode="&#xc6;" horiz-adv-x="1102" d="M41 -1l548 701h427v-19h-410v-317h330v-19h-330v-326h410v-19h-431v238h-331l-185 -239h-28zM270 257h315v399z" />
<glyph unicode="&#xc7;" horiz-adv-x="654" d="M397 -81h-68l35 79q-133 5 -226 107t-93 245q0 90 40 169.5t117 130.5t173 51q135 0 234 -102l-16 -13q-90 96 -218 96q-133 0 -221 -100t-88 -232q0 -139 91 -236t218 -97q138 0 231 111l18 -13q-103 -117 -248 -117l-20 -61h41q42 0 66 -14t23 -45q-1 -36 -36 -57 t-81 -21q-70 0 -108 35v24q40 -40 108 -40q39 0 69 16t30 46q0 38 -71 38z" />
<glyph unicode="&#xc8;" horiz-adv-x="533" d="M80 0v700h431v-19h-410v-317h330v-19h-330v-326h411v-19h-432zM191 880l27 44l217 -174l-10 -14z" />
<glyph unicode="&#xc9;" horiz-adv-x="533" d="M80 0v700h431v-19h-410v-317h330v-19h-330v-326h411v-19h-432zM211 750l217 174l27 -44l-234 -144z" />
<glyph unicode="&#xca;" horiz-adv-x="533" d="M80 0v700h431v-19h-410v-317h330v-19h-330v-326h411v-19h-432zM127 781l180 77l180 -77l-6 -16l-174 66l-174 -66z" />
<glyph unicode="&#xcb;" horiz-adv-x="533" d="M80 0v700h431v-19h-410v-317h330v-19h-330v-326h411v-19h-432zM115 813q0 21 13.5 35t35.5 14q21 0 34.5 -14t13.5 -35t-13.5 -35t-34.5 -14q-22 0 -35.5 14t-13.5 35zM404 813q0 21 13.5 35t35.5 14q21 0 34.5 -14t13.5 -35t-13.5 -35t-34.5 -14q-22 0 -35.5 14 t-13.5 35z" />
<glyph unicode="&#xcc;" horiz-adv-x="181" d="M80 0v700h21v-700h-21zM-26 880l27 44l217 -174l-10 -14z" />
<glyph unicode="&#xcd;" horiz-adv-x="181" d="M80 0v700h21v-700h-21zM-6 750l217 174l27 -44l-234 -144z" />
<glyph unicode="&#xce;" horiz-adv-x="181" d="M80 0v700h21v-700h-21zM-90 781l180 77l180 -77l-6 -16l-174 66l-174 -66z" />
<glyph unicode="&#xcf;" horiz-adv-x="181" d="M80 0v700h21v-700h-21zM-102 813q0 21 13.5 35t35.5 14q21 0 34.5 -14t13.5 -35t-13.5 -35t-34.5 -14q-22 0 -35.5 14t-13.5 35zM187 813q0 21 13.5 35t35.5 14q21 0 34.5 -14t13.5 -35t-13.5 -35t-34.5 -14q-22 0 -35.5 14t-13.5 35z" />
<glyph unicode="&#xd0;" horiz-adv-x="721" d="M187 0v318h-194v17h194v365h120q180 0 267.5 -94t87.5 -256q0 -159 -89 -254.5t-261 -95.5h-125zM209 19h103q163 0 245.5 89t82.5 242q0 157 -81 244t-252 87h-98v-346h151v-17h-151v-299z" />
<glyph unicode="&#xd1;" horiz-adv-x="659" d="M80 0v700h25l451 -658v658h23v-700h-22l-456 667v-667h-21zM161 794q-1 27 24 51.5t64 24.5q26 0 73 -28.5t75 -28.5q66 0 68 54h25q-9 -76 -89 -76q-42 0 -87.5 28.5t-62.5 28.5q-57 0 -68 -54h-22z" />
<glyph unicode="&#xd2;" horiz-adv-x="790" d="M394 -6q-145 0 -247 103.5t-102 252.5q0 148 101.5 252t247.5 104q145 0 248 -103.5t103 -252.5q0 -82 -31 -150.5t-81 -112.5t-112 -68.5t-127 -24.5zM66 350q0 -141 96.5 -239t231.5 -98q60 0 118.5 23t105.5 64.5t76 107t29 142.5q0 142 -96 239.5t-233 97.5 t-232.5 -98t-95.5 -239zM277 880l27 44l217 -174l-10 -14z" />
<glyph unicode="&#xd3;" horiz-adv-x="790" d="M394 -6q-145 0 -247 103.5t-102 252.5q0 148 101.5 252t247.5 104q145 0 248 -103.5t103 -252.5q0 -82 -31 -150.5t-81 -112.5t-112 -68.5t-127 -24.5zM66 350q0 -141 96.5 -239t231.5 -98q60 0 118.5 23t105.5 64.5t76 107t29 142.5q0 142 -96 239.5t-233 97.5 t-232.5 -98t-95.5 -239zM297 750l217 174l27 -44l-234 -144z" />
<glyph unicode="&#xd4;" horiz-adv-x="790" d="M394 -6q-145 0 -247 103.5t-102 252.5q0 148 101.5 252t247.5 104q145 0 248 -103.5t103 -252.5q0 -82 -31 -150.5t-81 -112.5t-112 -68.5t-127 -24.5zM66 350q0 -141 96.5 -239t231.5 -98q60 0 118.5 23t105.5 64.5t76 107t29 142.5q0 142 -96 239.5t-233 97.5 t-232.5 -98t-95.5 -239zM213 781l180 77l180 -77l-6 -16l-174 66l-174 -66z" />
<glyph unicode="&#xd5;" horiz-adv-x="790" d="M394 -6q-145 0 -247 103.5t-102 252.5q0 148 101.5 252t247.5 104q145 0 248 -103.5t103 -252.5q0 -82 -31 -150.5t-81 -112.5t-112 -68.5t-127 -24.5zM66 350q0 -141 96.5 -239t231.5 -98q60 0 118.5 23t105.5 64.5t76 107t29 142.5q0 142 -96 239.5t-233 97.5 t-232.5 -98t-95.5 -239zM226 794q-1 27 24 51.5t64 24.5q26 0 73 -28.5t75 -28.5q66 0 68 54h25q-9 -76 -89 -76q-42 0 -87.5 28.5t-62.5 28.5q-57 0 -68 -54h-22z" />
<glyph unicode="&#xd6;" horiz-adv-x="790" d="M394 -6q-145 0 -247 103.5t-102 252.5q0 148 101.5 252t247.5 104q145 0 248 -103.5t103 -252.5q0 -82 -31 -150.5t-81 -112.5t-112 -68.5t-127 -24.5zM66 350q0 -141 96.5 -239t231.5 -98q60 0 118.5 23t105.5 64.5t76 107t29 142.5q0 142 -96 239.5t-233 97.5 t-232.5 -98t-95.5 -239zM201 813q0 21 13.5 35t35.5 14q21 0 34.5 -14t13.5 -35t-13.5 -35t-34.5 -14q-22 0 -35.5 14t-13.5 35zM490 813q0 21 13.5 35t35.5 14q21 0 34.5 -14t13.5 -35t-13.5 -35t-34.5 -14q-22 0 -35.5 14t-13.5 35z" />
<glyph unicode="&#xd7;" horiz-adv-x="581" d="M549 -8l-531 532l15 13l530 -530z" />
<glyph unicode="&#xd8;" horiz-adv-x="758" d="M379 0q-41 0 -80 9l-26 -85l-28 7l26 86q-106 34 -173.5 126t-67.5 208q0 144 102 247.5t247 103.5q46 0 96 -13l29 95l27 -7l-29 -97q101 -38 164.5 -127.5t63.5 -201.5q0 -106 -53 -188t-132 -122.5t-166 -40.5zM51 351q0 -109 63.5 -195.5t162.5 -119.5l192 634 q-40 13 -90 13q-137 0 -232.5 -97t-95.5 -235zM304 28q36 -9 75 -9q82 0 156 38.5t123.5 116t49.5 177.5q0 106 -59 190t-153 120z" />
<glyph unicode="&#xd9;" horiz-adv-x="695" d="M347 -6q-114 0 -190.5 67t-76.5 204v435h23v-431q0 -124 68 -189t176 -65t176 65t68 189v431h24v-435q0 -137 -76.5 -204t-191.5 -67zM230 880l27 44l217 -174l-10 -14z" />
<glyph unicode="&#xda;" horiz-adv-x="695" d="M347 -6q-114 0 -190.5 67t-76.5 204v435h23v-431q0 -124 68 -189t176 -65t176 65t68 189v431h24v-435q0 -137 -76.5 -204t-191.5 -67zM250 750l217 174l27 -44l-234 -144z" />
<glyph unicode="&#xdb;" horiz-adv-x="695" d="M347 -6q-114 0 -190.5 67t-76.5 204v435h23v-431q0 -124 68 -189t176 -65t176 65t68 189v431h24v-435q0 -137 -76.5 -204t-191.5 -67zM166 781l180 77l180 -77l-6 -16l-174 66l-174 -66z" />
<glyph unicode="&#xdc;" horiz-adv-x="695" d="M347 -6q-114 0 -190.5 67t-76.5 204v435h23v-431q0 -124 68 -189t176 -65t176 65t68 189v431h24v-435q0 -137 -76.5 -204t-191.5 -67zM154 813q0 21 13.5 35t35.5 14q21 0 34.5 -14t13.5 -35t-13.5 -35t-34.5 -14q-22 0 -35.5 14t-13.5 35zM443 813q0 21 13.5 35t35.5 14 q21 0 34.5 -14t13.5 -35t-13.5 -35t-34.5 -14q-22 0 -35.5 14t-13.5 35z" />
<glyph unicode="&#xdd;" d="M289 0v346l-274 354h26l259 -334l259 334h26l-274 -354v-346h-22zM203 750l217 174l27 -44l-234 -144z" />
<glyph unicode="&#xde;" d="M83 0v694h21v-104h227q84 0 147 -60q61 -59 61 -146q0 -86 -61 -147t-147 -61h-227v-176h-21zM104 194h227q77 0 132 55.5t55 134.5q0 80 -56 131q-52 57 -131 57h-227v-378z" />
<glyph unicode="&#xdf;" horiz-adv-x="591" d="M50 0v700h303q65 0 113 -45.5t48 -109.5q0 -55 -29.5 -98t-76.5 -55q63 -12 108 -63.5t45 -130.5q0 -84 -58.5 -142.5t-149.5 -58.5q-127 0 -187 110l19 11q33 -56 73.5 -76t94.5 -20q83 0 134.5 49.5t51.5 126.5q0 78 -54.5 130.5t-147.5 52.5h-12v20h10 q77 0 116.5 40.5t39.5 103.5q0 57 -41 97t-97 40h-282v-682h-21z" />
<glyph unicode="&#xe0;" horiz-adv-x="511" d="M205 -7q-78 0 -117 41.5t-39 91.5q0 49 18 82t52 49.5t71.5 23t88.5 6.5q61 0 112 -11v69q0 137 -152 137q-52 0 -88 -19t-70 -56l-18 14q32 38 72 61.5t104 23.5q77 0 127 -37.5t50 -119.5v-349h-25v144q-10 -63 -59 -107t-127 -44zM74 134q0 -45 33.5 -80t92.5 -35 q90 0 140.5 60.5t50.5 174.5q-51 11 -105 11q-212 0 -212 -131zM133 680l27 44l217 -174l-10 -14z" />
<glyph unicode="&#xe1;" horiz-adv-x="511" d="M205 -7q-78 0 -117 41.5t-39 91.5q0 49 18 82t52 49.5t71.5 23t88.5 6.5q61 0 112 -11v69q0 137 -152 137q-52 0 -88 -19t-70 -56l-18 14q32 38 72 61.5t104 23.5q77 0 127 -37.5t50 -119.5v-349h-25v144q-10 -63 -59 -107t-127 -44zM74 134q0 -45 33.5 -80t92.5 -35 q90 0 140.5 60.5t50.5 174.5q-51 11 -105 11q-212 0 -212 -131zM153 550l217 174l27 -44l-234 -144z" />
<glyph unicode="&#xe2;" horiz-adv-x="511" d="M205 -7q-78 0 -117 41.5t-39 91.5q0 49 18 82t52 49.5t71.5 23t88.5 6.5q61 0 112 -11v69q0 137 -152 137q-52 0 -88 -19t-70 -56l-18 14q32 38 72 61.5t104 23.5q77 0 127 -37.5t50 -119.5v-349h-25v144q-10 -63 -59 -107t-127 -44zM69 581l180 77l180 -77l-6 -16 l-174 66l-174 -66zM74 134q0 -45 33.5 -80t92.5 -35q90 0 140.5 60.5t50.5 174.5q-51 11 -105 11q-212 0 -212 -131z" />
<glyph unicode="&#xe3;" horiz-adv-x="511" d="M205 -7q-78 0 -117 41.5t-39 91.5q0 49 18 82t52 49.5t71.5 23t88.5 6.5q61 0 112 -11v69q0 137 -152 137q-52 0 -88 -19t-70 -56l-18 14q32 38 72 61.5t104 23.5q77 0 127 -37.5t50 -119.5v-349h-25v144q-10 -63 -59 -107t-127 -44zM74 134q0 -45 33.5 -80t92.5 -35 q90 0 140.5 60.5t50.5 174.5q-51 11 -105 11q-212 0 -212 -131zM82 594q-1 27 24 51.5t64 24.5q26 0 73 -28.5t75 -28.5q66 0 68 54h25q-9 -76 -89 -76q-42 0 -87.5 28.5t-62.5 28.5q-57 0 -68 -54h-22z" />
<glyph unicode="&#xe4;" horiz-adv-x="511" d="M205 -7q-78 0 -117 41.5t-39 91.5q0 49 18 82t52 49.5t71.5 23t88.5 6.5q61 0 112 -11v69q0 137 -152 137q-52 0 -88 -19t-70 -56l-18 14q32 38 72 61.5t104 23.5q77 0 127 -37.5t50 -119.5v-349h-25v144q-10 -63 -59 -107t-127 -44zM57 613q0 21 13.5 35t35.5 14 q21 0 34.5 -14t13.5 -35t-13.5 -35t-34.5 -14q-22 0 -35.5 14t-13.5 35zM74 134q0 -45 33.5 -80t92.5 -35q90 0 140.5 60.5t50.5 174.5q-51 11 -105 11q-212 0 -212 -131zM346 613q0 21 13.5 35t35.5 14q21 0 34.5 -14t13.5 -35t-13.5 -35t-34.5 -14q-22 0 -35.5 14 t-13.5 35z" />
<glyph unicode="&#xe5;" horiz-adv-x="511" d="M205 -7q-78 0 -117 41.5t-39 91.5q0 49 18 82t52 49.5t71.5 23t88.5 6.5q61 0 112 -11v69q0 137 -152 137q-52 0 -88 -19t-70 -56l-18 14q32 38 72 61.5t104 23.5q77 0 127 -37.5t50 -119.5v-349h-25v144q-10 -63 -59 -107t-127 -44zM74 134q0 -45 33.5 -80t92.5 -35 q90 0 140.5 60.5t50.5 174.5q-51 11 -105 11q-212 0 -212 -131zM116 664q0 57 39.5 96.5t94.5 39.5t93.5 -39.5t38.5 -96.5q0 -56 -38.5 -95t-93.5 -39t-94.5 39t-39.5 95zM150 664q0 -44 29 -71.5t71 -27.5t70.5 27t28.5 72t-28.5 73t-70.5 28t-71 -28t-29 -73z" />
<glyph unicode="&#xe6;" horiz-adv-x="890" d="M629 -9q-149 0 -218 123q4 -12 1 -28q-36 -48 -90 -70.5t-111 -22.5q-72 0 -111.5 40.5t-39.5 92.5q0 155 213 168q73 0 136 -15v16h409q11 91 -43 142.5t-149 51.5q-84 0 -139.5 -46.5t-77.5 -122.5v16q0 70 -43 108t-111 38q-16 0 -33 -3t-33 -8.5t-26 -10t-24.5 -11.5 t-16.5 -8l-19 15q77 54 152 54q55 0 99.5 -27t63.5 -73q71 111 208 111q118 0 179 -72q50 -61 35 -183h-437v-11q-42 11 -98 11q-105 0 -159 -33t-54 -112q0 -45 30 -75t87 -30q182 0 199 201q15 -87 71 -144.5t150 -57.5q121 0 187 114l26 -22q-33 -51 -88.5 -83.5 t-124.5 -32.5zM403 295h6v25zM403 255q2 -26 5 -38q1 12 1 37q-1 0 -3 0.5t-3 0.5z" />
<glyph unicode="&#xe7;" horiz-adv-x="506" d="M291 -6q-27 0 -47 4l-20 -59h41q42 0 66 -14t23 -45q-1 -36 -36 -57t-81 -21q-70 0 -108 35v24q40 -40 108 -40q39 0 69 16t30 46q0 38 -71 38h-68l35 79q-87 18 -142 84t-55 168q0 115 73.5 184.5t182.5 69.5q54 0 106.5 -23.5t74.5 -75.5l-23 -14q-16 40 -58.5 65.5 t-99.5 25.5q-98 0 -164.5 -63t-66.5 -169q0 -111 66.5 -173t164.5 -62q45 0 80.5 14t51 28.5t33.5 37.5l20 -16q-65 -87 -185 -87z" />
<glyph unicode="&#xe8;" horiz-adv-x="517" d="M395 536l-234 144l27 44l217 -174zM35 262q0 107 62.5 179t174.5 72q48 0 87 -14t63 -37t40 -51.5t21.5 -58.5t5.5 -56t-6 -47h-422q4 -108 65.5 -171t153.5 -63q132 0 183 108l21 -14q0 -3 -6 -14.5t-21.5 -29.5t-37.5 -34.5t-59 -28t-80 -11.5q-115 0 -180 78t-65 193z M61 272h402q8 101 -45.5 160.5t-145.5 59.5q-83 0 -145 -57t-66 -163z" />
<glyph unicode="&#xe9;" horiz-adv-x="517" d="M191 536l-10 14l217 174l27 -44zM35 262q0 107 62.5 179t174.5 72q48 0 87 -14t63 -37t40 -51.5t21.5 -58.5t5.5 -56t-6 -47h-422q4 -108 65.5 -171t153.5 -63q132 0 183 108l21 -14q0 -3 -6 -14.5t-21.5 -29.5t-37.5 -34.5t-59 -28t-80 -11.5q-115 0 -180 78t-65 193z M61 272h402q8 101 -45.5 160.5t-145.5 59.5q-83 0 -145 -57t-66 -163z" />
<glyph unicode="&#xea;" horiz-adv-x="517" d="M277 658l180 -77l-6 -16l-174 66l-174 -66l-6 16zM35 262q0 107 62.5 179t174.5 72q48 0 87 -14t63 -37t40 -51.5t21.5 -58.5t5.5 -56t-6 -47h-422q4 -108 65.5 -171t153.5 -63q132 0 183 108l21 -14q0 -3 -6 -14.5t-21.5 -29.5t-37.5 -34.5t-59 -28t-80 -11.5 q-115 0 -180 78t-65 193zM61 272h402q8 101 -45.5 160.5t-145.5 59.5q-83 0 -145 -57t-66 -163z" />
<glyph unicode="&#xeb;" horiz-adv-x="517" d="M423 564q-22 0 -35.5 14t-13.5 35t13.5 35t35.5 14q21 0 34.5 -14t13.5 -35t-13.5 -35t-34.5 -14zM35 262q0 107 62.5 179t174.5 72q48 0 87 -14t63 -37t40 -51.5t21.5 -58.5t5.5 -56t-6 -47h-422q4 -108 65.5 -171t153.5 -63q132 0 183 108l21 -14q0 -3 -6 -14.5 t-21.5 -29.5t-37.5 -34.5t-59 -28t-80 -11.5q-115 0 -180 78t-65 193zM61 272h402q8 101 -45.5 160.5t-145.5 59.5q-83 0 -145 -57t-66 -163zM85 613q0 21 13.5 35t35.5 14q21 0 34.5 -14t13.5 -35t-13.5 -35t-34.5 -14q-22 0 -35.5 14t-13.5 35z" />
<glyph unicode="&#xec;" horiz-adv-x="164" d="M70 0v500h25v-500h-25zM-36 680l27 44l217 -174l-10 -14z" />
<glyph unicode="&#xed;" horiz-adv-x="164" d="M70 0v500h25v-500h-25zM-16 550l217 174l27 -44l-234 -144z" />
<glyph unicode="&#xee;" horiz-adv-x="164" d="M70 0v500h25v-500h-25zM-100 581l180 77l180 -77l-6 -16l-174 66l-174 -66z" />
<glyph unicode="&#xef;" horiz-adv-x="164" d="M70 0v500h25v-500h-25zM-112 613q0 21 13.5 35t35.5 14q21 0 34.5 -14t13.5 -35t-13.5 -35t-34.5 -14q-22 0 -35.5 14t-13.5 35zM177 613q0 21 13.5 35t35.5 14q21 0 34.5 -14t13.5 -35t-13.5 -35t-34.5 -14q-22 0 -35.5 14t-13.5 35z" />
<glyph unicode="&#xf0;" d="M294 -13q-77 0 -132.5 67t-55.5 162q0 92 52 161t136 69q78 0 151 -45q-53 159 -157 243l-45 -52l-35 23l50 57q-70 43 -155 49v18q91 -7 166 -53l80 92l34 -23l-82 -95q85 -69 133.5 -188t48.5 -264q0 -84 -55 -152.5t-134 -68.5zM127 216q0 -88 50 -149.5t117 -61.5 q73 0 120 69t47 142q0 89 -50 150.5t-117 61.5q-70 0 -118.5 -67t-48.5 -145z" />
<glyph unicode="&#xf1;" horiz-adv-x="494" d="M50 0v500h25v-131q17 52 67.5 94.5t114.5 42.5q90 0 138.5 -46t48.5 -158v-302h-25v300q0 184 -162 184q-76 0 -127.5 -54t-54.5 -113v-317h-25zM74 594q-1 27 24 51.5t64 24.5q26 0 73 -28.5t75 -28.5q66 0 68 54h25q-9 -76 -89 -76q-42 0 -87.5 28.5t-62.5 28.5 q-57 0 -68 -54h-22z" />
<glyph unicode="&#xf2;" horiz-adv-x="583" d="M292 -6q-107 0 -182 72.5t-75 183.5t75 183.5t182 72.5t181.5 -72.5t74.5 -183.5t-74.5 -183.5t-181.5 -72.5zM60 250q0 -102 68 -168.5t164 -66.5t163.5 66.5t67.5 168.5t-67.5 168.5t-163.5 66.5t-164 -66.5t-68 -168.5zM175 680l27 44l217 -174l-10 -14z" />
<glyph unicode="&#xf3;" horiz-adv-x="583" d="M292 -6q-107 0 -182 72.5t-75 183.5t75 183.5t182 72.5t181.5 -72.5t74.5 -183.5t-74.5 -183.5t-181.5 -72.5zM60 250q0 -102 68 -168.5t164 -66.5t163.5 66.5t67.5 168.5t-67.5 168.5t-163.5 66.5t-164 -66.5t-68 -168.5zM195 550l217 174l27 -44l-234 -144z" />
<glyph unicode="&#xf4;" horiz-adv-x="583" d="M292 -6q-107 0 -182 72.5t-75 183.5t75 183.5t182 72.5t181.5 -72.5t74.5 -183.5t-74.5 -183.5t-181.5 -72.5zM60 250q0 -102 68 -168.5t164 -66.5t163.5 66.5t67.5 168.5t-67.5 168.5t-163.5 66.5t-164 -66.5t-68 -168.5zM111 581l180 77l180 -77l-6 -16l-174 66 l-174 -66z" />
<glyph unicode="&#xf5;" horiz-adv-x="583" d="M292 -6q-107 0 -182 72.5t-75 183.5t75 183.5t182 72.5t181.5 -72.5t74.5 -183.5t-74.5 -183.5t-181.5 -72.5zM60 250q0 -102 68 -168.5t164 -66.5t163.5 66.5t67.5 168.5t-67.5 168.5t-163.5 66.5t-164 -66.5t-68 -168.5zM124 594q-1 27 24 51.5t64 24.5q26 0 73 -28.5 t75 -28.5q66 0 68 54h25q-9 -76 -89 -76q-42 0 -87.5 28.5t-62.5 28.5q-57 0 -68 -54h-22z" />
<glyph unicode="&#xf6;" horiz-adv-x="583" d="M292 -6q-107 0 -182 72.5t-75 183.5t75 183.5t182 72.5t181.5 -72.5t74.5 -183.5t-74.5 -183.5t-181.5 -72.5zM60 250q0 -102 68 -168.5t164 -66.5t163.5 66.5t67.5 168.5t-67.5 168.5t-163.5 66.5t-164 -66.5t-68 -168.5zM99 613q0 21 13.5 35t35.5 14q21 0 34.5 -14 t13.5 -35t-13.5 -35t-34.5 -14q-22 0 -35.5 14t-13.5 35zM388 613q0 21 13.5 35t35.5 14q21 0 34.5 -14t13.5 -35t-13.5 -35t-34.5 -14q-22 0 -35.5 14t-13.5 35z" />
<glyph unicode="&#xf7;" d="M43 298v18h524v-18h-524zM259 63q0 17 12 29t29 12t29 -12t12 -29q0 -18 -12 -30t-29 -12t-29 12t-12 30zM259 520q0 18 12 30t29 12t29 -12t12 -30q0 -17 -12 -29t-29 -12t-29 12t-12 29z" />
<glyph unicode="&#xf8;" horiz-adv-x="591" d="M190 -124l-28 6l46 138q-75 28 -122.5 94.5t-47.5 149.5q0 107 76 183t181 76q39 0 77 -12l39 118l28 -4l-41 -124q69 -30 111.5 -94t42.5 -143q0 -107 -75.5 -183t-181.5 -76q-33 0 -60 7zM64 264q0 -76 42 -136.5t109 -85.5l150 449q-35 11 -70 11q-94 0 -162.5 -69.5 t-68.5 -168.5zM242 33q26 -6 53 -6q95 0 163 69.5t68 167.5q0 71 -37.5 129.5t-97.5 86.5z" />
<glyph unicode="&#xf9;" horiz-adv-x="494" d="M444 500v-500h-25v131q-17 -52 -67.5 -94.5t-114.5 -42.5q-90 0 -138.5 46t-48.5 158v302h25v-300q0 -184 162 -184q76 0 127.5 54t54.5 113v317h25zM142 680l27 44l217 -174l-10 -14z" />
<glyph unicode="&#xfa;" horiz-adv-x="494" d="M444 500v-500h-25v131q-17 -52 -67.5 -94.5t-114.5 -42.5q-90 0 -138.5 46t-48.5 158v302h25v-300q0 -184 162 -184q76 0 127.5 54t54.5 113v317h25zM162 550l217 174l27 -44l-234 -144z" />
<glyph unicode="&#xfb;" horiz-adv-x="494" d="M444 500v-500h-25v131q-17 -52 -67.5 -94.5t-114.5 -42.5q-90 0 -138.5 46t-48.5 158v302h25v-300q0 -184 162 -184q76 0 127.5 54t54.5 113v317h25zM78 581l180 77l180 -77l-6 -16l-174 66l-174 -66z" />
<glyph unicode="&#xfc;" horiz-adv-x="494" d="M444 500v-500h-25v131q-17 -52 -67.5 -94.5t-114.5 -42.5q-90 0 -138.5 46t-48.5 158v302h25v-300q0 -184 162 -184q76 0 127.5 54t54.5 113v317h25zM66 613q0 21 13.5 35t35.5 14q21 0 34.5 -14t13.5 -35t-13.5 -35t-34.5 -14q-22 0 -35.5 14t-13.5 35zM355 613 q0 21 13.5 35t35.5 14q21 0 34.5 -14t13.5 -35t-13.5 -35t-34.5 -14q-22 0 -35.5 14t-13.5 35z" />
<glyph unicode="&#xfd;" horiz-adv-x="554" d="M109 -200l157 268l-256 432h30l241 -408l243 408h28l-414 -700h-29zM180 550l217 174l27 -44l-234 -144z" />
<glyph unicode="&#xfe;" horiz-adv-x="546" d="M50 -200v900h25v-299q66 105 189 105q101 0 174 -74t73 -182q0 -110 -70 -183t-170 -73q-132 0 -196 107v-301h-25zM75 142q20 -52 73 -89t123 -37q89 0 152 65.5t63 168.5q0 99 -66 166.5t-156 67.5q-71 0 -120.5 -37.5t-68.5 -87.5v-217z" />
<glyph unicode="&#xff;" horiz-adv-x="554" d="M109 -200l157 268l-256 432h30l241 -408l243 408h28l-414 -700h-29zM84 613q0 21 13.5 35t35.5 14q21 0 34.5 -14t13.5 -35t-13.5 -35t-34.5 -14q-22 0 -35.5 14t-13.5 35zM373 613q0 21 13.5 35t35.5 14q21 0 34.5 -14t13.5 -35t-13.5 -35t-34.5 -14q-22 0 -35.5 14 t-13.5 35z" />
<glyph unicode="&#x13f;" horiz-adv-x="463" d="M80 0v700h21v-681h342v-19h-363z" />
<glyph unicode="&#x140;" horiz-adv-x="396" d="M60 0v700h25v-700h-25z" />
<glyph unicode="&#x152;" horiz-adv-x="1078" d="M387 0q-145 0 -248 103t-103 248q0 144 102 247.5t249 103.5q132 0 238 -81v79h431v-19h-410v-317h330v-19h-330v-326h411v-19h-432v81q-109 -81 -238 -81zM61 351q0 -141 98.5 -241t234.5 -100q133 0 231 93v495q-98 93 -231 93q-139 0 -236 -99.5t-97 -240.5z" />
<glyph unicode="&#x153;" horiz-adv-x="1000" d="M740 -9q-81 0 -139 38t-87 101q-34 -57 -92 -91t-127 -34q-105 0 -181 76t-76 183t76 183t181 76q71 0 131 -36t93 -97q31 60 86.5 95.5t133.5 35.5q115 0 178 -72q50 -59 34 -183h-425q0 11 -2 29h404q11 91 -42 142.5t-147 51.5q-84 0 -140.5 -47.5t-78.5 -124.5 q-17 81 -80.5 133t-144.5 52q-94 0 -162.5 -69.5t-68.5 -168.5t68 -168t163 -69q80 0 143.5 52t81.5 131q17 -85 73 -140t147 -55q121 0 187 114l27 -22q-32 -51 -88 -83.5t-126 -32.5zM513 266q2 -32 7 -56q6 26 6 54v2h-13zM515 295h9q-2 16 -4 22q-1 -4 -2.5 -11.5 t-2.5 -10.5z" />
<glyph unicode="&#x178;" d="M289 0v346l-274 354h26l259 -334l259 334h26l-274 -354v-346h-22zM107 813q0 21 13.5 35t35.5 14q21 0 34.5 -14t13.5 -35t-13.5 -35t-34.5 -14q-22 0 -35.5 14t-13.5 35zM396 813q0 21 13.5 35t35.5 14q21 0 34.5 -14t13.5 -35t-13.5 -35t-34.5 -14q-22 0 -35.5 14 t-13.5 35z" />
<glyph unicode="&#x237;" horiz-adv-x="145" d="M-79 -201q64 10 106.5 54.5t42.5 116.5v530h25v-530q0 -82 -48.5 -132t-125.5 -59v20z" />
<glyph unicode="&#x2c6;" d="M283 658l180 -77l-6 -16l-174 66l-174 -66l-6 16z" />
<glyph unicode="&#x2dc;" d="M222 648q-57 0 -68 -54h-22q-1 27 24 51.5t64 24.5q26 0 73 -28.5t75 -28.5q66 0 68 54h25q-9 -76 -89 -76q-42 0 -87.5 28.5t-62.5 28.5z" />
<glyph unicode="&#x2000;" horiz-adv-x="500" />
<glyph unicode="&#x2001;" horiz-adv-x="1000" />
<glyph unicode="&#x2002;" horiz-adv-x="500" />
<glyph unicode="&#x2003;" horiz-adv-x="1000" />
<glyph unicode="&#x2004;" horiz-adv-x="333" />
<glyph unicode="&#x2005;" horiz-adv-x="250" />
<glyph unicode="&#x2006;" horiz-adv-x="166" />
<glyph unicode="&#x2007;" horiz-adv-x="166" />
<glyph unicode="&#x2008;" horiz-adv-x="125" />
<glyph unicode="&#x2009;" horiz-adv-x="200" />
<glyph unicode="&#x200a;" horiz-adv-x="55" />
<glyph unicode="&#x2010;" horiz-adv-x="496" d="M65 280v17h367v-17h-367z" />
<glyph unicode="&#x2011;" horiz-adv-x="496" d="M65 280v17h367v-17h-367z" />
<glyph unicode="&#x2012;" horiz-adv-x="496" d="M65 280v17h367v-17h-367z" />
<glyph unicode="&#x2013;" d="M126 306v18h364v-18h-364z" />
<glyph unicode="&#x2014;" horiz-adv-x="906" d="M3 306v18h899v-18h-899z" />
<glyph unicode="&#x2018;" horiz-adv-x="83" d="M61 557l-34 78v59h33v-62l26 -59z" />
<glyph unicode="&#x2019;" horiz-adv-x="251" d="M110 503q29 14 38 39t9 80v9h-70v88h89v-97q0 -27 -1 -41t-6.5 -37t-20 -37.5t-38.5 -22.5v19z" />
<glyph unicode="&#x201a;" horiz-adv-x="296" d="M110 -100l-37 16l48 88l5 70h34v-74z" />
<glyph unicode="&#x201c;" horiz-adv-x="241" d="M203 557l-31 78v59h32l1 -62l26 -59zM64 635v59h32l-1 -62l28 -59l-27 -16z" />
<glyph unicode="&#x201d;" horiz-adv-x="251" d="M82 557l-28 16l28 59l-1 62h32v-59zM-62 573l26 59l-1 62h34v-59l-34 -78z" />
<glyph unicode="&#x201e;" horiz-adv-x="260" d="M110 -100l-37 16l48 88l5 70h34v-74z" />
<glyph unicode="&#x2022;" horiz-adv-x="301" d="M152 172q-24 0 -41 16t-17 41q0 22 17.5 38t40.5 16q22 0 39 -16t17 -38q0 -25 -16.5 -41t-39.5 -16z" />
<glyph unicode="&#x2026;" horiz-adv-x="470" d="M402 -5q-15 0 -25.5 10t-10.5 25q0 14 11 24t25 10t24.5 -10t10.5 -24q0 -15 -10.5 -25t-24.5 -10zM33 29q0 14 11 24t25 10t24.5 -10t10.5 -24q0 -15 -10.5 -25t-24.5 -10q-15 0 -25.5 10t-10.5 25zM199 30q0 14 11 24t25 10t24.5 -10t10.5 -24q0 -15 -10.5 -25 t-24.5 -10q-15 0 -25.5 10t-10.5 25z" />
<glyph unicode="&#x202f;" horiz-adv-x="200" />
<glyph unicode="&#x2039;" d="M408 87l-188 186l188 185l16 -13l-157 -172l157 -172z" />
<glyph unicode="&#x203a;" d="M235 87l-15 14l156 172l-156 172l15 13l189 -185z" />
<glyph unicode="&#x2044;" horiz-adv-x="693" d="M80 -2l581 753h20l-581 -753h-20z" />
<glyph unicode="&#x205f;" horiz-adv-x="250" />
<glyph unicode="&#x2070;" horiz-adv-x="369" d="M185 391q62 0 102 56t40 161q0 106 -40 160.5t-102 54.5t-102.5 -54.5t-40.5 -160.5q0 -105 40.5 -161t102.5 -56zM55 608q0 100 37 151.5t93 51.5t92.5 -51.5t36.5 -151.5t-37 -152.5t-92 -52.5q-56 0 -93 52.5t-37 152.5z" />
<glyph unicode="&#x2074;" horiz-adv-x="339" d="M255 395v99h-235v19l232 306h15v-307h59v-18h-59v-99h-12zM36 512h219v289z" />
<glyph unicode="&#x2075;" horiz-adv-x="286" d="M105 395q-55 8 -89 47l11 7q26 -32 80 -43q52 -9 89.5 19t45.5 78q8 48 -21 88.5t-76 48.5q-53 8 -101 -15l-7 9l42 185h163v-11h-153l-41 -171q50 23 99 13q53 -10 85 -53t23 -96q-8 -54 -50 -85t-100 -21z" />
<glyph unicode="&#x2076;" horiz-adv-x="266" d="M88 399q-49 23 -65.5 76t9.5 97l143 247h16l-116 -200l-11 -13q25 19 63.5 22t65.5 -12q42 -25 55.5 -72.5t-10.5 -90.5q-22 -38 -64 -54.5t-86 0.5zM44 563q-21 -37 -9.5 -79t49.5 -64q37 -20 78.5 -9t62.5 48t9.5 79t-48.5 63q-38 22 -79 10.5t-63 -48.5z" />
<glyph unicode="&#x2077;" horiz-adv-x="302" d="M30 395l242 409h-228v15h252l-251 -424h-15z" />
<glyph unicode="&#x2078;" horiz-adv-x="294" d="M85 408q-46 23 -59.5 68.5t12.5 87.5q23 35 63 52q-44 23 -57.5 67.5t10.5 84.5q22 38 65.5 50t80.5 -10q40 -22 51 -64t-12 -80q-16 -30 -46 -47q55 -22 73.5 -71.5t-10.5 -95.5q-26 -41 -76.5 -53t-94.5 11zM49 558q-23 -38 -11.5 -78t52.5 -62q41 -21 86 -10t69 48 q31 50 -0.5 102t-96.5 52q-66 0 -99 -52zM65 764q-28 -50 1 -96.5t82 -46.5t81 48q20 34 9 72t-45 57t-71 9.5t-57 -43.5z" />
<glyph unicode="&#x2079;" horiz-adv-x="265" d="M177 813q50 -23 66.5 -76t-10.5 -97l-143 -247h-15l115 200l12 13q-25 -19 -64 -22t-66 12q-42 25 -55 72.5t11 90.5q22 38 63.5 54.5t85.5 -0.5zM41 753q-22 -37 -10.5 -79t48.5 -63q38 -22 79 -10.5t63 48.5q21 37 10 78.5t-49 63.5q-37 21 -79 10t-62 -48z" />
<glyph unicode="&#x2080;" horiz-adv-x="369" d="M185 -4q62 0 102 56t40 161q0 106 -40 160.5t-102 54.5t-102.5 -54.5t-40.5 -160.5q0 -105 40.5 -161t102.5 -56zM55 213q0 100 37 151.5t93 51.5t92.5 -51.5t36.5 -151.5t-37 -152.5t-92 -52.5q-56 0 -93 52.5t-37 152.5z" />
<glyph unicode="&#x2081;" horiz-adv-x="252" d="M15 0v11h103v404l-98 -37v9l98 37h14v-413h106v-11h-223z" />
<glyph unicode="&#x2082;" horiz-adv-x="269" d="M10 15q56 58 119 129.5t89 107.5q40 58 11 109.5t-97 51.5q-31 0 -57 -15.5t-40 -41.5l-14 3q37 69 111 69q75 0 108.5 -60t-12.5 -126q-40 -56 -201 -227h238v-15h-255v15z" />
<glyph unicode="&#x2083;" horiz-adv-x="266" d="M123 -2q-78 0 -113 67l11 7q36 -59 102 -59q51 0 82 30t31 77t-33 79t-89 32h-8v12h7q46 0 70 24t24 62q0 36 -24.5 59.5t-59.5 23.5q-26 0 -47 -12.5t-29 -34.5l-14 2q5 22 30 41t60 19q40 0 69 -29t29 -69q0 -34 -18 -59t-47 -33q38 -7 65.5 -37.5t27.5 -79.5 q0 -51 -35.5 -86.5t-90.5 -35.5z" />
<glyph unicode="&#x2084;" horiz-adv-x="339" d="M255 0v99h-235v19l232 306h15v-307h59v-18h-59v-99h-12zM36 117h219v289z" />
<glyph unicode="&#x2085;" horiz-adv-x="286" d="M105 0q-55 8 -89 47l11 7q26 -32 80 -43q52 -9 89.5 19t45.5 78q8 48 -21 88.5t-76 48.5q-53 8 -101 -15l-7 9l42 185h163v-11h-153l-41 -171q50 23 99 13q53 -10 85 -53t23 -96q-8 -54 -50 -85t-100 -21z" />
<glyph unicode="&#x2086;" horiz-adv-x="266" d="M88 4q-49 23 -65.5 76t9.5 97l143 247h16l-116 -200l-11 -13q25 19 63.5 22t65.5 -12q42 -25 55.5 -72.5t-10.5 -90.5q-22 -38 -64 -54.5t-86 0.5zM44 168q-21 -37 -9.5 -79t49.5 -64q37 -20 78.5 -9t62.5 48t9.5 79t-48.5 63q-38 22 -79 10.5t-63 -48.5z" />
<glyph unicode="&#x2087;" horiz-adv-x="302" d="M30 0l242 409h-228v15h252l-251 -424h-15z" />
<glyph unicode="&#x2088;" horiz-adv-x="294" d="M85 13q-46 23 -59.5 68.5t12.5 87.5q23 35 63 52q-44 23 -57.5 67.5t10.5 84.5q22 38 65.5 50t80.5 -10q40 -22 51 -64t-12 -80q-16 -30 -46 -47q55 -22 73.5 -71.5t-10.5 -95.5q-26 -41 -76.5 -53t-94.5 11zM49 163q-23 -38 -11.5 -78t52.5 -62q41 -21 86 -10t69 48 q31 50 -0.5 102t-96.5 52q-66 0 -99 -52zM65 369q-28 -50 1 -96.5t82 -46.5t81 48q20 34 9 72t-45 57t-71 9.5t-57 -43.5z" />
<glyph unicode="&#x2089;" horiz-adv-x="265" d="M177 418q50 -23 66.5 -76t-10.5 -97l-143 -247h-15l115 200l12 13q-25 -19 -64 -22t-66 12q-42 25 -55 72.5t11 90.5q22 38 63.5 54.5t85.5 -0.5zM41 358q-22 -37 -10.5 -79t48.5 -63q38 -22 79 -10.5t63 48.5q21 37 10 78.5t-49 63.5q-37 21 -79 10t-62 -48z" />
<glyph unicode="&#x20ac;" horiz-adv-x="584" d="M404 -7q-85 0 -157.5 54.5t-111.5 143.5h-137v48h118q-10 51 -10 110q0 4 -0.5 12t-0.5 12h-107v49h112q22 121 104.5 201.5t189.5 80.5q91 0 171 -58l-14 -15q-66 54 -157 54q-98 0 -175.5 -74t-100.5 -189h295v-49h-297q1 -8 1 -24q0 -50 12 -110h284v-48h-264 q35 -81 101 -129.5t144 -48.5q91 0 156 54l15 -14q-80 -60 -171 -60z" />
<glyph unicode="&#x2116;" horiz-adv-x="1093" d="M986 187h-277v18h277v-18zM80 0v700h25l451 -658v658h23v-700h-22l-456 667v-667h-21zM622 469q0 97 66 161t160 64t159.5 -64t65.5 -161q0 -98 -65.5 -161.5t-159.5 -63.5t-160 63.5t-66 161.5zM644 469q0 -90 59.5 -148.5t144.5 -58.5t144 58.5t59 148.5t-59 148 t-144 58q-84 0 -144 -58t-60 -148z" />
<glyph unicode="&#x2122;" horiz-adv-x="684" d="M322 368v380h14l149 -332l149 332h13v-380h-25v305l-123 -275h-29l-123 275v-305h-25zM30 730v18h231v-18h-104v-362h-22v362h-105z" />
<glyph unicode="&#x25fc;" horiz-adv-x="500" d="M0 500h500v-500h-500v500z" />
<glyph unicode="&#xfb01;" horiz-adv-x="551" d="M108 0v478h-103v22h103v90q0 128 112 128q34 0 61 -12.5t35 -29.5l-16 -17q-34 35 -83 35q-47 0 -65.5 -27t-18.5 -77v-90h349v-500h-25v478h-324v-478h-25zM419 613q0 21 13.5 35t35.5 14q21 0 34.5 -14t13.5 -35t-13.5 -35t-34.5 -14q-22 0 -35.5 14t-13.5 35z" />
<glyph unicode="&#xfb02;" horiz-adv-x="456" d="M252 696q61 0 90 -31t29 -84v-581h25v574q0 71 -38 107.5t-106 36.5t-106 -36.5t-38 -107.5v-74h-103v-22h103v-478h25v478h157v22h-157v74q0 54 29 88t90 34z" />
<glyph unicode="&#xfb04;" horiz-adv-x="697" d="M493 696q61 0 90 -31t29 -84v-581h25v574q0 71 -38.5 107.5t-105.5 36.5q-97 0 -132 -94q-21 94 -116 94q-65 0 -101 -36.5t-36 -107.5v-74h-103v-22h103v-478h25v478h215v-478h26v478h157v22h-157v74q0 54 29 88t90 34zM133 500v79q0 53 28 85t84 32q22 0 39 -6 t27.5 -16t18 -23.5t11 -29t5.5 -33t2 -34.5v-33v-16v-5h-215z" />
<glyph horiz-adv-x="423" d="M194 -2q-62 0 -110 41t-60 103h19q13 -55 55 -90t96 -35q64 0 103.5 34.5t40.5 108.5v541h22v-534q-1 -169 -166 -169zM114 750l217 174l27 -44l-234 -144z" />
<glyph horiz-adv-x="164" d="M70 0v500h25v-500h-25zM32 613q0 21 13.5 35t35.5 14q21 0 34.5 -14t13.5 -35t-13.5 -35t-34.5 -14q-22 0 -35.5 14t-13.5 35z" />
<glyph horiz-adv-x="145" d="M-79 -201q64 10 106.5 54.5t42.5 116.5v530h25v-530q0 -82 -48.5 -132t-125.5 -59v20zM-14 550l217 174l27 -44l-234 -144z" />
<glyph horiz-adv-x="556" d="M496 500v-500h-25v99q-66 -105 -189 -105q-101 0 -174 74t-73 182q0 110 70 183t170 73q132 0 196 -107v101h25zM60 250q0 -99 66 -166.5t156 -67.5q71 0 120.5 37.5t68.5 87.5v217q-20 52 -73 89t-123 37q-89 0 -152 -65.5t-63 -168.5z" />
<glyph horiz-adv-x="556" d="M496 500v-500h-25v99q-66 -105 -189 -105q-101 0 -174 74t-73 182q0 110 70 183t170 73q132 0 196 -107v101h25zM60 250q0 -99 66 -166.5t156 -67.5q71 0 120.5 37.5t68.5 87.5v217q-20 52 -73 89t-123 37q-89 0 -152 -65.5t-63 -168.5zM178 550l217 174l27 -44 l-234 -144z" />
<glyph horiz-adv-x="556" d="M496 500v-500h-25v99q-66 -105 -189 -105q-101 0 -174 74t-73 182q0 110 70 183t170 73q132 0 196 -107v101h25zM60 250q0 -99 66 -166.5t156 -67.5q71 0 120.5 37.5t68.5 87.5v217q-20 52 -73 89t-123 37q-89 0 -152 -65.5t-63 -168.5zM94 581l180 77l180 -77l-6 -16 l-174 66l-174 -66z" />
<glyph horiz-adv-x="556" d="M496 500v-500h-25v99q-66 -105 -189 -105q-101 0 -174 74t-73 182q0 110 70 183t170 73q132 0 196 -107v101h25zM60 250q0 -99 66 -166.5t156 -67.5q71 0 120.5 37.5t68.5 87.5v217q-20 52 -73 89t-123 37q-89 0 -152 -65.5t-63 -168.5zM82 613q0 21 13.5 35t35.5 14 q21 0 34.5 -14t13.5 -35t-13.5 -35t-34.5 -14q-22 0 -35.5 14t-13.5 35zM371 613q0 21 13.5 35t35.5 14q21 0 34.5 -14t13.5 -35t-13.5 -35t-34.5 -14q-22 0 -35.5 14t-13.5 35z" />
<glyph horiz-adv-x="556" d="M496 500v-500h-25v99q-66 -105 -189 -105q-101 0 -174 74t-73 182q0 110 70 183t170 73q132 0 196 -107v101h25zM60 250q0 -99 66 -166.5t156 -67.5q71 0 120.5 37.5t68.5 87.5v217q-20 52 -73 89t-123 37q-89 0 -152 -65.5t-63 -168.5zM158 680l27 44l217 -174l-10 -14z " />
<glyph horiz-adv-x="556" d="M496 500v-500h-25v99q-66 -105 -189 -105q-101 0 -174 74t-73 182q0 110 70 183t170 73q132 0 196 -107v101h25zM60 250q0 -99 66 -166.5t156 -67.5q71 0 120.5 37.5t68.5 87.5v217q-20 52 -73 89t-123 37q-89 0 -152 -65.5t-63 -168.5zM141 664q0 57 39.5 96.5 t94.5 39.5t93.5 -39.5t38.5 -96.5q0 -56 -38.5 -95t-93.5 -39t-94.5 39t-39.5 95zM175 664q0 -44 29 -71.5t71 -27.5t70.5 27t28.5 72t-28.5 73t-70.5 28t-71 -28t-29 -73z" />
<glyph horiz-adv-x="556" d="M496 500v-500h-25v99q-66 -105 -189 -105q-101 0 -174 74t-73 182q0 110 70 183t170 73q132 0 196 -107v101h25zM60 250q0 -99 66 -166.5t156 -67.5q71 0 120.5 37.5t68.5 87.5v217q-20 52 -73 89t-123 37q-89 0 -152 -65.5t-63 -168.5zM107 594q-1 27 24 51.5t64 24.5 q26 0 73 -28.5t75 -28.5q66 0 68 54h25q-9 -76 -89 -76q-42 0 -87.5 28.5t-62.5 28.5q-57 0 -68 -54h-22z" />
<glyph horiz-adv-x="955" d="M496 500v-118q28 61 82 96t131 35q48 0 87 -14t63 -37t40 -51.5t21.5 -58.5t5.5 -56t-6 -47h-422q4 -108 65.5 -171t153.5 -63q132 0 183 108l21 -14q0 -3 -6 -14.5t-21.5 -29.5t-37.5 -34.5t-59 -28t-80 -11.5q-80 0 -136.5 39t-84.5 106v-136h-25v99 q-66 -105 -189 -105q-101 0 -174 74t-73 182q0 110 70 183t170 73q132 0 196 -107v101h25zM60 250q0 -99 66 -166.5t156 -67.5q71 0 120.5 37.5t68.5 87.5v217q-20 52 -73 89t-123 37q-89 0 -152 -65.5t-63 -168.5zM498 272h402q8 101 -45.5 160.5t-145.5 59.5 q-83 0 -145 -57t-66 -163z" />
<glyph horiz-adv-x="609" d="M305 -7q-102 0 -169 93t-67 266q0 174 66.5 264t169.5 90t169 -90t66 -264t-66.5 -266.5t-168.5 -92.5zM91 352q0 -114 30.5 -191.5t82.5 -114.5l186 620q-39 21 -85 21q-93 0 -153.5 -85t-60.5 -250zM220 35q38 -22 85 -22q91 0 152 87t61 252q0 226 -112 304z" />
<glyph horiz-adv-x="369" d="M185 -4q62 0 102 56t40 161q0 106 -40 160.5t-102 54.5t-102.5 -54.5t-40.5 -160.5q0 -105 40.5 -161t102.5 -56zM55 213q0 100 37 151.5t93 51.5t92.5 -51.5t36.5 -151.5t-37 -152.5t-92 -52.5q-56 0 -93 52.5t-37 152.5z" />
<glyph horiz-adv-x="252" d="M15 0v11h103v404l-98 -37v9l98 37h14v-413h106v-11h-223z" />
<glyph horiz-adv-x="269" d="M10 15q56 58 119 129.5t89 107.5q40 58 11 109.5t-97 51.5q-31 0 -57 -15.5t-40 -41.5l-14 3q37 69 111 69q75 0 108.5 -60t-12.5 -126q-40 -56 -201 -227h238v-15h-255v15z" />
<glyph horiz-adv-x="266" d="M123 -2q-78 0 -113 67l11 7q36 -59 102 -59q51 0 82 30t31 77t-33 79t-89 32h-8v12h7q46 0 70 24t24 62q0 36 -24.5 59.5t-59.5 23.5q-26 0 -47 -12.5t-29 -34.5l-14 2q5 22 30 41t60 19q40 0 69 -29t29 -69q0 -34 -18 -59t-47 -33q38 -7 65.5 -37.5t27.5 -79.5 q0 -51 -35.5 -86.5t-90.5 -35.5z" />
<glyph horiz-adv-x="339" d="M255 0v99h-235v19l232 306h15v-307h59v-18h-59v-99h-12zM36 117h219v289z" />
<glyph horiz-adv-x="286" d="M105 0q-55 8 -89 47l11 7q26 -32 80 -43q52 -9 89.5 19t45.5 78q8 48 -21 88.5t-76 48.5q-53 8 -101 -15l-7 9l42 185h163v-11h-153l-41 -171q50 23 99 13q53 -10 85 -53t23 -96q-8 -54 -50 -85t-100 -21z" />
<glyph horiz-adv-x="266" d="M88 4q-49 23 -65.5 76t9.5 97l143 247h16l-116 -200l-11 -13q25 19 63.5 22t65.5 -12q42 -25 55.5 -72.5t-10.5 -90.5q-22 -38 -64 -54.5t-86 0.5zM44 168q-21 -37 -9.5 -79t49.5 -64q37 -20 78.5 -9t62.5 48t9.5 79t-48.5 63q-38 22 -79 10.5t-63 -48.5z" />
<glyph horiz-adv-x="302" d="M30 0l242 409h-228v15h252l-251 -424h-15z" />
<glyph horiz-adv-x="294" d="M85 13q-46 23 -59.5 68.5t12.5 87.5q23 35 63 52q-44 23 -57.5 67.5t10.5 84.5q22 38 65.5 50t80.5 -10q40 -22 51 -64t-12 -80q-16 -30 -46 -47q55 -22 73.5 -71.5t-10.5 -95.5q-26 -41 -76.5 -53t-94.5 11zM49 163q-23 -38 -11.5 -78t52.5 -62q41 -21 86 -10t69 48 q31 50 -0.5 102t-96.5 52q-66 0 -99 -52zM65 369q-28 -50 1 -96.5t82 -46.5t81 48q20 34 9 72t-45 57t-71 9.5t-57 -43.5z" />
<glyph horiz-adv-x="265" d="M177 418q50 -23 66.5 -76t-10.5 -97l-143 -247h-15l115 200l12 13q-25 -19 -64 -22t-66 12q-42 25 -55 72.5t11 90.5q22 38 63.5 54.5t85.5 -0.5zM41 358q-22 -37 -10.5 -79t48.5 -63q38 -22 79 -10.5t63 48.5q21 37 10 78.5t-49 63.5q-37 21 -79 10t-62 -48z" />
<glyph horiz-adv-x="369" d="M185 391q62 0 102 56t40 161q0 106 -40 160.5t-102 54.5t-102.5 -54.5t-40.5 -160.5q0 -105 40.5 -161t102.5 -56zM55 608q0 100 37 151.5t93 51.5t92.5 -51.5t36.5 -151.5t-37 -152.5t-92 -52.5q-56 0 -93 52.5t-37 152.5z" />
<glyph horiz-adv-x="252" d="M15 393v11h103v404l-98 -37v9l98 37h14v-413h106v-11h-223z" />
<glyph horiz-adv-x="269" d="M10 410q56 58 119 129.5t89 107.5q40 58 11 109.5t-97 51.5q-31 0 -57 -15.5t-40 -41.5l-14 3q37 69 111 69q75 0 108.5 -60t-12.5 -126q-40 -56 -201 -227h238v-15h-255v15z" />
<glyph horiz-adv-x="266" d="M123 393q-78 0 -113 67l11 7q36 -59 102 -59q51 0 82 30t31 77t-33 79t-89 32h-8v12h7q46 0 70 24t24 62q0 36 -24.5 59.5t-59.5 23.5q-26 0 -47 -12.5t-29 -34.5l-14 2q5 22 30 41t60 19q40 0 69 -29t29 -69q0 -34 -18 -59t-47 -33q38 -7 65.5 -37.5t27.5 -79.5 q0 -51 -35.5 -86.5t-90.5 -35.5z" />
<glyph horiz-adv-x="339" d="M255 395v99h-235v19l232 306h15v-307h59v-18h-59v-99h-12zM36 512h219v289z" />
<glyph horiz-adv-x="286" d="M105 395q-55 8 -89 47l11 7q26 -32 80 -43q52 -9 89.5 19t45.5 78q8 48 -21 88.5t-76 48.5q-53 8 -101 -15l-7 9l42 185h163v-11h-153l-41 -171q50 23 99 13q53 -10 85 -53t23 -96q-8 -54 -50 -85t-100 -21z" />
<glyph horiz-adv-x="266" d="M88 399q-49 23 -65.5 76t9.5 97l143 247h16l-116 -200l-11 -13q25 19 63.5 22t65.5 -12q42 -25 55.5 -72.5t-10.5 -90.5q-22 -38 -64 -54.5t-86 0.5zM44 563q-21 -37 -9.5 -79t49.5 -64q37 -20 78.5 -9t62.5 48t9.5 79t-48.5 63q-38 22 -79 10.5t-63 -48.5z" />
<glyph horiz-adv-x="302" d="M30 395l242 409h-228v15h252l-251 -424h-15z" />
<glyph horiz-adv-x="294" d="M85 408q-46 23 -59.5 68.5t12.5 87.5q23 35 63 52q-44 23 -57.5 67.5t10.5 84.5q22 38 65.5 50t80.5 -10q40 -22 51 -64t-12 -80q-16 -30 -46 -47q55 -22 73.5 -71.5t-10.5 -95.5q-26 -41 -76.5 -53t-94.5 11zM49 558q-23 -38 -11.5 -78t52.5 -62q41 -21 86 -10t69 48 q31 50 -0.5 102t-96.5 52q-66 0 -99 -52zM65 764q-28 -50 1 -96.5t82 -46.5t81 48q20 34 9 72t-45 57t-71 9.5t-57 -43.5z" />
<glyph horiz-adv-x="265" d="M177 813q50 -23 66.5 -76t-10.5 -97l-143 -247h-15l115 200l12 13q-25 -19 -64 -22t-66 12q-42 25 -55 72.5t11 90.5q22 38 63.5 54.5t85.5 -0.5zM41 753q-22 -37 -10.5 -79t48.5 -63q38 -22 79 -10.5t63 48.5q21 37 10 78.5t-49 63.5q-37 21 -79 10t-62 -48z" />
</font>
</defs>
</svg>
