<?xml version="1.0" standalone="no"?>
<!DOCTYPE svg PUBLIC "-//W3C//DTD SVG 1.1//EN" "http://www.w3.org/Graphics/SVG/1.1/DTD/svg11.dtd" >
<svg xmlns="http://www.w3.org/2000/svg" xmlns:xlink="http://www.w3.org/1999/xlink" version="1.1">
<metadata></metadata>
<defs>
<font id="lilgroteskultralight" horiz-adv-x="600" >
<font-face units-per-em="1000" ascent="800" descent="-200" />
<missing-glyph horiz-adv-x="290" />
<glyph horiz-adv-x="0" />
<glyph horiz-adv-x="333" />
<glyph unicode="&#xd;" />
<glyph unicode=" "  horiz-adv-x="290" />
<glyph unicode="&#x09;" horiz-adv-x="290" />
<glyph unicode="&#xa0;" horiz-adv-x="290" />
<glyph unicode="!" horiz-adv-x="183" d="M76 248l-13 454h58l-13 -454h-32zM52 34q0 16 12 27.5t28 11.5t28 -11.5t12 -27.5q0 -17 -12 -28.5t-28 -11.5t-28 11.5t-12 28.5z" />
<glyph unicode="&#x22;" horiz-adv-x="308" d="M337 548l-16 218h48l-7 -218h-25zM-125 766h48l-7 -218h-25z" />
<glyph unicode="#" horiz-adv-x="663" d="M85 -1l52 190h-125v30h133l77 286h-124v30h132l56 206h36l-56 -206h228l58 214h34l-58 -214h123v-30h-131l-78 -286h124v-30h-133l-51 -189h-35l52 189h-228l-50 -190h-36zM180 219h226l79 286h-228z" />
<glyph unicode="$" d="M273 -36q-84 3 -149.5 45t-92.5 87l28 16q25 -43 84 -79.5t136 -36.5q88 0 148.5 41.5t60.5 123.5q0 20 -4 38.5t-13.5 33.5t-18.5 27t-25 22.5t-26 18t-29 15.5t-26.5 11.5t-26.5 10t-22 7.5l-28 10q-38 14 -65.5 27t-60 35t-51 52.5t-22.5 68.5q-6 86 53 144.5 t150 55.5v78h33v-81q48 -9 90.5 -33.5t61.5 -45.5l18 -20l-26 -19q-3 3 -8 9t-21.5 20.5t-35.5 26t-48 21.5t-60 12q-76 4 -127.5 -45.5t-45.5 -120.5q3 -31 19 -56.5t44 -44.5t52.5 -31t60.5 -25l28 -11q1 0 25.5 -9t33.5 -12.5t34 -15.5t37 -21.5t31 -26.5t28.5 -34 t17 -41t7.5 -51q0 -90 -63 -139t-153 -56v-79h-33v77z" />
<glyph unicode="%" horiz-adv-x="800" d="M185 391q63 0 103.5 56t40.5 161t-40.5 160t-103.5 55t-103.5 -55t-40.5 -160t40.5 -161t103.5 -56zM61 608q0 97 35.5 147t88.5 50q54 0 89 -49.5t35 -147.5q0 -96 -36 -147t-88 -51q-53 0 -88.5 51t-35.5 147zM124 -2l581 753h31l-581 -753h-31zM472 213 q0 -105 40.5 -161t103.5 -56t103.5 56t40.5 161t-40.5 160t-103.5 55t-103.5 -55t-40.5 -160zM492 213q0 97 35.5 147t88.5 50q54 0 89 -49.5t35 -147.5q0 -96 -36 -147t-88 -51q-53 0 -88.5 51t-35.5 147z" />
<glyph unicode="&#x26;" horiz-adv-x="660" d="M429 595q0 45 -31.5 73t-71.5 28q-48 0 -78.5 -25.5t-40.5 -55.5t-10 -62q0 -70 43 -122q37 14 49 19.5t42 19t41.5 23.5t28 26t22.5 34.5t6 41.5zM14 182q0 50 15 88.5t44.5 66t59.5 45t73 35.5q-41 55 -41 144q0 77 48.5 121t112.5 44q53 0 95.5 -36.5t42.5 -94.5 q0 -23 -7 -43.5t-14.5 -35t-27 -30t-30.5 -23.5t-39.5 -21.5t-39.5 -18t-44 -17.5l225 -238q22 62 26 139h33q-3 -96 -34 -165l134 -142h-44l-106 111q-78 -134 -260 -134q-97 0 -159.5 58.5t-62.5 146.5zM48 183q0 -76 54 -126t134 -50q172 0 236 128l-241 252l-5 5 q-40 -17 -68 -33t-55 -40.5t-41 -58.5t-14 -77z" />
<glyph unicode="'" horiz-adv-x="102" d="M28 548l-17 218h49l-8 -218h-24z" />
<glyph unicode="(" horiz-adv-x="234" d="M182 -141q-5 9 -14 25.5t-32 68.5t-40 104.5t-31.5 126.5t-14.5 142q0 67 13.5 138.5t33 124.5t39.5 96.5t34 66.5l13 23l28 -16q-5 -8 -13.5 -23t-30.5 -62t-39 -95.5t-30.5 -118t-13.5 -134.5q0 -66 13 -136.5t32 -124.5t38 -98.5t32 -68.5l13 -24z" />
<glyph unicode=")" horiz-adv-x="242" d="M50 -126q5 9 13.5 25t31 66t39 100.5t30.5 122.5t14 138q0 103 -32 211.5t-64 164.5l-31 57l28 16q5 -8 14 -23.5t32 -64.5t40.5 -99t32 -122.5t14.5 -139.5q0 -68 -13.5 -141t-33 -128.5t-39 -102t-32.5 -70.5l-14 -25z" />
<glyph unicode="*" horiz-adv-x="460" d="M215 784l-12 -180l165 68l12 -36l-174 -44l115 -136l-35 -22l-91 149l-91 -149l-34 22l115 136l-175 44l12 36l166 -68l-13 180h40z" />
<glyph unicode="+" d="M275 5v252h-249v29h249v251h33v-251h248v-29h-248v-252h-33z" />
<glyph unicode="," horiz-adv-x="165" d="M-7 -106q23 19 36 31.5t27 31t21 37.5h-2q-16 0 -28 11.5t-12 28.5q0 16 12 27.5t28 11.5t28 -11.5t12 -27.5q0 -37 -29.5 -81t-73.5 -77z" />
<glyph unicode="-" horiz-adv-x="496" d="M65 274v28h367v-28h-367z" />
<glyph unicode="." horiz-adv-x="150" d="M75 -6q-16 0 -28 11.5t-12 28.5q0 16 12 27.5t28 11.5t28 -11.5t12 -27.5q0 -17 -12 -28.5t-28 -11.5z" />
<glyph unicode="/" d="M196 -124l-38 10l258 851l36 -11z" />
<glyph unicode="0" horiz-adv-x="609" d="M305 -6q104 0 170.5 92.5t66.5 265.5t-66.5 263.5t-170.5 90.5t-171 -90.5t-67 -263.5t67.5 -265.5t170.5 -92.5zM101 352q0 160 58 242t146 82q89 0 146.5 -82t57.5 -242q0 -159 -58.5 -243.5t-145.5 -84.5t-145.5 84.5t-58.5 243.5z" />
<glyph unicode="1" horiz-adv-x="422" d="M24 0v30h169v639l-160 -60v28l161 63h33v-670h171v-30h-374z" />
<glyph unicode="2" horiz-adv-x="452" d="M17 36q252 259 339 381q40 63 34.5 119.5t-53 95t-116.5 38.5q-50 0 -90.5 -26.5t-62.5 -68.5l-34 11q26 55 76.5 87.5t110.5 32.5q61 0 109.5 -28t73.5 -71.5t21 -100.5t-42 -110q-56 -79 -320 -360h380v-36h-426v36z" />
<glyph unicode="3" horiz-adv-x="445" d="M207 -3q-132 0 -191 116l30 15q31 -53 70 -74t91 -21q79 0 128 47.5t49 120.5q0 75 -52.5 125t-141.5 50h-12v29h11q73 0 110.5 37t37.5 97q0 56 -38 93t-92 37q-42 0 -75 -20.5t-46 -56.5l-34 5q10 42 51.5 74.5t103.5 32.5q67 0 116 -48.5t49 -116.5q0 -51 -26.5 -91.5 t-69.5 -55.5q60 -15 101 -65t41 -126q0 -85 -59 -144.5t-152 -59.5z" />
<glyph unicode="4" horiz-adv-x="567" d="M413 0v161h-379v39l376 500h37v-499h97v-40h-97v-161h-34zM76 201h337v451z" />
<glyph unicode="5" horiz-adv-x="478" d="M177 0q-96 15 -152 85l29 17q42 -57 128 -73q82 -13 140.5 30.5t72.5 122.5q12 76 -34.5 140t-119.5 75q-83 15 -165 -26l-17 26l71 303h276v-30h-250l-63 -263q74 34 154 19q88 -16 141.5 -88.5t39.5 -160.5q-15 -91 -84.5 -141.5t-166.5 -35.5z" />
<glyph unicode="6" horiz-adv-x="445" d="M143 11q-81 39 -107 125.5t18 159.5l234 404h40l-192 -331l-12 -8q44 26 101.5 28.5t98.5 -20.5q71 -42 93 -121t-19 -152q-38 -64 -108.5 -89.5t-146.5 4.5zM84 276q-33 -58 -15.5 -123.5t76.5 -99.5q58 -33 123.5 -15.5t98.5 76.5q34 58 16 123.5t-77 98.5t-123.5 15.5 t-98.5 -75.5z" />
<glyph unicode="7" horiz-adv-x="509" d="M46 0l392 664h-365v36h425l-413 -700h-39z" />
<glyph unicode="8" horiz-adv-x="488" d="M140 21q-77 41 -99 116.5t22 145.5q35 56 97 82q-69 39 -89.5 111t17.5 139q37 64 110 83.5t136 -16.5q66 -37 85 -108t-19 -135q-25 -45 -71 -73q87 -37 116 -118.5t-19 -154.5q-43 -68 -127 -89t-159 17zM91 267q-37 -58 -18 -121.5t82 -97.5q65 -34 135 -16t108 77 q26 39 23 81.5t-23 77.5t-61 58t-91 23q-103 0 -155 -82zM118 601q-28 -55 -18 -104.5t52 -83.5t95 -34q82 0 125 75q30 52 14 111.5t-69 89.5t-111 14.5t-88 -68.5z" />
<glyph unicode="9" horiz-adv-x="445" d="M302 685q81 -39 107 -125.5t-18 -159.5l-234 -404h-40l192 331l12 8q-44 -26 -101.5 -28.5t-98.5 20.5q-71 42 -93 121t19 152q38 64 108.5 89.5t146.5 -4.5zM78 582q-34 -58 -16 -123.5t77 -98.5t123.5 -15.5t98.5 75.5q33 58 15.5 123.5t-76.5 99.5q-58 33 -123.5 15.5 t-98.5 -76.5z" />
<glyph unicode=":" horiz-adv-x="150" d="M75 -6q-16 0 -28 11.5t-12 28.5q0 16 12 27.5t28 11.5t28 -11.5t12 -27.5q0 -17 -12 -28.5t-28 -11.5zM35 444q0 16 12 27.5t28 11.5t28 -11.5t12 -27.5q0 -17 -12 -28.5t-28 -11.5t-28 11.5t-12 28.5z" />
<glyph unicode=";" horiz-adv-x="165" d="M-7 -106q23 19 36 31.5t27 31t21 37.5h-2q-16 0 -28 11.5t-12 28.5q0 16 12 27.5t28 11.5t28 -11.5t12 -27.5q0 -37 -29.5 -81t-73.5 -77zM35 444q0 16 12 27.5t28 11.5t28 -11.5t12 -27.5q0 -17 -12 -28.5t-28 -11.5t-28 11.5t-12 28.5z" />
<glyph unicode="&#x3c;" horiz-adv-x="575" d="M463 127l-320 154v52l319 153l15 -27l-324 -152l325 -151z" />
<glyph unicode="=" d="M97 412v30h415v-30h-415zM97 138v30h415v-30h-415z" />
<glyph unicode="&#x3e;" horiz-adv-x="575" d="M151 127l-13 29l323 151l-323 152l14 27l321 -153v-52z" />
<glyph unicode="?" horiz-adv-x="353" d="M76 382q33 11 53.5 19t48.5 22.5t44.5 30.5t30 39.5t15.5 52.5q4 58 -34.5 94t-101.5 36q-30 0 -56 -16.5t-36 -29.5t-16 -24l-32 19q2 3 5.5 8.5t15.5 20t26.5 25t39 19.5t51.5 9q87 0 132 -45t40 -119q-7 -73 -57.5 -115t-128.5 -69v-182h-35zM62 34q0 16 12 27.5 t28 11.5t28 -11.5t12 -27.5q0 -17 -12 -28.5t-28 -11.5t-28 11.5t-12 28.5z" />
<glyph unicode="@" horiz-adv-x="1105" d="M534 -23q-79 0 -119 42t-40 93q0 48 18 81.5t51.5 50t71 23.5t87.5 7q54 0 109 -11v63q0 129 -145 129q-87 0 -153 -73l-26 21q73 86 179 86q79 0 130.5 -38.5t51.5 -121.5v-194q0 -125 107 -125q59 0 110 73.5t51 175.5q0 199 -130 332t-327 133q-97 0 -185 -37.5 t-152 -101.5t-101.5 -152.5t-37.5 -186.5q0 -199 139.5 -339t336.5 -140q133 0 256 74l16 -27q-124 -77 -272 -77q-138 0 -255.5 68.5t-186 185.5t-68.5 255t68.5 255t186 185t255.5 68q211 0 350.5 -142.5t139.5 -352.5q0 -112 -59 -195.5t-136 -83.5q-133 0 -133 163 q0 -69 -60.5 -117.5t-127.5 -48.5zM411 120q0 -42 31.5 -74.5t87.5 -32.5q87 0 135 56.5t47 163.5q-48 11 -100 11q-201 0 -201 -124z" />
<glyph unicode="A" horiz-adv-x="616" d="M565 0l-88 226h-339l-88 -226h-35l274 700h37l274 -700h-35zM150 256h315l-157 403z" />
<glyph unicode="B" horiz-adv-x="576" d="M546 211q0 -96 -62 -153.5t-163 -57.5h-241v700h221q63 0 108 -45t45 -109q0 -51 -17.5 -85.5t-66.5 -49.5q75 -4 125.5 -55.5t50.5 -144.5zM114 30h191q107 0 157 50.5t50 130.5q0 74 -41.5 127.5t-130.5 53.5h-226v-362zM114 422h195q64 0 88 33t24 91q0 51 -35 87.5 t-80 36.5h-192v-248z" />
<glyph unicode="C" horiz-adv-x="659" d="M376 -2q-137 0 -234 103.5t-97 248.5q0 90 40 169.5t117.5 130.5t173.5 51q140 0 239 -107l-26 -20q-87 97 -213 97q-128 0 -212.5 -96.5t-84.5 -224.5q0 -133 88 -227.5t209 -94.5q134 0 225 112l28 -19q-104 -123 -253 -123z" />
<glyph unicode="D" horiz-adv-x="619" d="M80 0v700h140q179 0 266.5 -94t87.5 -256q0 -159 -88.5 -254.5t-260.5 -95.5h-145zM114 30h111q157 0 236.5 85.5t79.5 234.5q0 152 -78 236t-243 84h-106v-640z" />
<glyph unicode="E" horiz-adv-x="541" d="M80 0v700h436v-30h-402v-300h324v-30h-324v-310h403v-30h-437z" />
<glyph unicode="F" horiz-adv-x="505" d="M80 0v701h416v-30h-382v-302h303v-30h-303v-339h-34z" />
<glyph unicode="G" horiz-adv-x="703" d="M395 -6q-145 0 -247.5 103.5t-102.5 252.5q0 148 102 252t248 104q112 0 204 -61l-26 -23q-86 54 -178 54q-132 0 -224 -95t-92 -231t93 -231t223 -95q67 0 132.5 30t111.5 85v164h-199v30h233v-204q-50 -64 -124.5 -99.5t-153.5 -35.5z" />
<glyph unicode="H" horiz-adv-x="698" d="M80 0v700h34v-330h471v330h33v-700h-33v340h-471v-340h-34z" />
<glyph unicode="I" horiz-adv-x="194" d="M80 0v700h34v-700h-34z" />
<glyph unicode="J" horiz-adv-x="433" d="M199 -2q-65 0 -114 44t-58 109h31q10 -53 49.5 -88t91.5 -35q60 0 97.5 33t37.5 104v536h35v-531q-1 -89 -47.5 -130.5t-122.5 -41.5z" />
<glyph unicode="K" horiz-adv-x="541" d="M80 0v700h34v-340l367 340h50l-317 -295l310 -405h-45l-290 383l-75 -70v-313h-34z" />
<glyph unicode="L" horiz-adv-x="471" d="M80 0v700h34v-670h337v-30h-371z" />
<glyph unicode="M" horiz-adv-x="846" d="M423 66l-309 569v-635h-34v700h38l305 -562l307 562h36v-700h-33v633z" />
<glyph unicode="N" horiz-adv-x="667" d="M80 0v700h35l437 -637v637h35v-700h-33l-440 644v-644h-34z" />
<glyph unicode="O" horiz-adv-x="791" d="M395 -6q-145 0 -247.5 103.5t-102.5 252.5q0 148 102 252t248 104q145 0 248 -103.5t103 -252.5q0 -82 -31 -150.5t-81 -112.5t-112 -68.5t-127 -24.5zM79 350q0 -136 93 -231t223 -95q123 0 220 90t97 236q0 137 -93 231.5t-224 94.5q-132 0 -224 -95t-92 -231z" />
<glyph unicode="P" horiz-adv-x="553" d="M80 0v708h251q76 0 129 -55q54 -52 54 -130q0 -76 -54 -130t-129 -54h-217v-339h-34zM114 369h217q62 0 106 44.5t44 109.5t-44 109q-46 46 -106 46h-217v-309z" />
<glyph unicode="Q" horiz-adv-x="748" d="M369 291h49l195 -180q99 94 99 239q0 137 -93 231.5t-224 94.5q-132 0 -224 -95t-92 -231t93 -231t223 -95q106 0 192 66zM45 350q0 148 102 252t248 104q145 0 248 -103.5t103 -252.5q0 -159 -110 -261l97 -89h-49l-73 68q-97 -74 -216 -74q-145 0 -247.5 103.5 t-102.5 252.5z" />
<glyph unicode="R" horiz-adv-x="615" d="M356 405q69 0 106 37t37 95t-38 95.5t-113 37.5h-234v-265h242zM80 0v700h270q88 0 136 -46t48 -116q0 -71 -46 -116.5t-132 -46.5l244 -375h-41l-243 375h-202v-375h-34z" />
<glyph unicode="S" horiz-adv-x="493" d="M236 -6q-112 0 -201 76l26 22q70 -66 175 -66q75 0 131.5 37t56.5 107q0 23 -5 43t-11 34t-20.5 28t-23.5 22t-30 19t-30.5 15t-35 14.5t-33.5 13.5q-76 31 -122 73t-46 111q0 70 52.5 116.5t123.5 46.5q94 0 165 -60l-25 -23q-63 53 -140 53q-60 0 -101 -37.5t-41 -95.5 q0 -55 38 -89.5t111 -64.5q103 -42 136 -65q73 -53 72 -154q0 -85 -64.5 -130.5t-157.5 -45.5z" />
<glyph unicode="T" horiz-adv-x="621" d="M294 0v670h-269v30h571v-30h-269v-670h-33z" />
<glyph unicode="U" horiz-adv-x="698" d="M349 -6q-115 0 -192 67t-77 204v435h35v-432q0 -118 65.5 -180t168.5 -62t168.5 62t65.5 180v432h35v-435q0 -137 -77 -204t-192 -67z" />
<glyph unicode="V" horiz-adv-x="606" d="M293 0l-273 700h35l249 -641l247 641h35l-271 -700h-22z" />
<glyph unicode="W" horiz-adv-x="956" d="M194 0l-174 700h35l163 -660l235 660h49l235 -662l164 662h35l-174 -700h-47l-238 670l-237 -670h-46z" />
<glyph unicode="X" horiz-adv-x="680" d="M55 700h41l244 -301l248 301h41l-268 -326l304 -374h-41l-286 352l-281 -352h-42l303 377z" />
<glyph unicode="Y" horiz-adv-x="615" d="M291 0v345l-276 355h41l252 -324l251 324h41l-275 -355v-345h-34z" />
<glyph unicode="Z" horiz-adv-x="564" d="M10 0l487 670h-413v30h475l-486 -670h475v-30h-538z" />
<glyph unicode="[" horiz-adv-x="299" d="M35 -148v936h187v-30h-153v-876h153v-30h-187z" />
<glyph unicode="\" d="M404 -124l-256 850l36 11l258 -851z" />
<glyph unicode="]" horiz-adv-x="299" d="M78 -148v30h152v876h-152v30h186v-936h-186z" />
<glyph unicode="^" d="M130 410l-30 14l174 325l176 -325l-30 -14l-146 270z" />
<glyph unicode="_" d="M42 -110v30h500v-30h-500z" />
<glyph unicode="`" d="M417 534l-240 148l31 51l224 -177z" />
<glyph unicode="a" horiz-adv-x="511" d="M206 -6q-79 0 -119 42t-40 93q0 48 18 81.5t51.5 50t71 23.5t87.5 7q54 0 109 -11v63q0 129 -145 129q-87 0 -153 -73l-26 21q73 86 179 86q79 0 130.5 -38.5t51.5 -121.5v-346h-37v135q-9 -58 -56 -99.5t-122 -41.5zM83 137q0 -42 31.5 -74.5t87.5 -32.5q87 0 135 56.5 t47 163.5q-48 11 -100 11q-201 0 -201 -124z" />
<glyph unicode="b" horiz-adv-x="561" d="M60 700h36v-294q62 100 188 100q101 0 171.5 -73.5t70.5 -182.5q0 -108 -73.5 -182t-175.5 -74q-118 0 -181 98v-92h-36v700zM96 144q18 -48 65 -83t116 -35q87 0 150 64t63 160q0 98 -60 160.5t-146 62.5q-68 0 -118 -34.5t-70 -84.5v-210z" />
<glyph unicode="c" horiz-adv-x="513" d="M293 -6q-109 0 -183.5 69.5t-74.5 188.5q0 114 74 184t184 70q56 0 109 -24t76 -75l-30 -22q-16 39 -58 64t-97 25q-94 0 -157.5 -60.5t-63.5 -161.5q0 -106 63.5 -165.5t157.5 -59.5q44 0 77.5 13.5t49.5 28.5t34 38l29 -23q-68 -90 -190 -90z" />
<glyph unicode="d" horiz-adv-x="561" d="M501 700v-700h-36v92q-63 -98 -181 -98q-102 0 -175.5 74t-73.5 182q0 109 70.5 182.5t171.5 73.5q126 0 188 -100v294h36zM71 250q0 -96 63 -160t150 -64q69 0 116 35t65 83v210q-20 50 -70 84.5t-118 34.5q-86 0 -146 -62.5t-60 -160.5z" />
<glyph unicode="e" horiz-adv-x="521" d="M35 262q0 108 62.5 179.5t175.5 71.5q56 0 99.5 -18.5t67 -48t38.5 -65.5t14.5 -71t-5.5 -64h-415q5 -103 63.5 -162t146.5 -59q130 0 177 105l29 -21q-2 -6 -8 -17t-23 -29.5t-38.5 -33.5t-58 -26.5t-78.5 -11.5q-116 0 -181.5 78.5t-65.5 192.5zM72 277h383 q8 95 -42.5 150.5t-139.5 55.5q-79 0 -137.5 -53t-63.5 -153z" />
<glyph unicode="f" horiz-adv-x="319" d="M107 0v468h-101v32h101v86q0 131 116 131q35 0 62.5 -12t38.5 -31l-22 -25q-33 35 -80 35q-79 0 -79 -98v-86h154v-32h-154v-468h-36z" />
<glyph unicode="g" horiz-adv-x="558" d="M272 186q58 0 99 41.5t41 103.5t-41 102.5t-99 40.5q-57 0 -98 -40.5t-41 -102.5t41 -103.5t98 -41.5zM40 -145q0 97 88 148q-72 23 -72 90q0 35 25.5 66t74.5 37q-59 53 -59 135q0 73 51.5 124t123.5 51q45 0 86 -22l161 11l-13 -55l-109 15q52 -52 52 -124 q0 -74 -51.5 -126t-125.5 -52q-31 0 -81 19q-26 11 -62.5 -6.5t-36.5 -68.5q0 -71 117 -71q10 0 35.5 0.5t40.5 0.5q46 0 76.5 -2t63 -10.5t51.5 -23t31 -41t12 -63.5q0 -76 -66 -134t-202 -58q-60 0 -103.5 15.5t-65.5 40.5t-32 51t-10 53zM74 -126q-2 -62 39 -103.5 t138 -41.5q109 0 169.5 41t60.5 121q0 61 -47.5 80.5t-147.5 19.5q-92 0 -120 4q-40 -15 -65.5 -50t-26.5 -71z" />
<glyph unicode="h" horiz-adv-x="502" d="M50 0v700h37v-324q17 50 65.5 90t110.5 40q95 0 142 -47.5t47 -158.5v-300h-36v299q0 175 -155 175q-71 0 -120.5 -50.5t-53.5 -105.5v-318h-37z" />
<glyph unicode="i" horiz-adv-x="171" d="M68 0v500h37v-500h-37zM32 615q0 22 15 37t38 15t37.5 -14.5t14.5 -37.5t-15 -38t-37 -15q-23 0 -38 15t-15 38z" />
<glyph unicode="j" horiz-adv-x="155" d="M-77 -185q62 6 103.5 48.5t41.5 112.5v524h37v-524q0 -84 -51.5 -134.5t-130.5 -58.5v32zM34 615q0 22 15 37t38 15t37.5 -14.5t14.5 -37.5t-15 -38t-37 -15q-23 0 -38 15t-15 38z" />
<glyph unicode="k" horiz-adv-x="433" d="M60 0v700h37v-404l261 204h60l-217 -170l205 -330h-43l-192 308l-7 -6v1l-67 -54v-249h-37z" />
<glyph unicode="l" horiz-adv-x="157" d="M60 0v700h37v-700h-37z" />
<glyph unicode="m" horiz-adv-x="868" d="M50 0v500h37v-124q17 50 65.5 90t110.5 40q157 0 183 -139q18 55 65 97t118 42q91 0 140 -48t49 -158v-300h-37v299q0 175 -155 175q-71 0 -120.5 -50.5t-53.5 -105.5v-318h-36v299q0 175 -155 175q-71 0 -120.5 -50.5t-53.5 -105.5v-318h-37z" />
<glyph unicode="n" horiz-adv-x="502" d="M50 0v500h37v-124q17 50 65.5 90t110.5 40q92 0 140.5 -47.5t48.5 -158.5v-300h-36v299q0 175 -155 175q-71 0 -120.5 -50.5t-53.5 -105.5v-318h-37z" />
<glyph unicode="o" horiz-adv-x="584" d="M292 -6q-107 0 -182 72.5t-75 183.5t75 183.5t182 72.5q108 0 182.5 -72.5t74.5 -183.5q0 -110 -74.5 -183t-182.5 -73zM72 250q0 -98 64 -161t156 -63t156.5 63.5t64.5 160.5q0 98 -64.5 161t-156.5 63q-91 0 -155.5 -63t-64.5 -161z" />
<glyph unicode="p" horiz-adv-x="561" d="M60 -200v700h36v-92q63 98 181 98q102 0 175.5 -74t73.5 -182q0 -109 -70.5 -182.5t-171.5 -73.5q-126 0 -188 100v-294h-36zM96 146q20 -50 70 -84.5t118 -34.5q86 0 146 62.5t60 160.5q0 96 -63 160t-150 64q-69 0 -116 -35t-65 -83v-210z" />
<glyph unicode="q" horiz-adv-x="561" d="M501 -200h-36v294q-62 -100 -188 -100q-101 0 -171.5 73.5t-70.5 182.5q0 108 73.5 182t175.5 74q118 0 181 -98v92h36v-700zM71 250q0 -98 60 -160.5t146 -62.5q68 0 118 34.5t70 84.5v210q-18 48 -65 83t-116 35q-87 0 -150 -64t-63 -160z" />
<glyph unicode="r" horiz-adv-x="376" d="M88 0v500h36v-124q13 66 47.5 98t77.5 32q59 0 85 -30.5t29 -65.5l-27 -19q-16 81 -89 81q-52 -1 -85.5 -46t-37.5 -125v-301h-36z" />
<glyph unicode="s" horiz-adv-x="377" d="M191 -6q-98 0 -176 78l28 25q55 -68 148 -68q57 0 93 32.5t36 83.5q0 44 -28.5 71.5t-69.5 41t-82 26.5t-69.5 38.5t-28.5 65.5q0 54 36.5 86t99.5 32q87 0 139 -67l-27 -23q-45 56 -110 56q-49 0 -75 -23t-26 -60q0 -29 20.5 -48t51.5 -28t67 -22t67 -27t51.5 -44.5 t20.5 -74.5q0 -68 -48 -109.5t-118 -41.5z" />
<glyph unicode="t" horiz-adv-x="328" d="M213 -6q-40 0 -65.5 13t-36.5 39.5t-14.5 52.5t-3.5 67v308h-83v34h83v192h37v-192h171v-34h-171v-314q0 -66 16.5 -98t59.5 -32q54 0 95 24l17 -30q-21 -14 -53.5 -22t-51.5 -8z" />
<glyph unicode="u" horiz-adv-x="502" d="M452 500v-500h-37v124q-17 -50 -65.5 -90t-110.5 -40q-92 0 -140.5 47.5t-48.5 158.5v300h36v-299q0 -175 155 -175q71 0 120.5 50.5t53.5 105.5v318h37z" />
<glyph unicode="v" horiz-adv-x="463" d="M216 0l-206 500h39l183 -448l183 448h38l-205 -500h-32z" />
<glyph unicode="w" horiz-adv-x="700" d="M49 500l142 -447l141 447h36l142 -447l141 447h39l-166 -500h-29l-145 445l-145 -445h-29l-166 500h39z" />
<glyph unicode="x" horiz-adv-x="485" d="M5 0l215 255l-212 245h46l191 -221l183 221h45l-205 -247l212 -253h-45l-192 227l-193 -227h-45z" />
<glyph unicode="y" horiz-adv-x="564" d="M107 -200l158 270l-255 430h43l233 -395l235 395h41l-413 -700h-42z" />
<glyph unicode="z" horiz-adv-x="491" d="M34 0v32l359 427h-347v38h409v-22l-366 -433h353v-42h-408z" />
<glyph unicode="{" horiz-adv-x="399" d="M50 335q45 0 72.5 8.5t39.5 28.5t15.5 40t3.5 55q0 23 -3 81t-3 92q0 157 123 157q10 0 23.5 -2.5t22.5 -4.5l8 -2l-7 -27q-20 10 -60 10q-33 0 -56 -23t-23 -79q0 -28 3.5 -89t3.5 -91q0 -84 -25.5 -123t-81.5 -48q56 -9 81.5 -48t25.5 -123q0 -30 -3.5 -91t-3.5 -89 q0 -56 23 -79t56 -23q40 0 60 10l7 -27q-32 -9 -54 -9q-123 0 -123 157q0 34 3 92t3 81q0 35 -3.5 55t-15.5 40t-39.5 28.5t-72.5 8.5v34z" />
<glyph unicode="|" d="M310 -170v945h34v-945h-34z" />
<glyph unicode="}" horiz-adv-x="399" d="M349 301q-45 0 -72.5 -8.5t-39.5 -28.5t-15.5 -40t-3.5 -55q0 -23 3 -81t3 -92q0 -157 -123 -157q-10 0 -23.5 2.5t-21.5 4.5l-9 2l7 27q20 -10 60 -10q33 0 56 23t23 79q0 28 -3.5 89t-3.5 91q0 84 25.5 123t81.5 48q-56 9 -81.5 48t-25.5 123q0 30 3.5 91t3.5 89 q0 56 -23 79t-56 23q-40 0 -60 -10l-7 27q32 9 54 9q123 0 123 -157q0 -34 -3 -92t-3 -81q0 -35 3.5 -55t15.5 -40t39.5 -28.5t72.5 -8.5v-34z" />
<glyph unicode="~" d="M447 266q-28 0 -54 16t-46.5 39t-41 45.5t-45.5 38.5t-51 16q-37 0 -57 -23t-20 -61q0 -10 6 -38l-39 -7q-5 23 -5 44q0 57 31.5 89t90.5 32q28 0 55.5 -16t48.5 -38.5t41.5 -45.5t44 -39t46.5 -16q67 0 67 79q0 27 -5 40l39 10q6 -26 6 -52q0 -55 -29.5 -84t-82.5 -29z " />
<glyph unicode="&#xa1;" horiz-adv-x="183" d="M76 252h32l13 -454h-58zM52 466q0 17 12 28.5t28 11.5t28 -11.5t12 -28.5q0 -16 -12 -27.5t-28 -11.5t-28 11.5t-12 27.5z" />
<glyph unicode="&#xa2;" horiz-adv-x="549" d="M284 84q-93 11 -154.5 82.5t-61.5 168.5q0 94 60 167.5t156 83.5v89h33v-88q92 -3 165 -73l-28 -21q-57 62 -146 62t-147.5 -66t-58.5 -154q0 -90 61 -154.5t145 -64.5q98 0 155 70l28 -18q-75 -82 -174 -86v-89h-33v91z" />
<glyph unicode="&#xa3;" d="M467 -27q-47 0 -88.5 13.5t-66.5 30t-57 30t-63 13.5q-27 0 -50 -7t-36 -17t-22.5 -20t-13.5 -17l-3 -7l-33 8q1 3 3.5 9t12.5 20.5t23.5 26.5t38 23.5t53.5 15.5q34 95 -31 232h-107v30h93q-24 70 -27.5 136.5t15.5 123.5t73.5 90t139.5 29q90 -5 127 -39l-33 -22 q-10 12 -22.5 18t-20.5 7.5t-27 2.5t-25 1q-73 4 -119 -25.5t-61.5 -81t-11 -113t28.5 -127.5h240v-30h-224q56 -114 29 -222q32 -5 62 -22t51 -33.5t61 -30t91 -13.5q21 0 37.5 3t26 6.5t17.5 9.5t11 10t6.5 10.5t4.5 7.5l36 -16q-1 0 -4 -7t-10.5 -16t-21 -18.5t-40.5 -16 t-63 -6.5z" />
<glyph unicode="&#xa4;" horiz-adv-x="709" d="M119 82l-25 21l116 117q-48 58 -48 136q0 77 49 139l-117 116l25 23l115 -117q60 49 137 49q78 0 138 -49l115 117l24 -23l-118 -116q51 -61 51 -139q0 -75 -50 -136l117 -117l-24 -21l-114 114q-63 -50 -139 -50q-75 0 -138 50zM196 356q0 -74 52 -127t123 -53 q72 0 124 53t52 127q0 75 -52 127.5t-124 52.5t-123.5 -52.5t-51.5 -127.5z" />
<glyph unicode="&#xa5;" d="M303 0v146h-197v48h197v105h-197v49h174l-259 335l26 18l265 -341l264 341l28 -18l-261 -335h176v-49h-183v-105h183v-48h-183v-146h-33z" />
<glyph unicode="&#xa6;" d="M181 -72v307h34v-307h-34zM181 448v305h34v-305h-34z" />
<glyph unicode="&#xa7;" d="M299 -125q-78 0 -138.5 36t-85.5 75l28 16q23 -35 75 -66t121 -31q77 0 131 34.5t54 103.5q0 22 -6 40t-20 33t-26 25t-35 21t-35.5 16t-38.5 14.5t-34 12.5q-39 15 -60.5 25t-52.5 29t-47.5 44.5t-19.5 57.5q-8 92 70 144q-62 43 -70 110q-6 75 49 125t140 46 q22 -1 44 -6.5t39 -13t32.5 -16t26.5 -17.5t19 -16t13 -12l5 -5l-26 -20q-71 71 -155 76q-68 2 -113 -39t-40 -100q4 -35 26.5 -60t49 -37.5t81.5 -33.5q8 -3 35 -12.5t41.5 -15.5t39.5 -18t40 -24.5t30.5 -30t23 -40t7.5 -48.5q0 -82 -66 -129q66 -50 66 -125 q0 -57 -33.5 -96.5t-81 -55.5t-103.5 -16zM143 363q3 -26 15.5 -46t40 -37t44 -24.5t57.5 -23.5q100 -37 120 -48q64 39 64 113q0 25 -10.5 46.5t-22 34.5t-37.5 27.5t-39.5 20t-46 17t-39.5 14.5q-11 5 -36 15t-38 16q-36 -19 -55.5 -51.5t-16.5 -73.5z" />
<glyph unicode="&#xa8;" d="M419 562q-23 0 -38 15t-15 38q0 22 15 37t38 15t37.5 -14.5t14.5 -37.5t-15 -38t-37 -15zM77 615q0 22 15 37t38 15q22 0 37 -14.5t15 -37.5t-15 -38t-37 -15t-37.5 15t-15.5 38z" />
<glyph unicode="&#xa9;" horiz-adv-x="819" d="M410 -20q-155 0 -263 105.5t-108 264.5q0 151 110 260.5t261 109.5q101 0 188 -52t136 -137q46 -81 46 -181q0 -152 -109 -261t-261 -109zM61 350q0 -110 60 -199q48 -71 124.5 -112t164.5 -41q145 0 246.5 103t101.5 249q0 94 -46 181q-47 79 -127 125.5t-175 46.5 q-145 0 -247 -103t-102 -250zM227 354q0 79 53 138.5t135 59.5q78 0 135 -60l-15 -12q-49 55 -120 55q-73 0 -120.5 -54.5t-47.5 -126.5q0 -75 49.5 -128.5t118.5 -53.5q75 0 127 63l16 -11q-60 -69 -143 -69q-77 0 -132.5 58.5t-55.5 140.5z" />
<glyph unicode="&#xaa;" horiz-adv-x="379" d="M154 437q-52 0 -82 30.5t-30 64.5q0 59 43 86.5t109 30.5q20 1 66 -5v20q0 36 -22 56t-56 20q-35 0 -81 -33l-36 30q48 48 117 48q54 0 92.5 -34.5t38.5 -86.5v-223h-53v35q-50 -39 -106 -39zM98 529q0 -51 55 -51q102 0 107 124q-32 4 -48 4q-60 0 -87 -16t-27 -61z" />
<glyph unicode="&#xab;" horiz-adv-x="520" d="M369 82l-193 191l193 191l26 -21l-156 -170l156 -170zM29 273l192 191l26 -21l-155 -170l155 -170l-26 -21z" />
<glyph unicode="&#xac;" horiz-adv-x="744" d="M663 168v234h-612v30h646v-264h-34z" />
<glyph unicode="&#xad;" d="M65 274v28h367v-28h-367z" />
<glyph unicode="&#xae;" horiz-adv-x="818" d="M409 -20q-155 0 -263 105.5t-108 264.5q0 151 110 260.5t261 109.5q101 0 188.5 -52t135.5 -137q47 -80 47 -181q0 -152 -109.5 -261t-261.5 -109zM61 350q0 -109 59 -199q48 -71 124.5 -112t164.5 -41q145 0 247 103t102 249q0 95 -47 181q-47 79 -127 125.5t-175 46.5 q-145 0 -246.5 -103t-101.5 -250zM276 155v396h152q50 0 77 -26t27 -66t-26 -66t-74 -26l138 -212h-24l-137 212h-114v-212h-19zM295 384h137q39 0 59.5 21t20.5 54t-21.5 54t-63.5 21h-132v-150z" />
<glyph unicode="&#xaf;" d="M198 588v32h207v-32h-207z" />
<glyph unicode="&#xb0;" d="M304 465q-75 0 -128 52t-53 124t53 123.5t128 51.5t128 -51.5t53 -123.5t-53 -124t-128 -52zM143 642q0 -70 47 -114.5t114 -44.5t114.5 44.5t47.5 114.5q0 68 -47.5 112.5t-114.5 44.5t-114 -44.5t-47 -112.5z" />
<glyph unicode="&#xb1;" d="M284 177v180h-247v29h247v181h34v-181h249v-29h-249v-180h-34zM37 -29v30h530v-30h-530z" />
<glyph unicode="&#xb2;" horiz-adv-x="274" d="M10 417q151 153 206 231q38 55 10.5 104t-92.5 49q-30 0 -55 -16t-38 -41l-20 6q16 33 46.5 53t66.5 20q49 0 84 -29t39.5 -70.5t-25.5 -88.5q-37 -52 -194 -218h231v-22h-259v22z" />
<glyph unicode="&#xb3;" horiz-adv-x="270" d="M125 393q-79 0 -115 70l18 10q34 -58 97 -58q48 0 78 28.5t30 73.5t-32 75.5t-86 30.5h-7v17h7q44 0 66.5 23t22.5 59q0 34 -23 56t-56 22q-25 0 -45.5 -12.5t-27.5 -33.5l-20 3q6 25 31 45t62 20q41 0 70.5 -29.5t29.5 -70.5q0 -31 -16 -55.5t-41 -33.5q36 -10 60.5 -40 t24.5 -76q0 -52 -36 -88t-92 -36z" />
<glyph unicode="&#xb4;" d="M213 534l-15 22l224 177l31 -51z" />
<glyph unicode="&#xb5;" d="M104 -238v714h34v-268q0 -30 7 -57t22.5 -53.5t47.5 -42t76 -15.5q64 0 98 39.5t35 100.5v296h33v-317q0 -20 5 -42t24.5 -47.5t51.5 -32.5v-25q-73 6 -104 69q-44 -70 -143 -70t-153 52v-301h-34z" />
<glyph unicode="&#xb6;" horiz-adv-x="565" d="M274 -160v583h-47q-72 0 -123 51t-51 124q0 74 51 123q52 52 123 52h247v-933h-34v903h-133v-903h-33zM86 598q0 -61 41.5 -103t99.5 -42h47v290h-47q-55 0 -100 -42q-41 -41 -41 -103z" />
<glyph unicode="&#xb7;" horiz-adv-x="210" d="M105 195q-16 0 -28 11.5t-12 28.5q0 16 12 27.5t28 11.5t28 -11.5t12 -27.5q0 -17 -12 -28.5t-28 -11.5z" />
<glyph unicode="&#xb8;" horiz-adv-x="583" d="M317 -84h-71l38 86h15l-20 -61h37q43 0 69 -15t25 -48q0 -39 -36.5 -61t-84.5 -22q-71 0 -107 33v32q40 -38 107 -38q37 0 66 15t29 43q0 36 -67 36z" />
<glyph unicode="&#xb9;" horiz-adv-x="255" d="M15 393v18h102v388l-97 -37v17l98 38h20v-406h103v-18h-226z" />
<glyph unicode="&#xba;" horiz-adv-x="404" d="M202 436q-74 0 -126.5 51.5t-52.5 122.5t53 123.5t126 52.5t125.5 -52t52.5 -124q0 -70 -52.5 -122t-125.5 -52zM75 610q0 -55 38 -94.5t89 -39.5q50 0 87 40t37 94q0 55 -37 94.5t-87 39.5t-88.5 -39.5t-38.5 -94.5z" />
<glyph unicode="&#xbb;" horiz-adv-x="512" d="M290 82l-26 21l155 170l-155 170l26 21l192 -191zM116 103l156 170l-156 170l26 21l193 -191l-193 -191z" />
<glyph unicode="&#xbc;" horiz-adv-x="800" d="M75 -2l581 753h31l-581 -753h-31zM30 393v18h102v388l-97 -37v17l98 38h20v-406h103v-18h-226zM408 98v23l228 303h22v-302h59v-24h-59v-98h-21v98h-229zM433 122h204v273z" />
<glyph unicode="&#xbd;" horiz-adv-x="800" d="M75 -2l581 753h31l-581 -753h-31zM30 393v18h102v388l-97 -37v17l98 38h20v-406h103v-18h-226zM461 0v22q151 153 206 231q38 55 10.5 104t-92.5 49q-30 0 -55 -16t-38 -41l-20 6q16 33 46.5 53t66.5 20q49 0 84 -29t39.5 -70.5t-25.5 -88.5q-37 -52 -194 -218h231v-22 h-259z" />
<glyph unicode="&#xbe;" horiz-adv-x="800" d="M75 -2l581 753h31l-581 -753h-31zM10 463l18 10q34 -58 97 -58q48 0 78 28.5t30 73.5t-32 75.5t-86 30.5h-7v17h7q44 0 66.5 23t22.5 59q0 34 -23 56t-56 22q-25 0 -45.5 -12.5t-27.5 -33.5l-20 3q6 25 31 45t62 20q41 0 70.5 -29.5t29.5 -70.5q0 -31 -16 -55.5 t-41 -33.5q36 -10 60.5 -40t24.5 -76q0 -52 -36 -88t-92 -36q-79 0 -115 70zM408 98v23l228 303h22v-302h59v-24h-59v-98h-21v98h-229zM433 122h204v273z" />
<glyph unicode="&#xbf;" horiz-adv-x="353" d="M277 118q-33 -11 -53.5 -19t-48.5 -22.5t-44.5 -30.5t-30 -39.5t-15.5 -52.5q-4 -58 34.5 -94t101.5 -36q30 0 56 16.5t36 29.5t16 24l32 -19q-2 -3 -5.5 -8.5t-15.5 -20t-26.5 -25t-39 -19.5t-51.5 -9q-87 0 -132 45t-40 119q7 73 57.5 115t128.5 69v182h35zM211 466 q0 17 12 28.5t28 11.5t28 -11.5t12 -28.5q0 -16 -12 -27.5t-28 -11.5t-28 11.5t-12 27.5z" />
<glyph unicode="&#xc0;" horiz-adv-x="616" d="M565 0l-88 226h-339l-88 -226h-35l274 700h37l274 -700h-35zM150 256h315l-157 403zM185 882l31 51l224 -177l-15 -22z" />
<glyph unicode="&#xc1;" horiz-adv-x="616" d="M565 0l-88 226h-339l-88 -226h-35l274 700h37l274 -700h-35zM150 256h315l-157 403zM206 756l224 177l31 -51l-240 -148z" />
<glyph unicode="&#xc2;" horiz-adv-x="616" d="M565 0l-88 226h-339l-88 -226h-35l274 700h37l274 -700h-35zM120 787l187 83l187 -83l-10 -24l-177 68l-176 -68zM150 256h315l-157 403z" />
<glyph unicode="&#xc3;" horiz-adv-x="616" d="M565 0l-88 226h-339l-88 -226h-35l274 700h37l274 -700h-35zM136 793q-4 31 22 58.5t68 27.5q28 0 76 -28.5t74 -28.5q63 0 61 54h36q-1 -44 -26.5 -65t-65.5 -21q-44 0 -89.5 28.5t-61.5 28.5q-54 0 -61 -54h-33zM150 256h315l-157 403z" />
<glyph unicode="&#xc4;" horiz-adv-x="616" d="M565 0l-88 226h-339l-88 -226h-35l274 700h37l274 -700h-35zM111 815q0 22 15 37t38 15q22 0 37 -14.5t15 -37.5t-15 -38t-37 -15t-37.5 15t-15.5 38zM150 256h315l-157 403zM400 815q0 22 15 37t38 15t37.5 -14.5t14.5 -37.5t-15 -38t-37 -15q-23 0 -38 15t-15 38z" />
<glyph unicode="&#xc5;" horiz-adv-x="616" d="M565 0l-88 226h-339l-88 -226h-35l274 700h37l274 -700h-35zM150 256h315l-157 403zM172 867q0 58 40 98t96 40t95.5 -40t39.5 -98t-39.5 -97.5t-95.5 -39.5t-96 40t-40 97zM214 867q0 -41 27.5 -67t66.5 -26t66 25.5t27 67.5t-27 68t-66 26t-66.5 -26t-27.5 -68z" />
<glyph unicode="&#xc6;" horiz-adv-x="1102" d="M39 0l548 700h432v-30h-403v-300h324v-30h-324v-310h403v-30h-437v235h-319l-182 -235h-42zM288 265h294v373z" />
<glyph unicode="&#xc7;" horiz-adv-x="659" d="M396 -86h-71l37 84q-132 6 -224.5 108.5t-92.5 243.5q0 90 40 169.5t117.5 130.5t173.5 51q140 0 239 -107l-26 -20q-87 97 -213 97q-128 0 -212.5 -96.5t-84.5 -224.5q0 -133 88 -227.5t209 -94.5q134 0 225 112l28 -19q-104 -123 -252 -123l-19 -59h37q43 0 69 -15 t25 -48q0 -39 -36.5 -61t-84.5 -22q-71 0 -107 33v32q40 -38 107 -38q37 0 66 15t29 43q0 36 -67 36z" />
<glyph unicode="&#xc8;" horiz-adv-x="541" d="M80 0v700h436v-30h-402v-300h324v-30h-324v-310h403v-30h-437zM186 882l31 51l224 -177l-15 -22z" />
<glyph unicode="&#xc9;" horiz-adv-x="541" d="M80 0v700h436v-30h-402v-300h324v-30h-324v-310h403v-30h-437zM207 756l224 177l31 -51l-240 -148z" />
<glyph unicode="&#xca;" horiz-adv-x="541" d="M80 0v700h436v-30h-402v-300h324v-30h-324v-310h403v-30h-437zM121 787l187 83l187 -83l-10 -24l-177 68l-176 -68z" />
<glyph unicode="&#xcb;" horiz-adv-x="541" d="M80 0v700h436v-30h-402v-300h324v-30h-324v-310h403v-30h-437zM112 815q0 22 15 37t38 15t37.5 -14.5t14.5 -37.5t-15 -38t-37 -15q-23 0 -38 15t-15 38zM401 815q0 22 15 37t38 15q22 0 37 -14.5t15 -37.5t-15 -38t-37 -15t-37.5 15t-15.5 38z" />
<glyph unicode="&#xcc;" horiz-adv-x="194" d="M80 0v700h34v-700h-34zM-26 882l31 51l224 -177l-15 -22z" />
<glyph unicode="&#xcd;" horiz-adv-x="194" d="M80 0v700h34v-700h-34zM-5 756l224 177l31 -51l-240 -148z" />
<glyph unicode="&#xce;" horiz-adv-x="194" d="M80 0v700h34v-700h-34zM-91 787l187 83l187 -83l-10 -24l-177 68l-176 -68z" />
<glyph unicode="&#xcf;" horiz-adv-x="194" d="M80 0v700h34v-700h-34zM-100 815q0 22 15 37t38 15t37.5 -14.5t14.5 -37.5t-15 -38t-37 -15q-23 0 -38 15t-15 38zM189 815q0 22 15 37t38 15q22 0 37 -14.5t15 -37.5t-15 -38t-37 -15t-37.5 15t-15.5 38z" />
<glyph unicode="&#xd0;" horiz-adv-x="721" d="M185 0v313h-185v28h185v359h124q180 0 267.5 -94t87.5 -256q0 -159 -89 -254.5t-261 -95.5h-129zM218 30h96q157 0 236.5 85.5t79.5 234.5q0 152 -78 236t-243 84h-91v-329h149v-28h-149v-283z" />
<glyph unicode="&#xd1;" horiz-adv-x="667" d="M80 0v700h35l437 -637v637h35v-700h-33l-440 644v-644h-34zM161 793q-4 31 22 58.5t68 27.5q28 0 76 -28.5t74 -28.5q63 0 61 54h36q-1 -44 -26.5 -65t-65.5 -21q-44 0 -89.5 28.5t-61.5 28.5q-54 0 -61 -54h-33z" />
<glyph unicode="&#xd2;" horiz-adv-x="791" d="M395 -6q-145 0 -247.5 103.5t-102.5 252.5q0 148 102 252t248 104q145 0 248 -103.5t103 -252.5q0 -82 -31 -150.5t-81 -112.5t-112 -68.5t-127 -24.5zM79 350q0 -136 93 -231t223 -95q123 0 220 90t97 236q0 137 -93 231.5t-224 94.5q-132 0 -224 -95t-92 -231zM272 882 l31 51l224 -177l-15 -22z" />
<glyph unicode="&#xd3;" horiz-adv-x="791" d="M395 -6q-145 0 -247.5 103.5t-102.5 252.5q0 148 102 252t248 104q145 0 248 -103.5t103 -252.5q0 -82 -31 -150.5t-81 -112.5t-112 -68.5t-127 -24.5zM79 350q0 -136 93 -231t223 -95q123 0 220 90t97 236q0 137 -93 231.5t-224 94.5q-132 0 -224 -95t-92 -231zM293 756 l224 177l31 -51l-240 -148z" />
<glyph unicode="&#xd4;" horiz-adv-x="791" d="M395 -6q-145 0 -247.5 103.5t-102.5 252.5q0 148 102 252t248 104q145 0 248 -103.5t103 -252.5q0 -82 -31 -150.5t-81 -112.5t-112 -68.5t-127 -24.5zM79 350q0 -136 93 -231t223 -95q123 0 220 90t97 236q0 137 -93 231.5t-224 94.5q-132 0 -224 -95t-92 -231zM207 787 l187 83l187 -83l-10 -24l-177 68l-176 -68z" />
<glyph unicode="&#xd5;" horiz-adv-x="791" d="M395 -6q-145 0 -247.5 103.5t-102.5 252.5q0 148 102 252t248 104q145 0 248 -103.5t103 -252.5q0 -82 -31 -150.5t-81 -112.5t-112 -68.5t-127 -24.5zM79 350q0 -136 93 -231t223 -95q123 0 220 90t97 236q0 137 -93 231.5t-224 94.5q-132 0 -224 -95t-92 -231zM223 793 q-4 31 22 58.5t68 27.5q28 0 76 -28.5t74 -28.5q63 0 61 54h36q-1 -44 -26.5 -65t-65.5 -21q-44 0 -89.5 28.5t-61.5 28.5q-54 0 -61 -54h-33z" />
<glyph unicode="&#xd6;" horiz-adv-x="791" d="M395 -6q-145 0 -247.5 103.5t-102.5 252.5q0 148 102 252t248 104q145 0 248 -103.5t103 -252.5q0 -82 -31 -150.5t-81 -112.5t-112 -68.5t-127 -24.5zM79 350q0 -136 93 -231t223 -95q123 0 220 90t97 236q0 137 -93 231.5t-224 94.5q-132 0 -224 -95t-92 -231zM198 815 q0 22 15 37t38 15t37.5 -14.5t14.5 -37.5t-15 -38t-37 -15q-23 0 -38 15t-15 38zM487 815q0 22 15 37t38 15q22 0 37 -14.5t15 -37.5t-15 -38t-37 -15t-37.5 15t-15.5 38z" />
<glyph unicode="&#xd7;" horiz-adv-x="588" d="M548 -11l-531 531l24 21l530 -530z" />
<glyph unicode="&#xd8;" horiz-adv-x="762" d="M381 0q-41 0 -77 9l-26 -85l-37 10l26 85q-104 37 -169.5 127.5t-65.5 204.5q0 144 102 247.5t247 103.5q47 0 89 -12l29 95l36 -11l-29 -95q101 -39 163.5 -128t62.5 -200q0 -106 -53 -188t-132 -122.5t-166 -40.5zM65 351q0 -103 59 -185.5t152 -116.5l186 613 q-43 10 -81 10q-132 0 -224 -94t-92 -227zM312 38q37 -8 69 -8q78 0 150 37.5t120 112.5t48 171q0 101 -56 182t-146 117z" />
<glyph unicode="&#xd9;" horiz-adv-x="698" d="M349 -6q-115 0 -192 67t-77 204v435h35v-432q0 -118 65.5 -180t168.5 -62t168.5 62t65.5 180v432h35v-435q0 -137 -77 -204t-192 -67zM226 882l31 51l224 -177l-15 -22z" />
<glyph unicode="&#xda;" horiz-adv-x="698" d="M349 -6q-115 0 -192 67t-77 204v435h35v-432q0 -118 65.5 -180t168.5 -62t168.5 62t65.5 180v432h35v-435q0 -137 -77 -204t-192 -67zM247 756l224 177l31 -51l-240 -148z" />
<glyph unicode="&#xdb;" horiz-adv-x="698" d="M349 -6q-115 0 -192 67t-77 204v435h35v-432q0 -118 65.5 -180t168.5 -62t168.5 62t65.5 180v432h35v-435q0 -137 -77 -204t-192 -67zM161 787l187 83l187 -83l-10 -24l-177 68l-176 -68z" />
<glyph unicode="&#xdc;" horiz-adv-x="698" d="M349 -6q-115 0 -192 67t-77 204v435h35v-432q0 -118 65.5 -180t168.5 -62t168.5 62t65.5 180v432h35v-435q0 -137 -77 -204t-192 -67zM152 815q0 22 15 37t38 15t37.5 -14.5t14.5 -37.5t-15 -38t-37 -15q-23 0 -38 15t-15 38zM441 815q0 22 15 37t38 15q22 0 37 -14.5 t15 -37.5t-15 -38t-37 -15t-37.5 15t-15.5 38z" />
<glyph unicode="&#xdd;" horiz-adv-x="615" d="M291 0v345l-276 355h41l252 -324l251 324h41l-275 -355v-345h-34zM206 756l224 177l31 -51l-240 -148z" />
<glyph unicode="&#xde;" d="M81 0v694h33v-102h217q86 0 149 -61q62 -60 62 -148q0 -86 -62 -148t-149 -62h-217v-173h-33zM114 203h217q74 0 125.5 52t51.5 128t-52 126q-50 53 -125 53h-217v-359z" />
<glyph unicode="&#xdf;" horiz-adv-x="605" d="M50 0v700h314q67 0 116 -46.5t49 -112.5q0 -51 -27 -92.5t-70 -56.5q61 -15 102 -65t41 -126q0 -85 -59 -144.5t-152 -59.5q-132 0 -191 116l30 15q31 -53 70 -74t91 -21q79 0 128 47.5t49 120.5q0 75 -52.5 125t-141.5 50h-12v29h11q73 0 110.5 38.5t37.5 97.5 q0 54 -38.5 91.5t-91.5 37.5h-280v-670h-34z" />
<glyph unicode="&#xe0;" horiz-adv-x="511" d="M206 -6q-79 0 -119 42t-40 93q0 48 18 81.5t51.5 50t71 23.5t87.5 7q54 0 109 -11v63q0 129 -145 129q-87 0 -153 -73l-26 21q73 86 179 86q79 0 130.5 -38.5t51.5 -121.5v-346h-37v135q-9 -58 -56 -99.5t-122 -41.5zM83 137q0 -42 31.5 -74.5t87.5 -32.5q87 0 135 56.5 t47 163.5q-48 11 -100 11q-201 0 -201 -124zM127 682l31 51l224 -177l-15 -22z" />
<glyph unicode="&#xe1;" horiz-adv-x="511" d="M206 -6q-79 0 -119 42t-40 93q0 48 18 81.5t51.5 50t71 23.5t87.5 7q54 0 109 -11v63q0 129 -145 129q-87 0 -153 -73l-26 21q73 86 179 86q79 0 130.5 -38.5t51.5 -121.5v-346h-37v135q-9 -58 -56 -99.5t-122 -41.5zM83 137q0 -42 31.5 -74.5t87.5 -32.5q87 0 135 56.5 t47 163.5q-48 11 -100 11q-201 0 -201 -124zM148 556l224 177l31 -51l-240 -148z" />
<glyph unicode="&#xe2;" horiz-adv-x="511" d="M206 -6q-79 0 -119 42t-40 93q0 48 18 81.5t51.5 50t71 23.5t87.5 7q54 0 109 -11v63q0 129 -145 129q-87 0 -153 -73l-26 21q73 86 179 86q79 0 130.5 -38.5t51.5 -121.5v-346h-37v135q-9 -58 -56 -99.5t-122 -41.5zM62 587l187 83l187 -83l-10 -24l-177 68l-176 -68z M83 137q0 -42 31.5 -74.5t87.5 -32.5q87 0 135 56.5t47 163.5q-48 11 -100 11q-201 0 -201 -124z" />
<glyph unicode="&#xe3;" horiz-adv-x="511" d="M206 -6q-79 0 -119 42t-40 93q0 48 18 81.5t51.5 50t71 23.5t87.5 7q54 0 109 -11v63q0 129 -145 129q-87 0 -153 -73l-26 21q73 86 179 86q79 0 130.5 -38.5t51.5 -121.5v-346h-37v135q-9 -58 -56 -99.5t-122 -41.5zM78 593q-4 31 22 58.5t68 27.5q28 0 76 -28.5 t74 -28.5q63 0 61 54h36q-1 -44 -26.5 -65t-65.5 -21q-44 0 -89.5 28.5t-61.5 28.5q-54 0 -61 -54h-33zM83 137q0 -42 31.5 -74.5t87.5 -32.5q87 0 135 56.5t47 163.5q-48 11 -100 11q-201 0 -201 -124z" />
<glyph unicode="&#xe4;" horiz-adv-x="511" d="M206 -6q-79 0 -119 42t-40 93q0 48 18 81.5t51.5 50t71 23.5t87.5 7q54 0 109 -11v63q0 129 -145 129q-87 0 -153 -73l-26 21q73 86 179 86q79 0 130.5 -38.5t51.5 -121.5v-346h-37v135q-9 -58 -56 -99.5t-122 -41.5zM53 615q0 22 15 37t38 15q22 0 37 -14.5t15 -37.5 t-15 -38t-37 -15t-37.5 15t-15.5 38zM83 137q0 -42 31.5 -74.5t87.5 -32.5q87 0 135 56.5t47 163.5q-48 11 -100 11q-201 0 -201 -124zM342 615q0 22 15 37t38 15t37.5 -14.5t14.5 -37.5t-15 -38t-37 -15q-23 0 -38 15t-15 38z" />
<glyph unicode="&#xe5;" horiz-adv-x="511" d="M206 -6q-79 0 -119 42t-40 93q0 48 18 81.5t51.5 50t71 23.5t87.5 7q54 0 109 -11v63q0 129 -145 129q-87 0 -153 -73l-26 21q73 86 179 86q79 0 130.5 -38.5t51.5 -121.5v-346h-37v135q-9 -58 -56 -99.5t-122 -41.5zM83 137q0 -42 31.5 -74.5t87.5 -32.5q87 0 135 56.5 t47 163.5q-48 11 -100 11q-201 0 -201 -124zM114 667q0 58 40 98t96 40t95.5 -40t39.5 -98t-39.5 -97.5t-95.5 -39.5t-96 40t-40 97zM156 667q0 -41 27.5 -67t66.5 -26t66 25.5t27 67.5t-27 68t-66 26t-66.5 -26t-27.5 -68z" />
<glyph unicode="&#xe6;" horiz-adv-x="890" d="M629 -9q-76 0 -131 33t-86 89q-2 -19 -8 -33q-67 -86 -193 -86q-74 0 -114 41t-40 94q0 158 215 167q63 2 128 -13v52q0 66 -40.5 102t-104.5 36q-53 0 -130 -43l-27 21q70 59 157 59q55 0 99.5 -26.5t64.5 -72.5q71 110 207 110q117 0 178 -73q53 -64 36 -187h-426 q2 -98 57.5 -167t157.5 -69q118 0 179 111l34 -29q-32 -51 -88 -83.5t-125 -32.5zM99 125q0 -41 28 -69.5t82 -28.5q94 0 142.5 57.5t48.5 165.5q-51 11 -100 11q-99 0 -150 -31t-51 -105zM415 299h393q10 84 -41.5 132.5t-140.5 48.5q-86 0 -140 -50t-71 -131z" />
<glyph unicode="&#xe7;" horiz-adv-x="513" d="M293 -6q-23 0 -45 3l-18 -56h37q43 0 69 -15t25 -48q0 -39 -36.5 -61t-84.5 -22q-71 0 -107 33v32q40 -38 107 -38q37 0 66 15t29 43q0 36 -67 36h-71l37 84q-88 18 -143.5 84t-55.5 168q0 114 74 184t184 70q56 0 109 -24t76 -75l-30 -22q-16 39 -58 64t-97 25 q-94 0 -157.5 -60.5t-63.5 -161.5q0 -106 63.5 -165.5t157.5 -59.5q44 0 77.5 13.5t49.5 28.5t34 38l29 -23q-68 -90 -190 -90z" />
<glyph unicode="&#xe8;" horiz-adv-x="521" d="M397 534l-240 148l31 51l224 -177zM35 262q0 108 62.5 179.5t175.5 71.5q56 0 99.5 -18.5t67 -48t38.5 -65.5t14.5 -71t-5.5 -64h-415q5 -103 63.5 -162t146.5 -59q130 0 177 105l29 -21q-2 -6 -8 -17t-23 -29.5t-38.5 -33.5t-58 -26.5t-78.5 -11.5q-116 0 -181.5 78.5 t-65.5 192.5zM72 277h383q8 95 -42.5 150.5t-139.5 55.5q-79 0 -137.5 -53t-63.5 -153z" />
<glyph unicode="&#xe9;" horiz-adv-x="521" d="M193 534l-15 22l224 177l31 -51zM35 262q0 108 62.5 179.5t175.5 71.5q56 0 99.5 -18.5t67 -48t38.5 -65.5t14.5 -71t-5.5 -64h-415q5 -103 63.5 -162t146.5 -59q130 0 177 105l29 -21q-2 -6 -8 -17t-23 -29.5t-38.5 -33.5t-58 -26.5t-78.5 -11.5q-116 0 -181.5 78.5 t-65.5 192.5zM72 277h383q8 95 -42.5 150.5t-139.5 55.5q-79 0 -137.5 -53t-63.5 -153z" />
<glyph unicode="&#xea;" horiz-adv-x="521" d="M279 670l187 -83l-10 -24l-177 68l-176 -68l-11 24zM35 262q0 108 62.5 179.5t175.5 71.5q56 0 99.5 -18.5t67 -48t38.5 -65.5t14.5 -71t-5.5 -64h-415q5 -103 63.5 -162t146.5 -59q130 0 177 105l29 -21q-2 -6 -8 -17t-23 -29.5t-38.5 -33.5t-58 -26.5t-78.5 -11.5 q-116 0 -181.5 78.5t-65.5 192.5zM72 277h383q8 95 -42.5 150.5t-139.5 55.5q-79 0 -137.5 -53t-63.5 -153z" />
<glyph unicode="&#xeb;" horiz-adv-x="521" d="M425 562q-23 0 -38 15t-15 38q0 22 15 37t38 15t37.5 -14.5t14.5 -37.5t-15 -38t-37 -15zM35 262q0 108 62.5 179.5t175.5 71.5q56 0 99.5 -18.5t67 -48t38.5 -65.5t14.5 -71t-5.5 -64h-415q5 -103 63.5 -162t146.5 -59q130 0 177 105l29 -21q-2 -6 -8 -17t-23 -29.5 t-38.5 -33.5t-58 -26.5t-78.5 -11.5q-116 0 -181.5 78.5t-65.5 192.5zM72 277h383q8 95 -42.5 150.5t-139.5 55.5q-79 0 -137.5 -53t-63.5 -153zM83 615q0 22 15 37t38 15q22 0 37 -14.5t15 -37.5t-15 -38t-37 -15t-37.5 15t-15.5 38z" />
<glyph unicode="&#xec;" horiz-adv-x="171" d="M68 0v500h37v-500h-37zM-38 682l31 51l224 -177l-15 -22z" />
<glyph unicode="&#xed;" horiz-adv-x="171" d="M68 0v500h37v-500h-37zM-17 556l224 177l31 -51l-240 -148z" />
<glyph unicode="&#xee;" horiz-adv-x="171" d="M68 0v500h37v-500h-37zM-103 587l187 83l187 -83l-10 -24l-177 68l-176 -68z" />
<glyph unicode="&#xef;" horiz-adv-x="171" d="M68 0v500h37v-500h-37zM-112 615q0 22 15 37t38 15t37.5 -14.5t14.5 -37.5t-15 -38t-37 -15q-23 0 -38 15t-15 38zM177 615q0 22 15 37t38 15q22 0 37 -14.5t15 -37.5t-15 -38t-37 -15t-37.5 15t-15.5 38z" />
<glyph unicode="&#xf0;" d="M294 -12q-78 0 -134.5 68t-56.5 164q0 92 53 162t138 70q70 0 138 -41q-52 148 -147 224l-45 -52l-39 28l47 54q-67 41 -148 44v30q94 -6 168 -50l80 91l38 -28l-80 -92q85 -69 132.5 -186.5t47.5 -260.5q0 -87 -55.5 -156t-136.5 -69zM136 220q0 -85 47.5 -143.5 t110.5 -58.5q70 0 114 65t44 136q0 85 -47.5 144t-110.5 59q-67 0 -112.5 -63.5t-45.5 -138.5z" />
<glyph unicode="&#xf1;" horiz-adv-x="502" d="M50 0v500h37v-124q17 50 65.5 90t110.5 40q92 0 140.5 -47.5t48.5 -158.5v-300h-36v299q0 175 -155 175q-71 0 -120.5 -50.5t-53.5 -105.5v-318h-37zM74 593q-4 31 22 58.5t68 27.5q28 0 76 -28.5t74 -28.5q63 0 61 54h36q-1 -44 -26.5 -65t-65.5 -21q-44 0 -89.5 28.5 t-61.5 28.5q-54 0 -61 -54h-33z" />
<glyph unicode="&#xf2;" horiz-adv-x="584" d="M292 -6q-107 0 -182 72.5t-75 183.5t75 183.5t182 72.5q108 0 182.5 -72.5t74.5 -183.5q0 -110 -74.5 -183t-182.5 -73zM72 250q0 -98 64 -161t156 -63t156.5 63.5t64.5 160.5q0 98 -64.5 161t-156.5 63q-91 0 -155.5 -63t-64.5 -161zM169 682l31 51l224 -177l-15 -22z " />
<glyph unicode="&#xf3;" horiz-adv-x="584" d="M292 -6q-107 0 -182 72.5t-75 183.5t75 183.5t182 72.5q108 0 182.5 -72.5t74.5 -183.5q0 -110 -74.5 -183t-182.5 -73zM72 250q0 -98 64 -161t156 -63t156.5 63.5t64.5 160.5q0 98 -64.5 161t-156.5 63q-91 0 -155.5 -63t-64.5 -161zM190 556l224 177l31 -51l-240 -148z " />
<glyph unicode="&#xf4;" horiz-adv-x="584" d="M292 -6q-107 0 -182 72.5t-75 183.5t75 183.5t182 72.5q108 0 182.5 -72.5t74.5 -183.5q0 -110 -74.5 -183t-182.5 -73zM72 250q0 -98 64 -161t156 -63t156.5 63.5t64.5 160.5q0 98 -64.5 161t-156.5 63q-91 0 -155.5 -63t-64.5 -161zM104 587l187 83l187 -83l-10 -24 l-177 68l-176 -68z" />
<glyph unicode="&#xf5;" horiz-adv-x="584" d="M292 -6q-107 0 -182 72.5t-75 183.5t75 183.5t182 72.5q108 0 182.5 -72.5t74.5 -183.5q0 -110 -74.5 -183t-182.5 -73zM72 250q0 -98 64 -161t156 -63t156.5 63.5t64.5 160.5q0 98 -64.5 161t-156.5 63q-91 0 -155.5 -63t-64.5 -161zM120 593q-4 31 22 58.5t68 27.5 q28 0 76 -28.5t74 -28.5q63 0 61 54h36q-1 -44 -26.5 -65t-65.5 -21q-44 0 -89.5 28.5t-61.5 28.5q-54 0 -61 -54h-33z" />
<glyph unicode="&#xf6;" horiz-adv-x="584" d="M292 -6q-107 0 -182 72.5t-75 183.5t75 183.5t182 72.5q108 0 182.5 -72.5t74.5 -183.5q0 -110 -74.5 -183t-182.5 -73zM72 250q0 -98 64 -161t156 -63t156.5 63.5t64.5 160.5q0 98 -64.5 161t-156.5 63q-91 0 -155.5 -63t-64.5 -161zM95 615q0 22 15 37t38 15 q22 0 37 -14.5t15 -37.5t-15 -38t-37 -15t-37.5 15t-15.5 38zM384 615q0 22 15 37t38 15t37.5 -14.5t14.5 -37.5t-15 -38t-37 -15q-23 0 -38 15t-15 38z" />
<glyph unicode="&#xf7;" d="M42 292v30h527v-30h-527zM254 63q0 19 13.5 33t32.5 14q20 0 33.5 -14t13.5 -33t-13.5 -33t-33.5 -14q-19 0 -32.5 14t-13.5 33zM254 520q0 20 13.5 34t32.5 14q20 0 33.5 -14t13.5 -34q0 -19 -14 -32.5t-33 -13.5t-32.5 13.5t-13.5 32.5z" />
<glyph unicode="&#xf8;" horiz-adv-x="591" d="M194 -124l-36 8l46 137q-73 28 -119.5 94.5t-46.5 147.5q0 107 76 183t181 76q34 0 72 -10l40 120l36 -7l-42 -126q68 -31 109.5 -94.5t41.5 -141.5q0 -107 -75.5 -183t-181.5 -76q-29 0 -56 6zM75 263q0 -71 38.5 -128.5t100.5 -82.5l143 429q-30 9 -62 9 q-90 0 -155 -66t-65 -161zM249 41q25 -5 46 -5q90 0 155.5 67t65.5 160q0 67 -34.5 122t-90.5 83z" />
<glyph unicode="&#xf9;" horiz-adv-x="502" d="M452 500v-500h-37v124q-17 -50 -65.5 -90t-110.5 -40q-92 0 -140.5 47.5t-48.5 158.5v300h36v-299q0 -175 155 -175q71 0 120.5 50.5t53.5 105.5v318h37zM138 682l31 51l224 -177l-15 -22z" />
<glyph unicode="&#xfa;" horiz-adv-x="502" d="M452 500v-500h-37v124q-17 -50 -65.5 -90t-110.5 -40q-92 0 -140.5 47.5t-48.5 158.5v300h36v-299q0 -175 155 -175q71 0 120.5 50.5t53.5 105.5v318h37zM159 556l224 177l31 -51l-240 -148z" />
<glyph unicode="&#xfb;" horiz-adv-x="502" d="M452 500v-500h-37v124q-17 -50 -65.5 -90t-110.5 -40q-92 0 -140.5 47.5t-48.5 158.5v300h36v-299q0 -175 155 -175q71 0 120.5 50.5t53.5 105.5v318h37zM73 587l187 83l187 -83l-10 -24l-177 68l-176 -68z" />
<glyph unicode="&#xfc;" horiz-adv-x="502" d="M452 500v-500h-37v124q-17 -50 -65.5 -90t-110.5 -40q-92 0 -140.5 47.5t-48.5 158.5v300h36v-299q0 -175 155 -175q71 0 120.5 50.5t53.5 105.5v318h37zM64 615q0 22 15 37t38 15t37.5 -14.5t14.5 -37.5t-15 -38t-37 -15q-23 0 -38 15t-15 38zM353 615q0 22 15 37t38 15 q22 0 37 -14.5t15 -37.5t-15 -38t-37 -15t-37.5 15t-15.5 38z" />
<glyph unicode="&#xfd;" horiz-adv-x="564" d="M107 -200l158 270l-255 430h43l233 -395l235 395h41l-413 -700h-42zM180 556l224 177l31 -51l-240 -148z" />
<glyph unicode="&#xfe;" horiz-adv-x="551" d="M50 -200v900h36v-292q63 98 181 98q102 0 175.5 -74t73.5 -182q0 -109 -70.5 -182.5t-171.5 -73.5q-126 0 -188 100v-294h-36zM86 146q20 -50 70 -84.5t118 -34.5q86 0 146 62.5t60 160.5q0 96 -63 160t-150 64q-69 0 -116 -35t-65 -83v-210z" />
<glyph unicode="&#xff;" horiz-adv-x="564" d="M107 -200l158 270l-255 430h43l233 -395l235 395h41l-413 -700h-42zM85 615q0 22 15 37t38 15q22 0 37 -14.5t15 -37.5t-15 -38t-37 -15t-37.5 15t-15.5 38zM374 615q0 22 15 37t38 15t37.5 -14.5t14.5 -37.5t-15 -38t-37 -15q-23 0 -38 15t-15 38z" />
<glyph unicode="&#x13f;" horiz-adv-x="471" d="M80 0v700h34v-670h337v-30h-371z" />
<glyph unicode="&#x140;" horiz-adv-x="402" d="M60 0v700h37v-700h-37z" />
<glyph unicode="&#x152;" horiz-adv-x="1075" d="M387 0q-145 0 -248 103t-103 248q0 144 102 247.5t249 103.5q127 0 227 -75v73h436v-30h-402v-300h324v-30h-324v-310h403v-30h-437v75q-104 -75 -227 -75zM72 351q0 -135 94.5 -231t226.5 -96q127 0 221 89v475q-93 90 -221 90q-133 0 -227 -95.5t-94 -231.5z" />
<glyph unicode="&#x153;" horiz-adv-x="1000" d="M740 -9q-81 0 -138.5 37.5t-86.5 100.5q-34 -57 -92.5 -91t-127.5 -34q-105 0 -181 76t-76 183t76 183t181 76q71 0 131 -36t93 -96q31 60 87 95.5t133 35.5q113 0 177 -73q52 -61 35 -187h-427q4 -98 59.5 -167t156.5 -69q116 0 179 111l35 -29q-32 -51 -87.5 -83.5 t-126.5 -32.5zM75 263q0 -94 65 -160.5t155 -66.5t155.5 67t65.5 160q0 95 -65 161t-156 66q-90 0 -155 -66t-65 -161zM527 299h391q10 84 -40.5 132.5t-138.5 48.5q-86 0 -140.5 -50t-71.5 -131z" />
<glyph unicode="&#x178;" horiz-adv-x="615" d="M291 0v345l-276 355h41l252 -324l251 324h41l-275 -355v-345h-34zM111 815q0 22 15 37t38 15q22 0 37 -14.5t15 -37.5t-15 -38t-37 -15t-37.5 15t-15.5 38zM400 815q0 22 15 37t38 15t37.5 -14.5t14.5 -37.5t-15 -38t-37 -15q-23 0 -38 15t-15 38z" />
<glyph unicode="&#x237;" horiz-adv-x="155" d="M-77 -185q62 6 103.5 48.5t41.5 112.5v524h37v-524q0 -84 -51.5 -134.5t-130.5 -58.5v32z" />
<glyph unicode="&#x2c6;" d="M283 670l187 -83l-10 -24l-177 68l-176 -68l-11 24z" />
<glyph unicode="&#x2dc;" d="M222 647q-54 0 -61 -54h-33q-4 31 22 58.5t68 27.5q28 0 76 -28.5t74 -28.5q63 0 61 54h36q-1 -44 -26.5 -65t-65.5 -21q-44 0 -89.5 28.5t-61.5 28.5z" />
<glyph unicode="&#x2000;" horiz-adv-x="502" />
<glyph unicode="&#x2001;" horiz-adv-x="1005" />
<glyph unicode="&#x2002;" horiz-adv-x="502" />
<glyph unicode="&#x2003;" horiz-adv-x="1005" />
<glyph unicode="&#x2004;" horiz-adv-x="335" />
<glyph unicode="&#x2005;" horiz-adv-x="251" />
<glyph unicode="&#x2006;" horiz-adv-x="167" />
<glyph unicode="&#x2007;" horiz-adv-x="167" />
<glyph unicode="&#x2008;" horiz-adv-x="125" />
<glyph unicode="&#x2009;" horiz-adv-x="201" />
<glyph unicode="&#x200a;" horiz-adv-x="55" />
<glyph unicode="&#x2010;" horiz-adv-x="496" d="M65 274v28h367v-28h-367z" />
<glyph unicode="&#x2011;" horiz-adv-x="496" d="M65 274v28h367v-28h-367z" />
<glyph unicode="&#x2012;" horiz-adv-x="496" d="M65 274v28h367v-28h-367z" />
<glyph unicode="&#x2013;" d="M123 300v30h371v-30h-371z" />
<glyph unicode="&#x2014;" horiz-adv-x="906" d="M6 300v30h893v-30h-893z" />
<glyph unicode="&#x2018;" horiz-adv-x="105" d="M66 553l-36 82v66h42l-1 -67l26 -62z" />
<glyph unicode="&#x2019;" horiz-adv-x="259" d="M109 506q28 14 37 39t9 77v9h-68v93h97v-102q0 -25 -1.5 -40.5t-8 -38.5t-23 -38t-42.5 -23v24z" />
<glyph unicode="&#x201a;" horiz-adv-x="300" d="M113 -106l-44 19l49 92l4 74h43v-81z" />
<glyph unicode="&#x201c;" horiz-adv-x="265" d="M214 553l-33 82v66h40v-67l26 -62zM63 635v66h41l-2 -67l28 -62l-33 -19z" />
<glyph unicode="&#x201d;" horiz-adv-x="274" d="M107 553l-33 19l27 62l-1 67h40v-66zM-52 572l26 62l-1 67h42v-66l-35 -82z" />
<glyph unicode="&#x201e;" horiz-adv-x="265" d="M113 -106l-44 19l49 92l4 74h43v-81z" />
<glyph unicode="&#x2022;" horiz-adv-x="319" d="M160 172q-26 0 -45 19t-19 46q0 25 19 44t45 19t45.5 -19t19.5 -44q0 -27 -19.5 -46t-45.5 -19z" />
<glyph unicode="&#x2026;" horiz-adv-x="506" d="M431 -5q-16 0 -28 11.5t-12 28.5q0 16 12 27.5t28 11.5t28 -11.5t12 -27.5q0 -17 -12 -28.5t-28 -11.5zM35 34q0 16 12 27.5t28 11.5t28 -11.5t12 -27.5q0 -17 -12 -28.5t-28 -11.5t-28 11.5t-12 28.5zM213 35q0 16 12 27.5t28 11.5t28 -11.5t12 -27.5q0 -17 -12 -28.5 t-28 -11.5t-28 11.5t-12 28.5z" />
<glyph unicode="&#x202f;" horiz-adv-x="201" />
<glyph unicode="&#x2039;" d="M405 82l-192 191l192 191l26 -21l-156 -170l156 -170z" />
<glyph unicode="&#x203a;" d="M237 82l-24 21l154 170l-154 170l24 21l194 -191z" />
<glyph unicode="&#x2044;" horiz-adv-x="702" d="M75 -2l581 753h31l-581 -753h-31z" />
<glyph unicode="&#x205f;" horiz-adv-x="251" />
<glyph unicode="&#x2070;" horiz-adv-x="369" d="M185 391q63 0 103.5 56t40.5 161t-40.5 160t-103.5 55t-103.5 -55t-40.5 -160t40.5 -161t103.5 -56zM61 608q0 97 35.5 147t88.5 50q54 0 89 -49.5t35 -147.5q0 -96 -36 -147t-88 -51q-53 0 -88.5 51t-35.5 147z" />
<glyph unicode="&#x2074;" horiz-adv-x="343" d="M250 395v98h-229v23l228 303h22v-302h59v-24h-59v-98h-21zM46 517h204v273z" />
<glyph unicode="&#x2075;" horiz-adv-x="290" d="M107 395q-57 10 -92 52l18 10q25 -35 77 -44q50 -8 85.5 18t43.5 74q7 46 -20.5 85t-72.5 46q-52 8 -100 -16l-10 16l43 183h167v-18h-151l-39 -159q45 20 94 11q53 -10 85.5 -54t23.5 -97q-9 -55 -51 -86t-101 -21z" />
<glyph unicode="&#x2076;" horiz-adv-x="270" d="M87 402q-49 24 -65 76t11 96l142 245h24l-117 -200l-12 -9q26 18 63 21t63 -12q43 -26 56.5 -73.5t-11.5 -92.5q-22 -39 -65 -54t-89 3zM51 562q-20 -35 -9.5 -75t46.5 -60q35 -20 75 -9.5t59 46.5q21 35 10 75t-47 60q-35 20 -74.5 9t-59.5 -46z" />
<glyph unicode="&#x2077;" horiz-adv-x="308" d="M28 395l237 402h-221v22h258l-250 -424h-24z" />
<glyph unicode="&#x2078;" horiz-adv-x="295" d="M85 408q-47 24 -60.5 70t13.5 89q22 34 59 49q-42 24 -54.5 68t10.5 84q22 38 67 50t82 -10q40 -22 51.5 -65t-11.5 -82q-15 -27 -43 -44q53 -22 70.5 -71.5t-11.5 -94.5q-25 -41 -76.5 -53.5t-96.5 10.5zM55 557q-22 -35 -10.5 -74t49.5 -59q39 -20 81.5 -9t65.5 46 q31 47 0.5 96.5t-92.5 49.5t-94 -50zM72 759q-27 -47 0 -90.5t78 -43.5q50 0 75 45q19 32 9 68t-42 54t-67 8.5t-53 -41.5z" />
<glyph unicode="&#x2079;" horiz-adv-x="270" d="M183 810q49 -24 65 -76t-11 -97l-142 -244h-24l116 200l7 5q-26 -16 -61.5 -17.5t-59.5 12.5q-43 26 -56 74t11 92q23 39 65.5 54t89.5 -3zM47 748q-20 -36 -9.5 -75.5t46.5 -59.5t75.5 -9t59.5 46t9.5 74.5t-46.5 60.5q-35 20 -75 9.5t-60 -46.5z" />
<glyph unicode="&#x2080;" horiz-adv-x="369" d="M185 -4q63 0 103.5 56t40.5 161t-40.5 160t-103.5 55t-103.5 -55t-40.5 -160t40.5 -161t103.5 -56zM61 213q0 97 35.5 147t88.5 50q54 0 89 -49.5t35 -147.5q0 -96 -36 -147t-88 -51q-53 0 -88.5 51t-35.5 147z" />
<glyph unicode="&#x2081;" horiz-adv-x="255" d="M15 0v18h102v388l-97 -37v17l98 38h20v-406h103v-18h-226z" />
<glyph unicode="&#x2082;" horiz-adv-x="274" d="M10 22q151 153 206 231q38 55 10.5 104t-92.5 49q-30 0 -55 -16t-38 -41l-20 6q16 33 46.5 53t66.5 20q49 0 84 -29t39.5 -70.5t-25.5 -88.5q-37 -52 -194 -218h231v-22h-259v22z" />
<glyph unicode="&#x2083;" horiz-adv-x="270" d="M125 -2q-79 0 -115 70l18 10q34 -58 97 -58q48 0 78 28.5t30 73.5t-32 75.5t-86 30.5h-7v17h7q44 0 66.5 23t22.5 59q0 34 -23 56t-56 22q-25 0 -45.5 -12.5t-27.5 -33.5l-20 3q6 25 31 45t62 20q41 0 70.5 -29.5t29.5 -70.5q0 -31 -16 -55.5t-41 -33.5q36 -10 60.5 -40 t24.5 -76q0 -52 -36 -88t-92 -36z" />
<glyph unicode="&#x2084;" horiz-adv-x="343" d="M250 0v98h-229v23l228 303h22v-302h59v-24h-59v-98h-21zM46 122h204v273z" />
<glyph unicode="&#x2085;" horiz-adv-x="290" d="M107 0q-57 10 -92 52l18 10q25 -35 77 -44q50 -8 85.5 18t43.5 74q7 46 -20.5 85t-72.5 46q-52 8 -100 -16l-10 16l43 183h167v-18h-151l-39 -159q45 20 94 11q53 -10 85.5 -54t23.5 -97q-9 -55 -51 -86t-101 -21z" />
<glyph unicode="&#x2086;" horiz-adv-x="270" d="M87 7q-49 24 -65 76t11 96l142 245h24l-117 -200l-12 -9q26 18 63 21t63 -12q43 -26 56.5 -73.5t-11.5 -92.5q-22 -39 -65 -54t-89 3zM51 167q-20 -35 -9.5 -75t46.5 -60q35 -20 75 -9.5t59 46.5q21 35 10 75t-47 60q-35 20 -74.5 9t-59.5 -46z" />
<glyph unicode="&#x2087;" horiz-adv-x="308" d="M28 0l237 402h-221v22h258l-250 -424h-24z" />
<glyph unicode="&#x2088;" horiz-adv-x="295" d="M85 13q-47 24 -60.5 70t13.5 89q22 34 59 49q-42 24 -54.5 68t10.5 84q22 38 67 50t82 -10q40 -22 51.5 -65t-11.5 -82q-15 -27 -43 -44q53 -22 70.5 -71.5t-11.5 -94.5q-25 -41 -76.5 -53.5t-96.5 10.5zM55 162q-22 -35 -10.5 -74t49.5 -59q39 -20 81.5 -9t65.5 46 q31 47 0.5 96.5t-92.5 49.5t-94 -50zM72 364q-27 -47 0 -90.5t78 -43.5q50 0 75 45q19 32 9 68t-42 54t-67 8.5t-53 -41.5z" />
<glyph unicode="&#x2089;" horiz-adv-x="270" d="M183 415q49 -24 65 -76t-11 -97l-142 -244h-24l116 200l7 5q-26 -16 -61.5 -17.5t-59.5 12.5q-43 26 -56 74t11 92q23 39 65.5 54t89.5 -3zM47 353q-20 -36 -9.5 -75.5t46.5 -59.5t75.5 -9t59.5 46t9.5 74.5t-46.5 60.5q-35 20 -75 9.5t-60 -46.5z" />
<glyph unicode="&#x20ac;" d="M409 -6q-87 0 -160 55t-111 146h-134v52h115q-9 44 -9 102q0 5 -0.5 13t-0.5 12h-105v53h111q23 120 105.5 198.5t188.5 78.5q96 0 177 -63l-23 -23q-65 56 -154 56q-92 0 -165.5 -69t-96.5 -178h287v-53h-292q1 -8 1 -25q0 -52 11 -102h280v-52h-259q33 -78 96 -124.5 t138 -46.5q88 0 154 57l23 -22q-80 -65 -177 -65z" />
<glyph unicode="&#x2116;" horiz-adv-x="1100" d="M996 181h-282v26h282v-26zM80 0v700h35l437 -637v637h35v-700h-33l-440 644v-644h-34zM629 469q0 97 66 161t160 64q95 0 160.5 -63.5t65.5 -161.5q0 -97 -66 -161t-160 -64t-160 64t-66 161zM661 469q0 -86 56.5 -141.5t137.5 -55.5q80 0 137 56t57 141 q0 86 -56.5 141.5t-137.5 55.5t-137.5 -55.5t-56.5 -141.5z" />
<glyph unicode="&#x2122;" horiz-adv-x="700" d="M330 365v386h27l141 -324l140 324h27v-386h-36v293l-114 -260h-35l-114 260v-293h-36zM30 721v30h240v-30h-103v-356h-33v356h-104z" />
<glyph unicode="&#x25fc;" horiz-adv-x="500" d="M0 500h500v-500h-500v500z" />
<glyph unicode="&#xfb01;" horiz-adv-x="558" d="M107 0v468h-101v32h101v86q0 131 116 131q35 0 62.5 -12t38.5 -31l-22 -25q-33 35 -80 35q-79 0 -79 -98v-86h349v-500h-37v468h-312v-468h-36zM419 615q0 22 15 37t38 15q22 0 37 -14.5t15 -37.5t-15 -38t-37 -15t-37.5 15t-15.5 38z" />
<glyph unicode="&#xfb02;" horiz-adv-x="478" d="M262 685q119 0 119 -111v-574h37v571q0 70 -39.5 108t-116.5 38q-76 0 -115.5 -38t-39.5 -108v-71h-101v-32h101v-468h36v468h154v32h-154v69q0 52 29 84t90 32z" />
<glyph unicode="&#xfb04;" horiz-adv-x="724" d="M509 685q119 0 119 -111v-574h36v571q0 70 -39.5 108t-115.5 38q-101 0 -138 -89q-25 89 -119 89q-69 0 -107 -38t-38 -108v-71h-101v-32h101v-468h36v468h210v-468h37v468h153v32h-153v69q0 52 29 84t90 32zM143 500v72q0 51 27 82t82 31q29 0 49.5 -12t30 -26.5t15 -42 t6 -44t0.5 -46.5v-8v-6h-210z" />
<glyph horiz-adv-x="433" d="M199 -2q-65 0 -114 44t-58 109h31q10 -53 49.5 -88t91.5 -35q60 0 97.5 33t37.5 104v536h35v-531q-1 -89 -47.5 -130.5t-122.5 -41.5zM114 756l224 177l31 -51l-240 -148z" />
<glyph horiz-adv-x="171" d="M68 0v500h37v-500h-37zM32 615q0 22 15 37t38 15t37.5 -14.5t14.5 -37.5t-15 -38t-37 -15q-23 0 -38 15t-15 38z" />
<glyph horiz-adv-x="155" d="M-77 -185q62 6 103.5 48.5t41.5 112.5v524h37v-524q0 -84 -51.5 -134.5t-130.5 -58.5v32zM-15 556l224 177l31 -51l-240 -148z" />
<glyph horiz-adv-x="561" d="M501 500v-500h-36v92q-63 -98 -181 -98q-102 0 -175.5 74t-73.5 182q0 110 70.5 183t172.5 73q126 0 187 -99v93h36zM72 250q0 -95 63 -159t149 -64q69 0 116 35t65 83v210q-19 49 -69.5 84t-117.5 35q-86 0 -146 -63t-60 -161z" />
<glyph horiz-adv-x="561" d="M501 500v-500h-36v92q-63 -98 -181 -98q-102 0 -175.5 74t-73.5 182q0 110 70.5 183t172.5 73q126 0 187 -99v93h36zM72 250q0 -95 63 -159t149 -64q69 0 116 35t65 83v210q-19 49 -69.5 84t-117.5 35q-86 0 -146 -63t-60 -161zM176 556l224 177l31 -51l-240 -148z" />
<glyph horiz-adv-x="561" d="M501 500v-500h-36v92q-63 -98 -181 -98q-102 0 -175.5 74t-73.5 182q0 110 70.5 183t172.5 73q126 0 187 -99v93h36zM72 250q0 -95 63 -159t149 -64q69 0 116 35t65 83v210q-19 49 -69.5 84t-117.5 35q-86 0 -146 -63t-60 -161zM90 587l187 83l187 -83l-10 -24l-177 68 l-176 -68z" />
<glyph horiz-adv-x="561" d="M501 500v-500h-36v92q-63 -98 -181 -98q-102 0 -175.5 74t-73.5 182q0 110 70.5 183t172.5 73q126 0 187 -99v93h36zM72 250q0 -95 63 -159t149 -64q69 0 116 35t65 83v210q-19 49 -69.5 84t-117.5 35q-86 0 -146 -63t-60 -161zM81 615q0 22 15 37t38 15q22 0 37 -14.5 t15 -37.5t-15 -38t-37 -15t-37.5 15t-15.5 38zM370 615q0 22 15 37t38 15t37.5 -14.5t14.5 -37.5t-15 -38t-37 -15q-23 0 -38 15t-15 38z" />
<glyph horiz-adv-x="561" d="M501 500v-500h-36v92q-63 -98 -181 -98q-102 0 -175.5 74t-73.5 182q0 110 70.5 183t172.5 73q126 0 187 -99v93h36zM72 250q0 -95 63 -159t149 -64q69 0 116 35t65 83v210q-19 49 -69.5 84t-117.5 35q-86 0 -146 -63t-60 -161zM155 682l31 51l224 -177l-15 -22z" />
<glyph horiz-adv-x="561" d="M501 500v-500h-36v92q-63 -98 -181 -98q-102 0 -175.5 74t-73.5 182q0 110 70.5 183t172.5 73q126 0 187 -99v93h36zM72 250q0 -95 63 -159t149 -64q69 0 116 35t65 83v210q-19 49 -69.5 84t-117.5 35q-86 0 -146 -63t-60 -161zM142 667q0 58 40 98t96 40t95.5 -40 t39.5 -98t-39.5 -97.5t-95.5 -39.5t-96 40t-40 97zM184 667q0 -41 27.5 -67t66.5 -26t66 25.5t27 67.5t-27 68t-66 26t-66.5 -26t-27.5 -68z" />
<glyph horiz-adv-x="561" d="M501 500v-500h-36v92q-63 -98 -181 -98q-102 0 -175.5 74t-73.5 182q0 110 70.5 183t172.5 73q126 0 187 -99v93h36zM72 250q0 -95 63 -159t149 -64q69 0 116 35t65 83v210q-19 49 -69.5 84t-117.5 35q-86 0 -146 -63t-60 -161zM106 593q-4 31 22 58.5t68 27.5 q28 0 76 -28.5t74 -28.5q63 0 61 54h36q-1 -44 -26.5 -65t-65.5 -21q-44 0 -89.5 28.5t-61.5 28.5q-54 0 -61 -54h-33z" />
<glyph horiz-adv-x="961" d="M501 500v-112q28 58 82 91.5t129 33.5q56 0 99.5 -18.5t67 -48t38.5 -65.5t14.5 -71t-5.5 -64h-415q5 -103 63.5 -162t146.5 -59q130 0 177 105l29 -21q-2 -6 -8 -17t-23 -29.5t-38.5 -33.5t-58 -26.5t-78.5 -11.5q-79 0 -135 37.5t-85 101.5v-130h-36v92 q-63 -98 -181 -98q-102 0 -175.5 74t-73.5 182q0 110 70.5 183t172.5 73q126 0 187 -99v93h36zM72 250q0 -95 63 -159t149 -64q69 0 116 35t65 83v210q-19 49 -69.5 84t-117.5 35q-86 0 -146 -63t-60 -161zM511 277h383q8 95 -42.5 150.5t-139.5 55.5q-79 0 -137.5 -53 t-63.5 -153z" />
<glyph horiz-adv-x="609" d="M305 -6q-103 0 -170.5 92.5t-67.5 265.5t67 263.5t171 90.5t170.5 -90.5t66.5 -263.5t-66.5 -265.5t-170.5 -92.5zM101 352q0 -210 102 -292l180 597q-35 19 -78 19q-88 0 -146 -82t-58 -242zM228 44q37 -20 77 -20q87 0 145.5 84.5t58.5 243.5q0 212 -102 289z" />
<glyph horiz-adv-x="369" d="M185 -4q63 0 103.5 56t40.5 161t-40.5 160t-103.5 55t-103.5 -55t-40.5 -160t40.5 -161t103.5 -56zM61 213q0 97 35.5 147t88.5 50q54 0 89 -49.5t35 -147.5q0 -96 -36 -147t-88 -51q-53 0 -88.5 51t-35.5 147z" />
<glyph horiz-adv-x="255" d="M15 0v18h102v388l-97 -37v17l98 38h20v-406h103v-18h-226z" />
<glyph horiz-adv-x="274" d="M10 22q151 153 206 231q38 55 10.5 104t-92.5 49q-30 0 -55 -16t-38 -41l-20 6q16 33 46.5 53t66.5 20q49 0 84 -29t39.5 -70.5t-25.5 -88.5q-37 -52 -194 -218h231v-22h-259v22z" />
<glyph horiz-adv-x="270" d="M125 -2q-79 0 -115 70l18 10q34 -58 97 -58q48 0 78 28.5t30 73.5t-32 75.5t-86 30.5h-7v17h7q44 0 66.5 23t22.5 59q0 34 -23 56t-56 22q-25 0 -45.5 -12.5t-27.5 -33.5l-20 3q6 25 31 45t62 20q41 0 70.5 -29.5t29.5 -70.5q0 -31 -16 -55.5t-41 -33.5q36 -10 60.5 -40 t24.5 -76q0 -52 -36 -88t-92 -36z" />
<glyph horiz-adv-x="343" d="M250 0v98h-229v23l228 303h22v-302h59v-24h-59v-98h-21zM46 122h204v273z" />
<glyph horiz-adv-x="290" d="M107 0q-57 10 -92 52l18 10q25 -35 77 -44q50 -8 85.5 18t43.5 74q7 46 -20.5 85t-72.5 46q-52 8 -100 -16l-10 16l43 183h167v-18h-151l-39 -159q45 20 94 11q53 -10 85.5 -54t23.5 -97q-9 -55 -51 -86t-101 -21z" />
<glyph horiz-adv-x="270" d="M87 7q-49 24 -65 76t11 96l142 245h24l-117 -200l-12 -9q26 18 63 21t63 -12q43 -26 56.5 -73.5t-11.5 -92.5q-22 -39 -65 -54t-89 3zM51 167q-20 -35 -9.5 -75t46.5 -60q35 -20 75 -9.5t59 46.5q21 35 10 75t-47 60q-35 20 -74.5 9t-59.5 -46z" />
<glyph horiz-adv-x="308" d="M28 0l237 402h-221v22h258l-250 -424h-24z" />
<glyph horiz-adv-x="295" d="M85 13q-47 24 -60.5 70t13.5 89q22 34 59 49q-42 24 -54.5 68t10.5 84q22 38 67 50t82 -10q40 -22 51.5 -65t-11.5 -82q-15 -27 -43 -44q53 -22 70.5 -71.5t-11.5 -94.5q-25 -41 -76.5 -53.5t-96.5 10.5zM55 162q-22 -35 -10.5 -74t49.5 -59q39 -20 81.5 -9t65.5 46 q31 47 0.5 96.5t-92.5 49.5t-94 -50zM72 364q-27 -47 0 -90.5t78 -43.5q50 0 75 45q19 32 9 68t-42 54t-67 8.5t-53 -41.5z" />
<glyph horiz-adv-x="270" d="M183 415q49 -24 65 -76t-11 -97l-142 -244h-24l116 200l7 5q-26 -16 -61.5 -17.5t-59.5 12.5q-43 26 -56 74t11 92q23 39 65.5 54t89.5 -3zM47 353q-20 -36 -9.5 -75.5t46.5 -59.5t75.5 -9t59.5 46t9.5 74.5t-46.5 60.5q-35 20 -75 9.5t-60 -46.5z" />
<glyph horiz-adv-x="369" d="M185 391q63 0 103.5 56t40.5 161t-40.5 160t-103.5 55t-103.5 -55t-40.5 -160t40.5 -161t103.5 -56zM61 608q0 97 35.5 147t88.5 50q54 0 89 -49.5t35 -147.5q0 -96 -36 -147t-88 -51q-53 0 -88.5 51t-35.5 147z" />
<glyph horiz-adv-x="255" d="M15 393v18h102v388l-97 -37v17l98 38h20v-406h103v-18h-226z" />
<glyph horiz-adv-x="274" d="M10 417q151 153 206 231q38 55 10.5 104t-92.5 49q-30 0 -55 -16t-38 -41l-20 6q16 33 46.5 53t66.5 20q49 0 84 -29t39.5 -70.5t-25.5 -88.5q-37 -52 -194 -218h231v-22h-259v22z" />
<glyph horiz-adv-x="270" d="M125 393q-79 0 -115 70l18 10q34 -58 97 -58q48 0 78 28.5t30 73.5t-32 75.5t-86 30.5h-7v17h7q44 0 66.5 23t22.5 59q0 34 -23 56t-56 22q-25 0 -45.5 -12.5t-27.5 -33.5l-20 3q6 25 31 45t62 20q41 0 70.5 -29.5t29.5 -70.5q0 -31 -16 -55.5t-41 -33.5q36 -10 60.5 -40 t24.5 -76q0 -52 -36 -88t-92 -36z" />
<glyph horiz-adv-x="343" d="M250 395v98h-229v23l228 303h22v-302h59v-24h-59v-98h-21zM46 517h204v273z" />
<glyph horiz-adv-x="290" d="M107 395q-57 10 -92 52l18 10q25 -35 77 -44q50 -8 85.5 18t43.5 74q7 46 -20.5 85t-72.5 46q-52 8 -100 -16l-10 16l43 183h167v-18h-151l-39 -159q45 20 94 11q53 -10 85.5 -54t23.5 -97q-9 -55 -51 -86t-101 -21z" />
<glyph horiz-adv-x="270" d="M87 402q-49 24 -65 76t11 96l142 245h24l-117 -200l-12 -9q26 18 63 21t63 -12q43 -26 56.5 -73.5t-11.5 -92.5q-22 -39 -65 -54t-89 3zM51 562q-20 -35 -9.5 -75t46.5 -60q35 -20 75 -9.5t59 46.5q21 35 10 75t-47 60q-35 20 -74.5 9t-59.5 -46z" />
<glyph horiz-adv-x="308" d="M28 395l237 402h-221v22h258l-250 -424h-24z" />
<glyph horiz-adv-x="295" d="M85 408q-47 24 -60.5 70t13.5 89q22 34 59 49q-42 24 -54.5 68t10.5 84q22 38 67 50t82 -10q40 -22 51.5 -65t-11.5 -82q-15 -27 -43 -44q53 -22 70.5 -71.5t-11.5 -94.5q-25 -41 -76.5 -53.5t-96.5 10.5zM55 557q-22 -35 -10.5 -74t49.5 -59q39 -20 81.5 -9t65.5 46 q31 47 0.5 96.5t-92.5 49.5t-94 -50zM72 759q-27 -47 0 -90.5t78 -43.5q50 0 75 45q19 32 9 68t-42 54t-67 8.5t-53 -41.5z" />
<glyph horiz-adv-x="270" d="M183 810q49 -24 65 -76t-11 -97l-142 -244h-24l116 200l7 5q-26 -16 -61.5 -17.5t-59.5 12.5q-43 26 -56 74t11 92q23 39 65.5 54t89.5 -3zM47 748q-20 -36 -9.5 -75.5t46.5 -59.5t75.5 -9t59.5 46t9.5 74.5t-46.5 60.5q-35 20 -75 9.5t-60 -46.5z" />
</font>
</defs>
</svg>
