<?xml version="1.0" standalone="no"?>
<!DOCTYPE svg PUBLIC "-//W3C//DTD SVG 1.1//EN" "http://www.w3.org/Graphics/SVG/1.1/DTD/svg11.dtd" >
<svg xmlns="http://www.w3.org/2000/svg" xmlns:xlink="http://www.w3.org/1999/xlink" version="1.1">
<metadata></metadata>
<defs>
<font id="lilgroteskregular" horiz-adv-x="600" >
<font-face units-per-em="1000" ascent="800" descent="-200" />
<missing-glyph horiz-adv-x="290" />
<glyph horiz-adv-x="0" />
<glyph horiz-adv-x="333" />
<glyph unicode="&#xd;" />
<glyph unicode=" "  horiz-adv-x="290" />
<glyph unicode="&#x09;" horiz-adv-x="290" />
<glyph unicode="&#xa0;" horiz-adv-x="290" />
<glyph unicode="!" horiz-adv-x="228" d="M80 241l-15 467h98l-15 -467h-68zM60 48q0 22 16 37.5t38 15.5t38 -15.5t16 -37.5q0 -23 -16 -38.5t-38 -15.5t-38 15.5t-16 38.5z" />
<glyph unicode="&#x22;" horiz-adv-x="360" d="M250 548l-16 218h76l-10 -218h-50zM11 766h76l-10 -218h-50z" />
<glyph unicode="#" horiz-adv-x="678" d="M76 0l49 180h-113v64h130l64 236h-113v64h130l53 196h73l-53 -196h187l55 203h72l-55 -203h111v-64h-129l-64 -236h112v-64h-130l-49 -179h-72l49 179h-186l-48 -180h-73zM215 244h185l65 236h-187z" />
<glyph unicode="$" d="M259 -31q-79 7 -140.5 48t-86.5 83l60 33q22 -38 73 -69.5t119 -31.5q76 0 127.5 35t51.5 104q0 17 -3.5 32.5t-11.5 28t-15.5 22.5t-21.5 19.5t-22.5 15.5t-25.5 13t-24 10t-24.5 9t-20.5 7l-26 10q-38 14 -65 27t-60 35.5t-52.5 54.5t-23.5 72q-7 84 48.5 143.5 t143.5 63.5v76h70v-82q45 -10 84 -34t56 -43l17 -19l-55 -40q-2 3 -6.5 8t-19 18t-31 23t-42 19t-51.5 10q-64 4 -106.5 -37t-37.5 -101q4 -49 44.5 -78.5t110.5 -55.5l26 -10q1 0 24.5 -8.5t33 -12.5t34 -16t37.5 -22t32 -27t29 -35t17.5 -43t7.5 -53q0 -89 -59 -139 t-145 -61v-78h-70v76z" />
<glyph unicode="%" horiz-adv-x="825" d="M185 391q65 0 106.5 56.5t41.5 160.5t-41.5 159t-106.5 55t-107 -55t-42 -159t42 -160.5t107 -56.5zM79 608q0 87 30.5 131.5t75.5 44.5t75 -44.5t30 -131.5t-30.5 -132.5t-74.5 -45.5q-45 0 -75.5 45.5t-30.5 132.5zM109 -2l581 753h63l-581 -753h-63zM492 213 q0 -104 42 -160.5t107 -56.5t106.5 56.5t41.5 160.5t-41.5 159t-106.5 55t-107 -55t-42 -159zM535 213q0 87 30.5 131.5t75.5 44.5t75 -44.5t30 -131.5t-30.5 -132.5t-74.5 -45.5q-45 0 -75.5 45.5t-30.5 132.5z" />
<glyph unicode="&#x26;" horiz-adv-x="690" d="M408 582q0 35 -24.5 57t-54.5 22q-53 0 -78.5 -36t-25.5 -82q0 -57 29 -98q31 12 48.5 19.5t40.5 20.5t35 25.5t21 31t9 40.5zM14 190q0 91 47 142.5t129 86.5q-34 53 -34 127q0 84 51.5 131.5t121.5 47.5q57 0 103.5 -39.5t46.5 -102.5q0 -32 -10.5 -58.5t-25.5 -44 t-42 -34.5t-47.5 -26.5t-55.5 -23.5l177 -186q17 50 18 117h68q0 -96 -33 -172l148 -155h-94l-90 94q-87 -116 -249 -116q-100 0 -164.5 60.5t-64.5 151.5zM84 190q0 -64 45 -106t114 -42q54 0 109 24t92 79l-214 224q-69 -30 -107.5 -70t-38.5 -109z" />
<glyph unicode="'" horiz-adv-x="135" d="M27 548l-16 218h76l-10 -218h-50z" />
<glyph unicode="(" horiz-adv-x="264" d="M178 -127q-5 9 -13.5 25t-31 66.5t-39 101t-30.5 122t-14 137.5t13.5 135t32 120.5t37.5 94t33 64.5l13 22l59 -34q-5 -8 -13 -21.5t-28 -57.5t-35.5 -88.5t-28.5 -109.5t-13 -125q0 -97 30 -202t60 -161l29 -57z" />
<glyph unicode=")" horiz-adv-x="269" d="M50 -95q5 8 13 23t28.5 61.5t36 93.5t28.5 114t13 128q0 60 -12 124t-29.5 111.5t-35 86.5t-29.5 59l-12 21l59 34q5 -8 14 -23t31 -62.5t39 -96t31 -118.5t14 -136t-13 -136.5t-32 -124.5t-38 -98.5t-32 -68.5l-13 -24z" />
<glyph unicode="*" horiz-adv-x="494" d="M246 797l-12 -173l159 65l21 -62l-168 -43l111 -131l-58 -37l-87 142l-87 -142l-58 37l111 131l-168 43l21 62l159 -65l-12 173h68z" />
<glyph unicode="+" d="M256 0v239h-236v64h236v238h70v-238h235v-64h-235v-239h-70z" />
<glyph unicode="," horiz-adv-x="198" d="M-2 -112q77 63 94 106q-21 1 -36.5 16.5t-15.5 37.5t16 37.5t38 15.5t38 -15.5t16 -37.5q0 -45 -34.5 -99t-84.5 -92z" />
<glyph unicode="-" horiz-adv-x="497" d="M66 256v62h366v-62h-366z" />
<glyph unicode="." horiz-adv-x="188" d="M94 -6q-22 0 -38 15.5t-16 38.5q0 22 16 37.5t38 15.5t38 -15.5t16 -37.5q0 -23 -16 -38.5t-38 -15.5z" />
<glyph unicode="/" d="M209 -125l-62 18l255 844l61 -19z" />
<glyph unicode="0" horiz-adv-x="609" d="M305 -6q106 0 175 93t69 265t-68.5 262.5t-175.5 90.5t-176 -90.5t-69 -262.5q0 -171 69.5 -264.5t175.5 -93.5zM130 352q0 144 50 216.5t125 72.5t124.5 -72.5t49.5 -216.5t-50.5 -219t-123.5 -75q-74 0 -124.5 75t-50.5 219z" />
<glyph unicode="1" horiz-adv-x="441" d="M24 0v64h160v561l-152 -64v73l159 66h63v-636h163v-64h-393z" />
<glyph unicode="2" horiz-adv-x="476" d="M18 70q7 7 40.5 41.5t46.5 48t45 47t48.5 51t42.5 46t42 46.5t32.5 38.5t27.5 35.5q53 76 15 144t-127 68q-46 0 -81 -26.5t-50 -69.5l-69 22q21 64 76 104t124 40q50 0 93.5 -18.5t71 -51.5t41 -73.5t4.5 -88t-41 -91.5q-60 -84 -285 -313h345v-70h-442v70z" />
<glyph unicode="3" horiz-adv-x="464" d="M217 -3q-67 0 -122 36t-81 97l63 29q47 -94 140 -94q67 0 108 40t41 103q0 64 -45 107t-124 43h-12v58h12q64 0 96 31.5t32 81.5q0 47 -31 77t-77 30q-39 0 -67.5 -21.5t-36.5 -55.5l-67 11q11 56 55.5 95t115.5 39q73 0 125.5 -51.5t52.5 -123.5q0 -40 -20 -78.5 t-55 -58.5q52 -19 84 -66.5t32 -117.5q0 -88 -61.5 -149.5t-157.5 -61.5z" />
<glyph unicode="4" horiz-adv-x="586" d="M392 0v152h-355v65l355 483h70v-474h98v-74h-98v-152h-70zM124 226h268v373z" />
<glyph unicode="5" horiz-adv-x="498" d="M186 0q-112 18 -165 106l60 33q38 -62 116 -76q70 -11 119.5 25.5t60.5 104.5q10 65 -29.5 119.5t-100.5 64.5q-28 8 -69 1.5t-92 -34.5l-34 56l77 300h296v-64h-241l-53 -209q62 24 127 13q91 -16 147 -91t41 -166q-15 -93 -88 -146t-172 -37z" />
<glyph unicode="6" horiz-adv-x="465" d="M132 23q-74 43 -96.5 126.5t20.5 158.5l227 392h81l-178 -307q40 13 81 10t71 -20q74 -43 97 -125.5t-20 -157.5q-43 -74 -126 -96.5t-157 19.5zM116 272q-28 -49 -13 -104.5t64 -83.5t104 -13t83 64q28 50 13.5 104.5t-64.5 82.5t-104 13.5t-83 -63.5z" />
<glyph unicode="7" horiz-adv-x="539" d="M35 0l372 630h-333v70h455l-413 -700h-81z" />
<glyph unicode="8" horiz-adv-x="497" d="M141 22q-80 42 -103.5 121.5t22.5 152.5q29 46 79 70q-60 42 -76 111t21 133q38 67 115 87.5t144 -17.5q70 -40 90 -113.5t-20 -141.5q-19 -34 -54 -58q78 -42 101 -120.5t-23 -150.5q-44 -70 -131.5 -92t-164.5 18zM119 262q-30 -48 -14 -101.5t68 -81.5 q55 -28 114 -13.5t91 64.5q42 68 -1 134.5t-127 66.5q-87 0 -131 -69zM145 579q-36 -63 0 -123.5t106 -60.5q66 0 102 62q25 43 11.5 92.5t-56.5 74.5t-90.5 12t-72.5 -57z" />
<glyph unicode="9" horiz-adv-x="465" d="M333 673q74 -43 96.5 -126.5t-20.5 -158.5l-227 -392h-81l178 307q-40 -13 -81 -10t-71 20q-74 43 -97 125.5t20 157.5q43 74 126 96.5t157 -19.5zM111 561q-28 -50 -13.5 -104.5t64.5 -82.5t104 -13.5t83 63.5q28 49 13 104.5t-64 83.5t-104 13t-83 -64z" />
<glyph unicode=":" horiz-adv-x="188" d="M94 -6q-22 0 -38 15.5t-16 38.5q0 22 16 37.5t38 15.5t38 -15.5t16 -37.5q0 -23 -16 -38.5t-38 -15.5zM40 458q0 22 16 37.5t38 15.5t38 -15.5t16 -37.5q0 -23 -16 -38.5t-38 -15.5t-38 15.5t-16 38.5z" />
<glyph unicode=";" horiz-adv-x="198" d="M-2 -112q77 63 94 106q-21 1 -36.5 16.5t-15.5 37.5t16 37.5t38 15.5t38 -15.5t16 -37.5q0 -45 -34.5 -99t-84.5 -92zM40 458q0 22 16 37.5t38 15.5t38 -15.5t16 -37.5q0 -23 -16 -38.5t-38 -15.5t-38 15.5t-16 38.5z" />
<glyph unicode="&#x3c;" d="M489 94l-351 173v81l351 173l30 -62l-321 -151l321 -151z" />
<glyph unicode="=" d="M88 388v64h432v-64h-432zM88 128v64h432v-64h-432z" />
<glyph unicode="&#x3e;" d="M137 94l-29 63l320 151l-320 151l29 62l352 -173v-81z" />
<glyph unicode="?" horiz-adv-x="378" d="M72 394q41 13 66.5 23t55 27.5t45 41t18.5 53.5q4 47 -26.5 75.5t-82.5 28.5q-26 0 -48 -14.5t-30 -25t-12 -19.5l-61 35q2 4 5.5 10t16.5 21t28.5 27t41.5 21.5t55 9.5q88 0 138.5 -49t44.5 -126q-11 -123 -176 -185v-157h-70zM67 48q0 22 16 37.5t38 15.5t38 -15.5 t16 -37.5q0 -23 -16 -38.5t-38 -15.5t-38 15.5t-16 38.5z" />
<glyph unicode="@" horiz-adv-x="1110" d="M536 -23q-84 0 -126 43t-42 100q0 164 223 164q52 0 101 -11v46q0 106 -125 106q-81 0 -139 -69l-48 42q72 91 187 91q84 0 139.5 -42.5t55.5 -127.5v-176q0 -106 90 -106q49 0 87 64t38 156q0 182 -117.5 303t-296.5 121t-306 -127.5t-127 -308.5q0 -182 126.5 -309.5 t306.5 -127.5q120 0 231 67l31 -58q-120 -73 -262 -73q-137 0 -253 67.5t-183 183t-67 250.5q0 206 147.5 353t355.5 147t346 -140.5t138 -347.5q0 -114 -56.5 -198t-137.5 -84q-52 0 -84 26t-42 57.5t-10 68.5q0 -60 -57.5 -105t-123.5 -45zM438 128q0 -34 26 -59.5 t72 -25.5q73 0 114.5 46t41.5 131q-42 10 -87 10q-167 0 -167 -102z" />
<glyph unicode="A" horiz-adv-x="646" d="M557 0l-75 193h-318l-75 -193h-74l274 700h68l274 -700h-74zM189 257h268l-134 342z" />
<glyph unicode="B" horiz-adv-x="590" d="M560 218q0 -96 -64.5 -157t-165.5 -61h-250v700h229q68 0 116 -48t48 -116q0 -99 -75 -127q67 -10 114.5 -58.5t47.5 -132.5zM150 64h160q91 0 135.5 42t44.5 112q0 64 -39.5 109t-117.5 45h-183v-308zM150 436h161q92 0 92 100q0 42 -28 71t-66 29h-159v-200z" />
<glyph unicode="C" horiz-adv-x="673" d="M378 -2q-138 0 -235.5 103t-97.5 249q0 66 24 129.5t66.5 112.5t106 79t136.5 30q75 0 140 -32.5t112 -90.5l-54 -41q-81 100 -198 100q-113 0 -188 -86.5t-75 -200.5q0 -120 78 -204t185 -84q126 0 208 114l57 -38q-47 -65 -116 -102.5t-149 -37.5z" />
<glyph unicode="D" horiz-adv-x="638" d="M80 0v700h157q179 0 267.5 -95t88.5 -255q0 -157 -89.5 -253.5t-261.5 -96.5h-162zM150 64h92q141 0 211 76t70 210q0 286 -286 286h-87v-572z" />
<glyph unicode="E" horiz-adv-x="564" d="M80 0v700h452v-64h-382v-250h308v-64h-308v-258h383v-64h-453z" />
<glyph unicode="F" horiz-adv-x="528" d="M80 0v701h433v-64h-363v-251h288v-64h-288v-322h-70z" />
<glyph unicode="G" horiz-adv-x="710" d="M396 -6q-146 0 -248.5 103.5t-102.5 252.5q0 148 102 252t249 104q130 0 227 -83l-52 -47q-79 66 -175 66q-117 0 -199 -85t-82 -207t82.5 -207t198.5 -85q59 0 115.5 25.5t97.5 72.5v131h-189v64h260v-215q-50 -68 -126.5 -105t-157.5 -37z" />
<glyph unicode="H" horiz-adv-x="709" d="M80 0v700h70v-314h409v314h70v-700h-70v322h-409v-322h-70z" />
<glyph unicode="I" horiz-adv-x="230" d="M80 0v700h70v-700h-70z" />
<glyph unicode="J" horiz-adv-x="463" d="M214 -2q-75 0 -128 53t-53 128h70q0 -49 33 -83t78 -34q48 0 78.5 28t30.5 89v522h71v-522q0 -87 -50.5 -134t-129.5 -47z" />
<glyph unicode="K" horiz-adv-x="596" d="M80 0v700h70v-313l336 313h100l-317 -296l311 -404h-89l-273 358l-68 -64v-294h-70z" />
<glyph unicode="L" horiz-adv-x="494" d="M80 0v700h70v-636h324v-64h-394z" />
<glyph unicode="M" horiz-adv-x="849" d="M424 48l-274 519v-567h-70v700h79l265 -501l267 501h78v-700h-70v565z" />
<glyph unicode="N" horiz-adv-x="689" d="M80 0v700h66l392 -571v571h71v-700h-65l-394 575v-575h-70z" />
<glyph unicode="O" horiz-adv-x="793" d="M396 -6q-146 0 -248.5 103.5t-102.5 252.5q0 148 102 252t249 104q146 0 249 -103.5t103 -252.5q0 -82 -31 -150.5t-81.5 -112.5t-112.5 -68.5t-127 -24.5zM115 350q0 -122 82.5 -207t198.5 -85q110 0 196 80.5t86 211.5q0 123 -83 207.5t-199 84.5q-117 0 -199 -85 t-82 -207z" />
<glyph unicode="P" horiz-adv-x="565" d="M80 0v707h257q81 0 136 -57q57 -55 57 -136q0 -79 -57 -135.5t-136 -56.5h-187v-322h-70zM150 386h187q51 0 87 37t36 91q0 55 -36 91q-38 38 -87 38h-187v-257z" />
<glyph unicode="Q" horiz-adv-x="774" d="M344 291h100l156 -144q78 81 78 203q0 123 -83 207.5t-199 84.5q-117 0 -199 -85t-82 -207t82.5 -207t198.5 -85q80 0 151 45zM45 350q0 148 102 252t249 104q146 0 249 -103.5t103 -252.5t-98 -249l109 -101h-100l-62 57q-92 -63 -201 -63q-146 0 -248.5 103.5 t-102.5 252.5z" />
<glyph unicode="R" horiz-adv-x="640" d="M363 420q57 0 86.5 30t29.5 78t-31.5 78t-90.5 30h-207v-216h213zM80 0v700h277q90 0 141 -49t51 -123q0 -67 -42 -115t-114 -56l232 -357h-83l-229 356h-163v-356h-70z" />
<glyph unicode="S" horiz-adv-x="514" d="M249 -6q-68 0 -123.5 28t-90.5 66l52 43q65 -73 162 -73q67 0 113.5 31.5t46.5 90.5q0 15 -3 29t-5.5 24.5t-11.5 21t-13.5 17.5t-18 16t-18.5 12.5t-23 12t-23 10.5t-26 10.5t-25 10.5q-35 14 -61 28.5t-53.5 37t-42.5 54t-15 69.5q0 74 55.5 123.5t130.5 49.5 q109 0 182 -77l-49 -45q-18 18 -32 28t-41 20t-60 10q-49 0 -82.5 -30.5t-33.5 -78.5q0 -45 32 -73t98 -55q31 -13 41 -17t37 -16.5t37 -20t30 -22t28 -28t18.5 -32t14 -41t3.5 -48.5q0 -89 -67.5 -137.5t-162.5 -48.5z" />
<glyph unicode="T" horiz-adv-x="634" d="M282 0v636h-257v64h584v-64h-257v-636h-70z" />
<glyph unicode="U" horiz-adv-x="708" d="M354 -6q-119 0 -196.5 67t-77.5 204v435h70v-435q0 -101 56.5 -154t147.5 -53t147.5 53t56.5 154v435h70v-435q0 -137 -77.5 -204t-196.5 -67z" />
<glyph unicode="V" horiz-adv-x="648" d="M292 0l-272 700h74l230 -593l230 593h74l-271 -700h-65z" />
<glyph unicode="W" horiz-adv-x="957" d="M194 0l-174 700h72l143 -579l206 579h74l206 -580l144 580h72l-174 -700h-73l-212 597l-212 -597h-72z" />
<glyph unicode="X" horiz-adv-x="721" d="M50 700h87l225 -277l226 277h87l-269 -331l300 -369h-87l-259 319l-258 -319h-87l301 372z" />
<glyph unicode="Y" horiz-adv-x="660" d="M295 0v339l-280 361h86l229 -295l229 295h86l-280 -361v-339h-70z" />
<glyph unicode="Z" horiz-adv-x="612" d="M10 0l462 636h-399v64h529l-461 -636h453v-64h-584z" />
<glyph unicode="[" horiz-adv-x="330" d="M40 -142v924h215v-64h-145v-796h145v-64h-215z" />
<glyph unicode="\" d="M391 -125l-254 843l61 19l255 -844z" />
<glyph unicode="]" horiz-adv-x="330" d="M75 -142v64h145v796h-145v64h215v-924h-215z" />
<glyph unicode="^" d="M145 395l-62 30l191 356l192 -356l-62 -30l-130 241z" />
<glyph unicode="_" d="M35 -127v64h513v-64h-513z" />
<glyph unicode="`" d="M417 529l-258 159l45 72l243 -189z" />
<glyph unicode="a" horiz-adv-x="509" d="M208 -6q-84 0 -126 43t-42 100q0 164 223 164q52 0 101 -11v46q0 106 -125 106q-81 0 -139 -69l-48 42q72 91 187 91q84 0 139.5 -42.5t55.5 -127.5v-336h-70v108q-10 -48 -51 -81t-105 -33zM110 145q0 -34 26 -59.5t72 -25.5q73 0 114.5 46t41.5 131q-42 10 -87 10 q-167 0 -167 -102z" />
<glyph unicode="b" horiz-adv-x="576" d="M60 700h70v-271q54 77 162 77q106 0 177.5 -73.5t71.5 -182.5q0 -108 -74.5 -182t-180.5 -74q-103 0 -156 77v-71h-70v700zM130 155q15 -40 55.5 -68.5t100.5 -28.5q76 0 130.5 54.5t54.5 137.5q0 84 -52 138t-127 54q-59 0 -102 -28.5t-60 -70.5v-188z" />
<glyph unicode="c" horiz-adv-x="531" d="M298 -6q-112 0 -187.5 70.5t-75.5 186.5q0 112 75 183.5t188 71.5q60 0 115 -26t81 -74l-52 -45q-16 37 -55.5 59t-88.5 22q-82 0 -137.5 -52.5t-55.5 -138.5q0 -90 55.5 -141.5t137.5 -51.5q100 0 150 78l53 -43q-68 -99 -203 -99z" />
<glyph unicode="d" horiz-adv-x="576" d="M516 700v-700h-70v71q-53 -77 -156 -77q-106 0 -180.5 74t-74.5 182q0 109 71.5 182.5t177.5 73.5q108 0 162 -77v271h70zM105 250q0 -83 54.5 -137.5t130.5 -54.5q60 0 100.5 28.5t55.5 68.5v188q-17 42 -60 70.5t-102 28.5q-75 0 -127 -54t-52 -138z" />
<glyph unicode="e" horiz-adv-x="533" d="M35 260q0 110 64 181.5t178 71.5q121 0 181.5 -82t39.5 -194h-392q6 -88 55.5 -135.5t126.5 -47.5q119 0 159 96l54 -42q-9 -16 -22 -32t-37.5 -37.5t-64.5 -35t-89 -13.5q-121 0 -187 78t-66 192zM107 292h323q5 75 -36 119t-117 44q-68 0 -115 -41.5t-55 -121.5z" />
<glyph unicode="f" horiz-adv-x="344" d="M103 0v436h-94v64h94v71q0 144 128 144q80 0 114 -48l-36 -51q-32 37 -73 37q-63 0 -63 -82v-71h143v-64h-143v-436h-70z" />
<glyph unicode="g" horiz-adv-x="561" d="M272 207q47 0 80 33.5t33 84.5t-33.5 84t-79.5 33t-79 -33t-33 -84t33 -84.5t79 -33.5zM33 -149q0 89 84 140q-78 24 -78 100q0 40 27.5 70.5t73.5 37.5q-50 53 -50 126q0 75 53.5 128t128.5 53q45 0 85 -21l174 10l-11 -78l-100 15q35 -48 35 -107q0 -76 -53.5 -129 t-129.5 -53q-37 0 -80 16q-26 10 -57.5 -3.5t-31.5 -55.5q0 -61 106 -61q10 0 35 0.5t40 0.5q44 0 74.5 -2.5t64.5 -11t54.5 -24t34 -43t13.5 -66.5q0 -86 -68.5 -142t-206.5 -56q-109 0 -163 45t-54 111zM96 -124q-1 -51 35.5 -84t119.5 -33q94 0 149.5 32.5t55.5 97.5 q0 51 -40 69t-119 18q-85 0 -123 4q-32 -11 -54.5 -41t-23.5 -63z" />
<glyph unicode="h" horiz-adv-x="526" d="M50 0v700h70v-304q16 43 60.5 76.5t100.5 33.5q195 0 195 -212v-294h-70v293q0 149 -135 149q-57 0 -100 -38.5t-51 -85.5v-318h-70z" />
<glyph unicode="i" horiz-adv-x="193" d="M62 0v500h70v-500h-70zM32 620q0 26 18.5 44.5t45.5 18.5q26 0 44.5 -18.5t18.5 -44.5q0 -27 -18.5 -45.5t-44.5 -18.5q-27 0 -45.5 18.5t-18.5 45.5z" />
<glyph unicode="j" horiz-adv-x="182" d="M-74 -140q58 0 97 34.5t39 96.5v509h70v-509q0 -91 -60 -143t-146 -52v64zM33 620q0 26 18.5 44.5t45.5 18.5q26 0 44.5 -18.5t18.5 -44.5q0 -27 -18.5 -45.5t-44.5 -18.5q-27 0 -45.5 18.5t-18.5 45.5z" />
<glyph unicode="k" horiz-adv-x="482" d="M60 0v700h70v-375l225 175h112l-216 -169l206 -331h-78l-181 290l-68 -54v-236h-70z" />
<glyph unicode="l" horiz-adv-x="190" d="M60 0v700h70v-700h-70z" />
<glyph unicode="m" horiz-adv-x="882" d="M50 0v500h70v-104q16 43 60.5 76.5t100.5 33.5q151 0 185 -127q19 52 62.5 89.5t108.5 37.5q195 0 195 -212v-294h-70v293q0 149 -135 149q-57 0 -100 -38.5t-51 -85.5v-318h-70v293q0 149 -135 149q-57 0 -100 -38.5t-51 -85.5v-318h-70z" />
<glyph unicode="n" horiz-adv-x="526" d="M50 0v500h70v-104q16 43 60.5 76.5t100.5 33.5q195 0 195 -212v-294h-70v293q0 149 -135 149q-57 0 -100 -38.5t-51 -85.5v-318h-70z" />
<glyph unicode="o" horiz-adv-x="586" d="M293 -6q-108 0 -183 72.5t-75 183.5t75 183.5t183 72.5t183 -72.5t75 -183.5t-74.5 -183.5t-183.5 -72.5zM105 250q0 -85 54.5 -138.5t133.5 -53.5q78 0 133 54t55 138q0 85 -54.5 138.5t-133.5 53.5q-78 0 -133 -53.5t-55 -138.5z" />
<glyph unicode="p" horiz-adv-x="576" d="M60 -200v700h70v-71q53 77 156 77q106 0 180.5 -74t74.5 -182q0 -109 -71.5 -182.5t-177.5 -73.5q-108 0 -162 77v-271h-70zM130 157q17 -42 60 -70.5t102 -28.5q75 0 127 54t52 138q0 83 -54.5 137.5t-130.5 54.5q-60 0 -100.5 -28.5t-55.5 -68.5v-188z" />
<glyph unicode="q" horiz-adv-x="576" d="M516 -200h-70v271q-54 -77 -162 -77q-106 0 -177.5 73.5t-71.5 182.5q0 108 74.5 182t180.5 74q103 0 156 -77v71h70v-700zM105 250q0 -84 52 -138t127 -54q59 0 102 28.5t60 70.5v188q-15 40 -55.5 68.5t-100.5 28.5q-76 0 -130.5 -54.5t-54.5 -137.5z" />
<glyph unicode="r" horiz-adv-x="393" d="M75 0v500h70v-102q12 53 45 80.5t72 27.5q100 0 121 -96l-45 -44q-16 76 -83 76q-44 0 -75 -37.5t-35 -105.5v-299h-70z" />
<glyph unicode="s" horiz-adv-x="408" d="M208 -6q-106 0 -188 86l50 46q54 -68 138 -68q47 0 76 25.5t29 65.5q0 37 -27 60.5t-65.5 36t-77 26t-65.5 40t-27 67.5q0 56 39.5 91.5t105.5 35.5q93 0 152 -71l-50 -45q-42 53 -99 53q-37 0 -57.5 -17.5t-20.5 -46.5q0 -27 27 -44t65.5 -28.5t77 -26.5t65.5 -48 t27 -83q0 -72 -51 -113.5t-124 -41.5z" />
<glyph unicode="t" horiz-adv-x="341" d="M218 -6q-74 0 -101 41t-27 120v288h-80v64h80v193h70v-193h157v-64h-157v-283q0 -51 14 -75.5t49 -24.5q46 0 81 24l30 -56q-49 -34 -116 -34z" />
<glyph unicode="u" horiz-adv-x="526" d="M476 500v-500h-70v104q-16 -43 -60.5 -76.5t-100.5 -33.5q-195 0 -195 212v294h70v-293q0 -149 135 -149q57 0 100 38.5t51 85.5v318h70z" />
<glyph unicode="v" horiz-adv-x="492" d="M217 0l-207 500h75l161 -396l161 396h75l-207 -500h-58z" />
<glyph unicode="w" horiz-adv-x="725" d="M85 500l121 -396l120 396h73l121 -396l120 396h75l-167 -500h-57l-128 389l-129 -389h-57l-167 500h75z" />
<glyph unicode="x" horiz-adv-x="528" d="M5 0l215 254l-209 246h89l167 -197l162 197h88l-206 -249l212 -251h-88l-171 201l-171 -201h-88z" />
<glyph unicode="y" horiz-adv-x="594" d="M100 -200l161 275l-251 425h81l210 -357l209 357h79l-409 -700h-80z" />
<glyph unicode="z" horiz-adv-x="504" d="M40 0v52l317 378h-313v70h420v-46l-323 -384h317v-70h-418z" />
<glyph unicode="{" horiz-adv-x="417" d="M50 350q75 0 95.5 27.5t20.5 89.5q0 23 -3 81t-3 92q0 157 133 157q19 0 38.5 -3.5t30.5 -7.5l10 -3l-17 -62q-26 13 -58 13q-67 0 -67 -94q0 -26 3 -82t3 -84q0 -124 -94 -156q94 -32 94 -156q0 -28 -3 -84t-3 -82q0 -94 67 -94q32 0 58 13l17 -62q-37 -14 -79 -14 q-133 0 -133 157q0 34 3 92t3 81q0 62 -20.5 89.5t-95.5 27.5v64z" />
<glyph unicode="|" d="M292 -164v933h70v-933h-70z" />
<glyph unicode="}" horiz-adv-x="417" d="M367 286q-75 0 -95.5 -27.5t-20.5 -89.5q0 -23 3 -81t3 -92q0 -157 -133 -157q-19 0 -38.5 3.5t-29.5 7.5l-11 3l17 62q26 -13 58 -13q67 0 67 94q0 26 -3 82t-3 84q0 124 94 156q-94 32 -94 156q0 28 3 84t3 82q0 94 -67 94q-32 0 -58 -13l-17 62q37 14 79 14 q133 0 133 -157q0 -34 -3 -92t-3 -81q0 -62 20.5 -89.5t95.5 -27.5v-64z" />
<glyph unicode="~" d="M432 254q-31 0 -58 15.5t-47 37t-39 43.5t-40 37.5t-43 15.5q-28 0 -43 -17.5t-15 -47.5q0 -11 8 -35l-67 -18q-11 22 -11 52q0 62 35 97t96 35q38 0 71.5 -23.5t54 -51t47.5 -51t52 -23.5q52 0 52 60q0 26 -13 44l64 26q20 -34 20 -72q0 -60 -33.5 -92t-90.5 -32z" />
<glyph unicode="&#xa1;" horiz-adv-x="228" d="M80 259h68l15 -467h-98zM60 452q0 23 16 38.5t38 15.5t38 -15.5t16 -38.5q0 -22 -16 -37.5t-38 -15.5t-38 15.5t-16 37.5z" />
<glyph unicode="&#xa2;" horiz-adv-x="559" d="M265 83q-89 16 -147 87t-58 165q0 91 56.5 164t148.5 88v88h70v-87q47 -6 90 -30t71 -58l-55 -41q-53 67 -134 67q-76 0 -126.5 -57t-50.5 -134q0 -79 52.5 -135t124.5 -56q88 0 141 75l57 -37q-28 -39 -73.5 -66.5t-96.5 -34.5v-89h-70v91z" />
<glyph unicode="&#xa3;" d="M442 -26q-59 0 -106.5 21.5t-84.5 42.5t-70 21q-36 0 -61 -16.5t-32 -32.5l-7 -17l-68 18q1 4 3.5 10.5t13.5 24t25 31.5t40.5 27.5t58.5 17.5q26 79 -26 188h-108v64h84q-16 54 -20 105t6.5 99t36.5 83.5t75.5 55.5t116.5 17q40 -2 80 -17.5t63 -42.5l-53 -42 q-29 35 -93 38q-61 3 -100 -22t-52.5 -68t-10 -96t23.5 -110h233v-64h-206q44 -97 21 -191q31 -7 63 -28t68 -37t86 -16q11 0 21 1t17 2.5t13.5 4.5t10.5 5t8 6.5t6 6.5t4 7.5t2.5 6.5t1.5 6l2 6l68 -17l-2 -7q-1 -6 -3 -10.5t-5.5 -13t-9.5 -15.5t-14 -15.5t-19.5 -14.5 t-25.5 -11.5t-33.5 -8.5t-41.5 -3z" />
<glyph unicode="&#xa4;" horiz-adv-x="720" d="M132 70l-50 45l113 114q-41 55 -41 127q0 71 42 129l-114 114l50 46l112 -113q57 41 127 41q71 0 128 -41l112 113l50 -46l-115 -114q43 -57 43 -129q0 -69 -42 -127l114 -114l-50 -45l-111 111q-58 -42 -129 -42q-70 0 -128 42zM224 356q0 -63 43.5 -108t103.5 -45 t104 45t44 108q0 64 -43.5 108.5t-104.5 44.5q-60 0 -103.5 -44.5t-43.5 -108.5z" />
<glyph unicode="&#xa5;" d="M284 0v139h-187v64h187v87h-187v64h157l-245 316l55 39l248 -319l247 319l56 -39l-246 -316h158v-64h-173v-87h173v-64h-173v-139h-70z" />
<glyph unicode="&#xa6;" d="M163 -69v327h70v-327h-70zM163 424v326h70v-326h-70z" />
<glyph unicode="&#xa7;" d="M299 -120q-79 0 -141.5 37t-87.5 77l59 34q20 -31 65 -57.5t105 -26.5q66 0 111 28.5t45 84.5q0 20 -9 38t-18.5 29t-33 23.5t-34 17t-41.5 16t-37 13.5q-31 12 -47 18.5t-44.5 22.5t-44 31t-29.5 39.5t-17 52.5q-8 84 59 138q-52 42 -59 103q-7 79 51.5 132.5 t147.5 48.5q100 -5 183 -88l-54 -41q-61 61 -133 65q-56 2 -93 -31t-32 -81q2 -17 11 -32t19 -24.5t31 -20.5t34.5 -16.5t41.5 -16.5q4 -2 39 -14.5t50 -19t45 -24t44.5 -34t27 -44.5t12.5 -60q0 -73 -56 -122q56 -49 56 -119q0 -60 -35.5 -101.5t-85 -58.5t-105.5 -17z M170 363q2 -21 12.5 -37t34 -30t39 -21t51.5 -22q87 -32 103 -40q45 29 45 85q0 20 -9 38t-18.5 28.5t-32.5 23t-34.5 17.5t-41 15.5t-37.5 13.5q-4 2 -26 11t-34 14q-57 -32 -52 -96z" />
<glyph unicode="&#xa8;" d="M422 556q-27 0 -45.5 18.5t-18.5 45.5q0 26 18.5 44.5t45.5 18.5q26 0 44.5 -18.5t18.5 -44.5q0 -27 -18.5 -45.5t-44.5 -18.5zM69 620q0 26 18.5 44.5t45.5 18.5q26 0 44.5 -18.5t18.5 -44.5q0 -27 -18.5 -45.5t-44.5 -18.5q-27 0 -45.5 18.5t-18.5 45.5z" />
<glyph unicode="&#xa9;" horiz-adv-x="818" d="M409 -19q-153 0 -262 108t-109 261q0 151 109.5 260t261.5 109q102 0 190.5 -53t135.5 -139q45 -81 45 -177q0 -151 -109.5 -260t-261.5 -109zM80 350q0 -97 49 -175q45 -74 119 -116.5t161 -42.5q137 0 233 97.5t96 236.5q0 85 -39 160q-44 80 -121 127t-169 47 q-137 0 -233 -97.5t-96 -236.5zM227 354q0 79 53 138.5t136 59.5q87 0 142 -69l-30 -23q-47 56 -112 56q-64 0 -106.5 -49t-42.5 -113q0 -68 44 -115.5t105 -47.5q71 0 117 64l32 -21q-56 -79 -149 -79q-78 0 -133.5 58.5t-55.5 140.5z" />
<glyph unicode="&#xaa;" horiz-adv-x="373" d="M149 441q-53 0 -82.5 30.5t-29.5 66.5q0 60 43.5 86.5t108.5 26.5q24 0 54 -5v15q0 31 -18 48.5t-47 17.5q-38 0 -76 -36l-44 37q8 10 21 20.5t40.5 22t58.5 11.5q54 0 91.5 -34t37.5 -87v-216h-64v29q-41 -33 -94 -33zM101 538q0 -43 48 -43q44 0 68 26t26 76 q-28 4 -45 4q-51 0 -74 -13.5t-23 -49.5z" />
<glyph unicode="&#xab;" d="M423 67l-208 206l208 206l52 -43l-149 -163l149 -163zM29 273l208 206l52 -43l-149 -163l149 -163l-52 -43z" />
<glyph unicode="&#xac;" horiz-adv-x="744" d="M629 157v222h-581v64h651v-286h-70z" />
<glyph unicode="&#xad;" d="M66 256v62h366v-62h-366z" />
<glyph unicode="&#xae;" horiz-adv-x="818" d="M409 -19q-153 0 -262 108t-109 261q0 151 109.5 260t261.5 109q102 0 190.5 -53t135.5 -139q45 -81 45 -177q0 -151 -109.5 -260t-261.5 -109zM80 350q0 -97 49 -175q45 -74 119 -116.5t161 -42.5q137 0 233 97.5t96 236.5q0 85 -39 160q-44 80 -121 127t-169 47 q-137 0 -233 -97.5t-96 -236.5zM276 155v396h157q51 0 79.5 -28t28.5 -70q0 -38 -23.5 -65t-64.5 -31l131 -202h-47l-129 201h-92v-201h-40zM316 392h120q32 0 49 17t17 44t-18 44t-51 17h-117v-122z" />
<glyph unicode="&#xaf;" d="M162 588v64h278v-64h-278z" />
<glyph unicode="&#xb0;" d="M304 465q-75 0 -128 52t-53 124t53 123.5t128 51.5t128 -51.5t53 -123.5t-53 -124t-128 -52zM150 642q0 -67 45 -109.5t109 -42.5t109 42.5t45 109.5q0 65 -45 107t-109 42t-109 -42t-45 -107z" />
<glyph unicode="&#xb1;" d="M266 163v171h-235v64h235v171h70v-171h236v-64h-236v-171h-70zM31 -32v64h541v-64h-541z" />
<glyph unicode="&#xb2;" horiz-adv-x="289" d="M11 437q167 173 197 215q32 46 9 87t-77 41q-28 0 -49.5 -16t-29.5 -42l-42 14q13 39 46 63t75 24q79 0 114.5 -63.5t-12.5 -132.5q-33 -46 -172 -190h209v-42h-268v42z" />
<glyph unicode="&#xb3;" horiz-adv-x="281" d="M132 393q-41 0 -74.5 22t-49.5 59l39 17q29 -57 85 -57q40 0 65 24.5t25 62.5q0 39 -27.5 65t-75.5 26h-7v35h7q39 0 58.5 19t19.5 50q0 28 -19 46t-46 18q-24 0 -41.5 -13t-22.5 -33l-40 6q7 34 34 58t70 24q44 0 75.5 -31t31.5 -75q0 -25 -12 -48t-33 -35 q31 -12 50.5 -41t19.5 -71q0 -53 -37 -90.5t-95 -37.5z" />
<glyph unicode="&#xb4;" d="M213 529l-30 42l243 189l45 -72z" />
<glyph unicode="&#xb5;" d="M96 -238v713h70v-254q0 -72 26.5 -115.5t99.5 -43.5q53 0 80 32t27 84v297h70v-318q0 -20 5 -38.5t23.5 -36t48.5 -17.5v-64q-78 0 -118 56q-47 -59 -136 -59q-78 0 -126 38v-274h-70z" />
<glyph unicode="&#xb6;" d="M274 -164v572h-44q-77 0 -131 54t-54 130t54 130q56 54 131 54h291v-940h-70v876h-107v-876h-70zM115 592q0 -50 34 -85t81 -35h44v240h-44q-45 0 -82 -35q-33 -33 -33 -85z" />
<glyph unicode="&#xb7;" horiz-adv-x="248" d="M124 195q-22 0 -38 15.5t-16 38.5q0 22 16 37.5t38 15.5t38 -15.5t16 -37.5q0 -23 -16 -38.5t-38 -15.5z" />
<glyph unicode="&#xb8;" d="M311 -99h-80l45 101h26l-18 -58h27q108 0 108 -73q0 -48 -40.5 -73t-93.5 -25q-69 0 -103 29v55q12 -12 40.5 -22.5t62.5 -10.5q32 0 57.5 11.5t25.5 35.5q0 30 -57 30z" />
<glyph unicode="&#xb9;" horiz-adv-x="267" d="M15 393v39h97v340l-93 -39v44l97 40h38v-385h99v-39h-238z" />
<glyph unicode="&#xba;" horiz-adv-x="403" d="M201 439q-72 0 -123 50.5t-51 120.5t51.5 121t122.5 51q72 0 123 -51t51 -121q0 -69 -51 -120t-123 -51zM91 610q0 -48 33 -82.5t77 -34.5t76.5 34.5t32.5 82.5t-32.5 82.5t-76.5 34.5q-43 0 -76.5 -34.5t-33.5 -82.5z" />
<glyph unicode="&#xbb;" horiz-adv-x="595" d="M357 67l-52 43l149 163l-149 163l52 43l208 -206zM119 110l149 163l-149 163l52 43l208 -206l-208 -206z" />
<glyph unicode="&#xbc;" horiz-adv-x="800" d="M60 -2l581 753h63l-581 -753h-63zM30 393v39h97v340l-93 -39v44l97 40h38v-385h99v-39h-238zM409 92v40l216 292h42v-287h59v-45h-59v-92h-42v92h-216zM462 137h163v226z" />
<glyph unicode="&#xbd;" horiz-adv-x="800" d="M60 -2l581 753h63l-581 -753h-63zM30 393v39h97v340l-93 -39v44l97 40h38v-385h99v-39h-238zM462 0v42q167 173 197 215q32 47 9 87.5t-77 40.5q-28 0 -49.5 -16t-29.5 -42l-42 14q13 39 46 63t75 24q79 0 114.5 -63.5t-12.5 -132.5q-33 -46 -172 -190h209v-42h-268z" />
<glyph unicode="&#xbe;" horiz-adv-x="800" d="M60 -2l581 753h63l-581 -753h-63zM8 474l39 17q29 -57 85 -57q40 0 65 24.5t25 62.5q0 39 -27.5 65t-75.5 26h-7v35h7q39 0 58.5 19t19.5 50q0 28 -19 46t-46 18q-24 0 -41.5 -13t-22.5 -33l-40 6q7 34 34 58t70 24q44 0 75.5 -31t31.5 -75q0 -25 -12 -48t-33 -35 q31 -12 50.5 -41t19.5 -71q0 -53 -37 -90.5t-95 -37.5q-41 0 -74.5 22t-49.5 59zM409 92v40l216 292h42v-287h59v-45h-59v-92h-42v92h-216zM462 137h163v226z" />
<glyph unicode="&#xbf;" horiz-adv-x="378" d="M306 106q-41 -13 -66.5 -23t-55 -27.5t-45 -41t-18.5 -53.5q-4 -47 26.5 -75.5t82.5 -28.5q26 0 48 14.5t30 25t12 19.5l61 -35q-2 -4 -5.5 -10t-16.5 -21t-28.5 -27t-41.5 -21.5t-55 -9.5q-88 0 -138.5 49t-44.5 126q11 123 176 185v157h70zM203 452q0 23 16 38.5 t38 15.5t38 -15.5t16 -38.5q0 -22 -16 -37.5t-38 -15.5t-38 15.5t-16 37.5z" />
<glyph unicode="&#xc0;" horiz-adv-x="646" d="M557 0l-75 193h-318l-75 -193h-74l274 700h68l274 -700h-74zM182 888l45 72l243 -189l-30 -42zM189 257h268l-134 342z" />
<glyph unicode="&#xc1;" horiz-adv-x="646" d="M557 0l-75 193h-318l-75 -193h-74l274 700h68l274 -700h-74zM189 257h268l-134 342zM206 771l243 189l45 -72l-258 -159z" />
<glyph unicode="&#xc2;" horiz-adv-x="646" d="M557 0l-75 193h-318l-75 -193h-74l274 700h68l274 -700h-74zM115 805l207 100l207 -100l-23 -48l-184 72l-184 -72zM189 257h268l-134 342z" />
<glyph unicode="&#xc3;" horiz-adv-x="646" d="M557 0l-75 193h-318l-75 -193h-74l274 700h68l274 -700h-74zM136 787q-13 45 17 80.5t83 35.5q37 0 85.5 -28t66.5 -28q51 0 41 54h70q9 -54 -21 -85t-80 -31q-38 0 -68 14t-50.5 28t-34.5 14q-46 0 -41 -54h-68zM189 257h268l-134 342z" />
<glyph unicode="&#xc4;" horiz-adv-x="646" d="M557 0l-75 193h-318l-75 -193h-74l274 700h68l274 -700h-74zM115 820q0 26 18.5 44.5t45.5 18.5q26 0 44.5 -18.5t18.5 -44.5q0 -27 -18.5 -45.5t-44.5 -18.5q-27 0 -45.5 18.5t-18.5 45.5zM189 257h268l-134 342zM404 820q0 26 18.5 44.5t45.5 18.5q26 0 44.5 -18.5 t18.5 -44.5q0 -27 -18.5 -45.5t-44.5 -18.5q-27 0 -45.5 18.5t-18.5 45.5z" />
<glyph unicode="&#xc5;" horiz-adv-x="646" d="M557 0l-75 193h-318l-75 -193h-74l274 700h68l274 -700h-74zM178 874q0 61 42.5 103t102.5 42t102 -42t42 -103q0 -60 -42 -102t-102 -42t-102.5 42t-42.5 102zM189 257h268l-134 342zM248 874q0 -33 21.5 -53.5t53.5 -20.5q31 0 52.5 20.5t21.5 53.5t-21.5 54t-52.5 21 t-53 -21t-22 -54z" />
<glyph unicode="&#xc6;" horiz-adv-x="1102" d="M30 0l551 700h446v-64h-383v-250h308v-64h-308v-258h383v-64h-453v223h-283l-173 -223h-88zM342 287h232v296z" />
<glyph unicode="&#xc7;" horiz-adv-x="673" d="M389 -101h-80l45 100q-130 10 -219.5 111.5t-89.5 239.5q0 66 24 129.5t66.5 112.5t106 79t136.5 30q75 0 140 -32.5t112 -90.5l-54 -41q-81 100 -198 100q-113 0 -188 -86.5t-75 -200.5q0 -120 78 -204t185 -84q126 0 208 114l57 -38q-47 -65 -116 -102.5t-148 -37.5 l-17 -56h27q108 0 108 -73q0 -48 -40.5 -73t-93.5 -25q-69 0 -103 29v55q12 -12 40.5 -22.5t62.5 -10.5q32 0 57.5 11.5t25.5 35.5q0 30 -57 30z" />
<glyph unicode="&#xc8;" horiz-adv-x="564" d="M80 0v700h452v-64h-382v-250h308v-64h-308v-258h383v-64h-453zM168 888l45 72l243 -189l-30 -42z" />
<glyph unicode="&#xc9;" horiz-adv-x="564" d="M80 0v700h452v-64h-382v-250h308v-64h-308v-258h383v-64h-453zM192 771l243 189l45 -72l-258 -159z" />
<glyph unicode="&#xca;" horiz-adv-x="564" d="M80 0v700h452v-64h-382v-250h308v-64h-308v-258h383v-64h-453zM101 805l207 100l207 -100l-23 -48l-184 72l-184 -72z" />
<glyph unicode="&#xcb;" horiz-adv-x="564" d="M80 0v700h452v-64h-382v-250h308v-64h-308v-258h383v-64h-453zM101 820q0 26 18.5 44.5t45.5 18.5q26 0 44.5 -18.5t18.5 -44.5q0 -27 -18.5 -45.5t-44.5 -18.5q-27 0 -45.5 18.5t-18.5 45.5zM390 820q0 26 18.5 44.5t45.5 18.5q26 0 44.5 -18.5t18.5 -44.5 q0 -27 -18.5 -45.5t-44.5 -18.5q-27 0 -45.5 18.5t-18.5 45.5z" />
<glyph unicode="&#xcc;" horiz-adv-x="230" d="M80 0v700h70v-700h-70zM-26 888l45 72l243 -189l-30 -42z" />
<glyph unicode="&#xcd;" horiz-adv-x="230" d="M80 0v700h70v-700h-70zM-2 771l243 189l45 -72l-258 -159z" />
<glyph unicode="&#xce;" horiz-adv-x="230" d="M80 0v700h70v-700h-70zM-93 805l207 100l207 -100l-23 -48l-184 72l-184 -72z" />
<glyph unicode="&#xcf;" horiz-adv-x="230" d="M80 0v700h70v-700h-70zM-93 820q0 26 18.5 44.5t45.5 18.5q26 0 44.5 -18.5t18.5 -44.5q0 -27 -18.5 -45.5t-44.5 -18.5q-27 0 -45.5 18.5t-18.5 45.5zM196 820q0 26 18.5 44.5t45.5 18.5q26 0 44.5 -18.5t18.5 -44.5q0 -27 -18.5 -45.5t-44.5 -18.5q-27 0 -45.5 18.5 t-18.5 45.5z" />
<glyph unicode="&#xd0;" horiz-adv-x="721" d="M176 0v295h-156v62h156v343h137q179 0 267.5 -95t88.5 -255q0 -157 -89.5 -253.5t-261.5 -96.5h-142zM246 64h72q141 0 211 76t70 210q0 286 -286 286h-67v-279h140v-62h-140v-231z" />
<glyph unicode="&#xd1;" horiz-adv-x="689" d="M80 0v700h66l392 -571v571h71v-700h-65l-394 575v-575h-70zM157 787q-13 45 17 80.5t83 35.5q37 0 85.5 -28t66.5 -28q51 0 41 54h70q9 -54 -21 -85t-80 -31q-38 0 -68 14t-50.5 28t-34.5 14q-46 0 -41 -54h-68z" />
<glyph unicode="&#xd2;" horiz-adv-x="793" d="M396 -6q-146 0 -248.5 103.5t-102.5 252.5q0 148 102 252t249 104q146 0 249 -103.5t103 -252.5q0 -82 -31 -150.5t-81.5 -112.5t-112.5 -68.5t-127 -24.5zM115 350q0 -122 82.5 -207t198.5 -85q110 0 196 80.5t86 211.5q0 123 -83 207.5t-199 84.5q-117 0 -199 -85 t-82 -207zM255 888l45 72l243 -189l-30 -42z" />
<glyph unicode="&#xd3;" horiz-adv-x="793" d="M396 -6q-146 0 -248.5 103.5t-102.5 252.5q0 148 102 252t249 104q146 0 249 -103.5t103 -252.5q0 -82 -31 -150.5t-81.5 -112.5t-112.5 -68.5t-127 -24.5zM115 350q0 -122 82.5 -207t198.5 -85q110 0 196 80.5t86 211.5q0 123 -83 207.5t-199 84.5q-117 0 -199 -85 t-82 -207zM279 771l243 189l45 -72l-258 -159z" />
<glyph unicode="&#xd4;" horiz-adv-x="793" d="M396 -6q-146 0 -248.5 103.5t-102.5 252.5q0 148 102 252t249 104q146 0 249 -103.5t103 -252.5q0 -82 -31 -150.5t-81.5 -112.5t-112.5 -68.5t-127 -24.5zM115 350q0 -122 82.5 -207t198.5 -85q110 0 196 80.5t86 211.5q0 123 -83 207.5t-199 84.5q-117 0 -199 -85 t-82 -207zM188 805l207 100l207 -100l-23 -48l-184 72l-184 -72z" />
<glyph unicode="&#xd5;" horiz-adv-x="793" d="M396 -6q-146 0 -248.5 103.5t-102.5 252.5q0 148 102 252t249 104q146 0 249 -103.5t103 -252.5q0 -82 -31 -150.5t-81.5 -112.5t-112.5 -68.5t-127 -24.5zM115 350q0 -122 82.5 -207t198.5 -85q110 0 196 80.5t86 211.5q0 123 -83 207.5t-199 84.5q-117 0 -199 -85 t-82 -207zM209 787q-13 45 17 80.5t83 35.5q37 0 85.5 -28t66.5 -28q51 0 41 54h70q9 -54 -21 -85t-80 -31q-38 0 -68 14t-50.5 28t-34.5 14q-46 0 -41 -54h-68z" />
<glyph unicode="&#xd6;" horiz-adv-x="793" d="M396 -6q-146 0 -248.5 103.5t-102.5 252.5q0 148 102 252t249 104q146 0 249 -103.5t103 -252.5q0 -82 -31 -150.5t-81.5 -112.5t-112.5 -68.5t-127 -24.5zM115 350q0 -122 82.5 -207t198.5 -85q110 0 196 80.5t86 211.5q0 123 -83 207.5t-199 84.5q-117 0 -199 -85 t-82 -207zM188 820q0 26 18.5 44.5t45.5 18.5q26 0 44.5 -18.5t18.5 -44.5q0 -27 -18.5 -45.5t-44.5 -18.5q-27 0 -45.5 18.5t-18.5 45.5zM477 820q0 26 18.5 44.5t45.5 18.5q26 0 44.5 -18.5t18.5 -44.5q0 -27 -18.5 -45.5t-44.5 -18.5q-27 0 -45.5 18.5t-18.5 45.5z" />
<glyph unicode="&#xd7;" horiz-adv-x="609" d="M545 -23l-530 530l50 45l529 -529z" />
<glyph unicode="&#xd8;" horiz-adv-x="774" d="M387 0q-38 0 -70 7l-25 -84l-62 18l26 84q-98 40 -159 128.5t-61 197.5q0 144 102 247.5t249 103.5q39 0 71 -7l27 90l61 -19l-27 -90q98 -40 159 -128t61 -197q0 -106 -53 -188t-132.5 -122.5t-166.5 -40.5zM106 351q0 -87 46.5 -158t121.5 -105l165 545q-28 5 -52 5 q-117 0 -199 -84t-82 -203zM336 69q28 -5 51 -5q109 0 195.5 79.5t86.5 207.5q0 87 -46.5 158t-122.5 105z" />
<glyph unicode="&#xd9;" horiz-adv-x="708" d="M354 -6q-119 0 -196.5 67t-77.5 204v435h70v-435q0 -101 56.5 -154t147.5 -53t147.5 53t56.5 154v435h70v-435q0 -137 -77.5 -204t-196.5 -67zM213 888l45 72l243 -189l-30 -42z" />
<glyph unicode="&#xda;" horiz-adv-x="708" d="M354 -6q-119 0 -196.5 67t-77.5 204v435h70v-435q0 -101 56.5 -154t147.5 -53t147.5 53t56.5 154v435h70v-435q0 -137 -77.5 -204t-196.5 -67zM237 771l243 189l45 -72l-258 -159z" />
<glyph unicode="&#xdb;" horiz-adv-x="708" d="M354 -6q-119 0 -196.5 67t-77.5 204v435h70v-435q0 -101 56.5 -154t147.5 -53t147.5 53t56.5 154v435h70v-435q0 -137 -77.5 -204t-196.5 -67zM146 805l207 100l207 -100l-23 -48l-184 72l-184 -72z" />
<glyph unicode="&#xdc;" horiz-adv-x="708" d="M354 -6q-119 0 -196.5 67t-77.5 204v435h70v-435q0 -101 56.5 -154t147.5 -53t147.5 53t56.5 154v435h70v-435q0 -137 -77.5 -204t-196.5 -67zM146 820q0 26 18.5 44.5t45.5 18.5q26 0 44.5 -18.5t18.5 -44.5q0 -27 -18.5 -45.5t-44.5 -18.5q-27 0 -45.5 18.5t-18.5 45.5 zM435 820q0 26 18.5 44.5t45.5 18.5q26 0 44.5 -18.5t18.5 -44.5q0 -27 -18.5 -45.5t-44.5 -18.5q-27 0 -45.5 18.5t-18.5 45.5z" />
<glyph unicode="&#xdd;" horiz-adv-x="660" d="M295 0v339l-280 361h86l229 -295l229 295h86l-280 -361v-339h-70zM213 771l243 189l45 -72l-258 -159z" />
<glyph unicode="&#xde;" d="M73 0v694h70v-97h187q90 0 155 -63q64 -64 64 -153t-64 -153t-155 -64h-187v-164h-70zM143 228h187q62 0 105.5 44.5t43.5 108.5q0 65 -44 107q-43 45 -105 45h-187v-305z" />
<glyph unicode="&#xdf;" horiz-adv-x="645" d="M50 0v700h346q73 0 125.5 -51t52.5 -120q0 -40 -20 -78.5t-55 -58.5q52 -19 84 -66.5t32 -117.5q0 -88 -61.5 -149.5t-157.5 -61.5q-67 0 -122 36t-81 97l63 29q47 -94 140 -94q67 0 108 40t41 103q0 64 -45 107t-124 43h-12v58h12q64 0 96 31.5t32 81.5q0 44 -31.5 73.5 t-76.5 29.5h-276v-632h-70z" />
<glyph unicode="&#xe0;" horiz-adv-x="509" d="M208 -6q-84 0 -126 43t-42 100q0 164 223 164q52 0 101 -11v46q0 106 -125 106q-81 0 -139 -69l-48 42q72 91 187 91q84 0 139.5 -42.5t55.5 -127.5v-336h-70v108q-10 -48 -51 -81t-105 -33zM110 145q0 -34 26 -59.5t72 -25.5q73 0 114.5 46t41.5 131q-42 10 -87 10 q-167 0 -167 -102zM110 688l45 72l243 -189l-30 -42z" />
<glyph unicode="&#xe1;" horiz-adv-x="509" d="M208 -6q-84 0 -126 43t-42 100q0 164 223 164q52 0 101 -11v46q0 106 -125 106q-81 0 -139 -69l-48 42q72 91 187 91q84 0 139.5 -42.5t55.5 -127.5v-336h-70v108q-10 -48 -51 -81t-105 -33zM110 145q0 -34 26 -59.5t72 -25.5q73 0 114.5 46t41.5 131q-42 10 -87 10 q-167 0 -167 -102zM134 571l243 189l45 -72l-258 -159z" />
<glyph unicode="&#xe2;" horiz-adv-x="509" d="M208 -6q-84 0 -126 43t-42 100q0 164 223 164q52 0 101 -11v46q0 106 -125 106q-81 0 -139 -69l-48 42q72 91 187 91q84 0 139.5 -42.5t55.5 -127.5v-336h-70v108q-10 -48 -51 -81t-105 -33zM43 605l207 100l207 -100l-23 -48l-184 72l-184 -72zM110 145q0 -34 26 -59.5 t72 -25.5q73 0 114.5 46t41.5 131q-42 10 -87 10q-167 0 -167 -102z" />
<glyph unicode="&#xe3;" horiz-adv-x="509" d="M208 -6q-84 0 -126 43t-42 100q0 164 223 164q52 0 101 -11v46q0 106 -125 106q-81 0 -139 -69l-48 42q72 91 187 91q84 0 139.5 -42.5t55.5 -127.5v-336h-70v108q-10 -48 -51 -81t-105 -33zM64 587q-13 45 17 80.5t83 35.5q37 0 85.5 -28t66.5 -28q51 0 41 54h70 q9 -54 -21 -85t-80 -31q-38 0 -68 14t-50.5 28t-34.5 14q-46 0 -41 -54h-68zM110 145q0 -34 26 -59.5t72 -25.5q73 0 114.5 46t41.5 131q-42 10 -87 10q-167 0 -167 -102z" />
<glyph unicode="&#xe4;" horiz-adv-x="509" d="M208 -6q-84 0 -126 43t-42 100q0 164 223 164q52 0 101 -11v46q0 106 -125 106q-81 0 -139 -69l-48 42q72 91 187 91q84 0 139.5 -42.5t55.5 -127.5v-336h-70v108q-10 -48 -51 -81t-105 -33zM43 620q0 26 18.5 44.5t45.5 18.5q26 0 44.5 -18.5t18.5 -44.5 q0 -27 -18.5 -45.5t-44.5 -18.5q-27 0 -45.5 18.5t-18.5 45.5zM110 145q0 -34 26 -59.5t72 -25.5q73 0 114.5 46t41.5 131q-42 10 -87 10q-167 0 -167 -102zM332 620q0 26 18.5 44.5t45.5 18.5q26 0 44.5 -18.5t18.5 -44.5q0 -27 -18.5 -45.5t-44.5 -18.5q-27 0 -45.5 18.5 t-18.5 45.5z" />
<glyph unicode="&#xe5;" horiz-adv-x="509" d="M208 -6q-84 0 -126 43t-42 100q0 164 223 164q52 0 101 -11v46q0 106 -125 106q-81 0 -139 -69l-48 42q72 91 187 91q84 0 139.5 -42.5t55.5 -127.5v-336h-70v108q-10 -48 -51 -81t-105 -33zM106 674q0 61 42.5 103t102.5 42t102 -42t42 -103q0 -60 -42 -102t-102 -42 t-102.5 42t-42.5 102zM110 145q0 -34 26 -59.5t72 -25.5q73 0 114.5 46t41.5 131q-42 10 -87 10q-167 0 -167 -102zM176 674q0 -33 21.5 -53.5t53.5 -20.5q31 0 52.5 20.5t21.5 53.5t-21.5 54t-52.5 21t-53 -21t-22 -54z" />
<glyph unicode="&#xe6;" horiz-adv-x="890" d="M628 -10q-147 0 -216 119q-12 -24 -32 -47q-61 -68 -172 -68q-77 0 -119 43.5t-42 99.5q0 166 223 166q52 0 101 -11v37q0 54 -32.5 85t-84.5 31q-63 0 -121 -51l-49 42q65 73 170 73q55 0 100 -25.5t67 -70.5q71 105 205 105q114 0 175 -74q56 -67 38 -197h-394 q2 -83 50 -138t133 -55q107 0 157 100l57 -47q-32 -52 -87.5 -84.5t-126.5 -32.5zM117 137q0 -33 23 -56t68 -23q79 0 121 46.5t42 132.5q-41 9 -87 9q-83 0 -125 -24.5t-42 -84.5zM450 308h326q7 64 -36 105t-114 41t-116.5 -40.5t-59.5 -105.5z" />
<glyph unicode="&#xe7;" horiz-adv-x="531" d="M298 -6q-12 0 -38 2l-16 -52h27q108 0 108 -73q0 -48 -40.5 -73t-93.5 -25q-69 0 -103 29v55q12 -12 40.5 -22.5t62.5 -10.5q32 0 57.5 11.5t25.5 35.5q0 30 -57 30h-80l44 99q-89 19 -144.5 85.5t-55.5 165.5q0 112 75 183.5t188 71.5q60 0 115 -26t81 -74l-52 -45 q-16 37 -55.5 59t-88.5 22q-82 0 -137.5 -52.5t-55.5 -138.5q0 -90 55.5 -141.5t137.5 -51.5q100 0 150 78l53 -43q-68 -99 -203 -99z" />
<glyph unicode="&#xe8;" horiz-adv-x="533" d="M403 529l-258 159l45 72l243 -189zM35 260q0 110 64 181.5t178 71.5q121 0 181.5 -82t39.5 -194h-392q6 -88 55.5 -135.5t126.5 -47.5q119 0 159 96l54 -42q-9 -16 -22 -32t-37.5 -37.5t-64.5 -35t-89 -13.5q-121 0 -187 78t-66 192zM107 292h323q5 75 -36 119t-117 44 q-68 0 -115 -41.5t-55 -121.5z" />
<glyph unicode="&#xe9;" horiz-adv-x="533" d="M199 529l-30 42l243 189l45 -72zM35 260q0 110 64 181.5t178 71.5q121 0 181.5 -82t39.5 -194h-392q6 -88 55.5 -135.5t126.5 -47.5q119 0 159 96l54 -42q-9 -16 -22 -32t-37.5 -37.5t-64.5 -35t-89 -13.5q-121 0 -187 78t-66 192zM107 292h323q5 75 -36 119t-117 44 q-68 0 -115 -41.5t-55 -121.5z" />
<glyph unicode="&#xea;" horiz-adv-x="533" d="M285 705l207 -100l-23 -48l-184 72l-184 -72l-23 48zM35 260q0 110 64 181.5t178 71.5q121 0 181.5 -82t39.5 -194h-392q6 -88 55.5 -135.5t126.5 -47.5q119 0 159 96l54 -42q-9 -16 -22 -32t-37.5 -37.5t-64.5 -35t-89 -13.5q-121 0 -187 78t-66 192zM107 292h323 q5 75 -36 119t-117 44q-68 0 -115 -41.5t-55 -121.5z" />
<glyph unicode="&#xeb;" horiz-adv-x="533" d="M431 556q-27 0 -45.5 18.5t-18.5 45.5q0 26 18.5 44.5t45.5 18.5q26 0 44.5 -18.5t18.5 -44.5q0 -27 -18.5 -45.5t-44.5 -18.5zM35 260q0 110 64 181.5t178 71.5q121 0 181.5 -82t39.5 -194h-392q6 -88 55.5 -135.5t126.5 -47.5q119 0 159 96l54 -42q-9 -16 -22 -32 t-37.5 -37.5t-64.5 -35t-89 -13.5q-121 0 -187 78t-66 192zM78 620q0 26 18.5 44.5t45.5 18.5q26 0 44.5 -18.5t18.5 -44.5q0 -27 -18.5 -45.5t-44.5 -18.5q-27 0 -45.5 18.5t-18.5 45.5zM107 292h323q5 75 -36 119t-117 44q-68 0 -115 -41.5t-55 -121.5z" />
<glyph unicode="&#xec;" horiz-adv-x="193" d="M62 0v500h70v-500h-70zM-45 688l45 72l243 -189l-30 -42z" />
<glyph unicode="&#xed;" horiz-adv-x="193" d="M62 0v500h70v-500h-70zM-21 571l243 189l45 -72l-258 -159z" />
<glyph unicode="&#xee;" horiz-adv-x="193" d="M62 0v500h70v-500h-70zM-112 605l207 100l207 -100l-23 -48l-184 72l-184 -72z" />
<glyph unicode="&#xef;" horiz-adv-x="193" d="M62 0v500h70v-500h-70zM-112 620q0 26 18.5 44.5t45.5 18.5q26 0 44.5 -18.5t18.5 -44.5q0 -27 -18.5 -45.5t-44.5 -18.5q-27 0 -45.5 18.5t-18.5 45.5zM177 620q0 26 18.5 44.5t45.5 18.5q26 0 44.5 -18.5t18.5 -44.5q0 -27 -18.5 -45.5t-44.5 -18.5q-27 0 -45.5 18.5 t-18.5 45.5z" />
<glyph unicode="&#xf0;" d="M294 -9q-83 0 -142 70t-59 168q0 95 57 166.5t144 71.5q51 0 96 -28q-41 108 -114 168l-44 -51l-53 42l40 46q-59 30 -129 30v64q95 0 174 -42l78 90l53 -42l-75 -86q83 -68 129 -181t46 -248q0 -95 -57.5 -166.5t-143.5 -71.5zM163 229q0 -73 39.5 -123.5t91.5 -50.5 q57 0 94 54t37 120q0 73 -39.5 123.5t-91.5 50.5q-56 0 -93.5 -53t-37.5 -121z" />
<glyph unicode="&#xf1;" horiz-adv-x="526" d="M50 0v500h70v-104q16 43 60.5 76.5t100.5 33.5q195 0 195 -212v-294h-70v293q0 149 -135 149q-57 0 -100 -38.5t-51 -85.5v-318h-70zM71 587q-13 45 17 80.5t83 35.5q37 0 85.5 -28t66.5 -28q51 0 41 54h70q9 -54 -21 -85t-80 -31q-38 0 -68 14t-50.5 28t-34.5 14 q-46 0 -41 -54h-68z" />
<glyph unicode="&#xf2;" horiz-adv-x="586" d="M293 -6q-108 0 -183 72.5t-75 183.5t75 183.5t183 72.5t183 -72.5t75 -183.5t-74.5 -183.5t-183.5 -72.5zM105 250q0 -85 54.5 -138.5t133.5 -53.5q78 0 133 54t55 138q0 85 -54.5 138.5t-133.5 53.5q-78 0 -133 -53.5t-55 -138.5zM152 688l45 72l243 -189l-30 -42z" />
<glyph unicode="&#xf3;" horiz-adv-x="586" d="M293 -6q-108 0 -183 72.5t-75 183.5t75 183.5t183 72.5t183 -72.5t75 -183.5t-74.5 -183.5t-183.5 -72.5zM105 250q0 -85 54.5 -138.5t133.5 -53.5q78 0 133 54t55 138q0 85 -54.5 138.5t-133.5 53.5q-78 0 -133 -53.5t-55 -138.5zM176 571l243 189l45 -72l-258 -159z " />
<glyph unicode="&#xf4;" horiz-adv-x="586" d="M293 -6q-108 0 -183 72.5t-75 183.5t75 183.5t183 72.5t183 -72.5t75 -183.5t-74.5 -183.5t-183.5 -72.5zM85 605l207 100l207 -100l-23 -48l-184 72l-184 -72zM105 250q0 -85 54.5 -138.5t133.5 -53.5q78 0 133 54t55 138q0 85 -54.5 138.5t-133.5 53.5 q-78 0 -133 -53.5t-55 -138.5z" />
<glyph unicode="&#xf5;" horiz-adv-x="586" d="M293 -6q-108 0 -183 72.5t-75 183.5t75 183.5t183 72.5t183 -72.5t75 -183.5t-74.5 -183.5t-183.5 -72.5zM105 250q0 -85 54.5 -138.5t133.5 -53.5q78 0 133 54t55 138q0 85 -54.5 138.5t-133.5 53.5q-78 0 -133 -53.5t-55 -138.5zM106 587q-13 45 17 80.5t83 35.5 q37 0 85.5 -28t66.5 -28q51 0 41 54h70q9 -54 -21 -85t-80 -31q-38 0 -68 14t-50.5 28t-34.5 14q-46 0 -41 -54h-68z" />
<glyph unicode="&#xf6;" horiz-adv-x="586" d="M293 -6q-108 0 -183 72.5t-75 183.5t75 183.5t183 72.5t183 -72.5t75 -183.5t-74.5 -183.5t-183.5 -72.5zM85 620q0 26 18.5 44.5t45.5 18.5q26 0 44.5 -18.5t18.5 -44.5q0 -27 -18.5 -45.5t-44.5 -18.5q-27 0 -45.5 18.5t-18.5 45.5zM105 250q0 -85 54.5 -138.5 t133.5 -53.5q78 0 133 54t55 138q0 85 -54.5 138.5t-133.5 53.5q-78 0 -133 -53.5t-55 -138.5zM374 620q0 26 18.5 44.5t45.5 18.5q26 0 44.5 -18.5t18.5 -44.5q0 -27 -18.5 -45.5t-44.5 -18.5q-27 0 -45.5 18.5t-18.5 45.5z" />
<glyph unicode="&#xf7;" d="M36 275v64h539v-64h-539zM237 63q0 26 18.5 44t44.5 18t44.5 -18t18.5 -44t-18.5 -44.5t-44.5 -18.5t-44.5 18.5t-18.5 44.5zM237 520q0 26 18.5 44.5t44.5 18.5t44.5 -18.5t18.5 -44.5t-18.5 -44t-44.5 -18t-44.5 18t-18.5 44z" />
<glyph unicode="&#xf8;" horiz-adv-x="591" d="M207 -125l-60 16l43 131q-69 31 -111 95t-42 142q0 107 76 183t182 76q29 0 57 -6l42 128l60 -16l-44 -133q65 -33 104 -95t39 -137q0 -107 -75.5 -183t-182.5 -76q-26 0 -45 4zM107 259q0 -57 28.5 -103t75.5 -71l120 365q-15 4 -36 4q-76 0 -132 -57t-56 -138zM270 66 q16 -2 25 -2q77 0 132.5 57t55.5 138q0 54 -25.5 98.5t-68.5 70.5z" />
<glyph unicode="&#xf9;" horiz-adv-x="526" d="M476 500v-500h-70v104q-16 -43 -60.5 -76.5t-100.5 -33.5q-195 0 -195 212v294h70v-293q0 -149 135 -149q57 0 100 38.5t51 85.5v318h70zM127 688l45 72l243 -189l-30 -42z" />
<glyph unicode="&#xfa;" horiz-adv-x="526" d="M476 500v-500h-70v104q-16 -43 -60.5 -76.5t-100.5 -33.5q-195 0 -195 212v294h70v-293q0 -149 135 -149q57 0 100 38.5t51 85.5v318h70zM151 571l243 189l45 -72l-258 -159z" />
<glyph unicode="&#xfb;" horiz-adv-x="526" d="M476 500v-500h-70v104q-16 -43 -60.5 -76.5t-100.5 -33.5q-195 0 -195 212v294h70v-293q0 -149 135 -149q57 0 100 38.5t51 85.5v318h70zM60 605l207 100l207 -100l-23 -48l-184 72l-184 -72z" />
<glyph unicode="&#xfc;" horiz-adv-x="526" d="M476 500v-500h-70v104q-16 -43 -60.5 -76.5t-100.5 -33.5q-195 0 -195 212v294h70v-293q0 -149 135 -149q57 0 100 38.5t51 85.5v318h70zM60 620q0 26 18.5 44.5t45.5 18.5q26 0 44.5 -18.5t18.5 -44.5q0 -27 -18.5 -45.5t-44.5 -18.5q-27 0 -45.5 18.5t-18.5 45.5z M349 620q0 26 18.5 44.5t45.5 18.5q26 0 44.5 -18.5t18.5 -44.5q0 -27 -18.5 -45.5t-44.5 -18.5q-27 0 -45.5 18.5t-18.5 45.5z" />
<glyph unicode="&#xfd;" horiz-adv-x="594" d="M100 -200l161 275l-251 425h81l210 -357l209 357h79l-409 -700h-80zM180 571l243 189l45 -72l-258 -159z" />
<glyph unicode="&#xfe;" horiz-adv-x="566" d="M50 -200v900h70v-271q53 77 156 77q106 0 180.5 -74t74.5 -182q0 -109 -71.5 -182.5t-177.5 -73.5q-108 0 -162 77v-271h-70zM120 157q17 -42 60 -70.5t102 -28.5q75 0 127 54t52 138q0 83 -54.5 137.5t-130.5 54.5q-60 0 -100.5 -28.5t-55.5 -68.5v-188z" />
<glyph unicode="&#xff;" horiz-adv-x="594" d="M100 -200l161 275l-251 425h81l210 -357l209 357h79l-409 -700h-80zM89 620q0 26 18.5 44.5t45.5 18.5q26 0 44.5 -18.5t18.5 -44.5q0 -27 -18.5 -45.5t-44.5 -18.5q-27 0 -45.5 18.5t-18.5 45.5zM378 620q0 26 18.5 44.5t45.5 18.5q26 0 44.5 -18.5t18.5 -44.5 q0 -27 -18.5 -45.5t-44.5 -18.5q-27 0 -45.5 18.5t-18.5 45.5z" />
<glyph unicode="&#x13f;" horiz-adv-x="494" d="M80 0v700h70v-636h324v-64h-394z" />
<glyph unicode="&#x140;" horiz-adv-x="419" d="M60 0v700h70v-700h-70z" />
<glyph unicode="&#x152;" horiz-adv-x="1065" d="M387 0q-145 0 -248 103t-103 248q0 144 102 247.5t249 103.5q106 0 194 -58v56h452v-64h-382v-250h308v-64h-308v-258h383v-64h-453v58q-90 -58 -194 -58zM106 351q0 -119 83 -203t198 -84q111 0 194 78v417q-82 79 -194 79q-117 0 -199 -84t-82 -203z" />
<glyph unicode="&#x153;" horiz-adv-x="1001" d="M739 -10q-80 0 -137 36.5t-87 97.5q-34 -57 -92.5 -90.5t-127.5 -33.5q-107 0 -182.5 76t-75.5 183t76 183t182 76q70 0 129.5 -35t93.5 -94q31 59 87 94t133 35q112 0 175 -74q55 -66 37 -197h-394q2 -83 50 -138t133 -55q107 0 157 100l58 -47q-32 -52 -87.5 -84.5 t-127.5 -32.5zM107 259q0 -81 55.5 -138t132.5 -57t132.5 57t55.5 138t-55.5 138t-132.5 57q-76 0 -132 -57t-56 -138zM562 308h325q7 65 -35.5 105.5t-113.5 40.5t-116.5 -40.5t-59.5 -105.5z" />
<glyph unicode="&#x178;" horiz-adv-x="660" d="M295 0v339l-280 361h86l229 -295l229 295h86l-280 -361v-339h-70zM122 820q0 26 18.5 44.5t45.5 18.5q26 0 44.5 -18.5t18.5 -44.5q0 -27 -18.5 -45.5t-44.5 -18.5q-27 0 -45.5 18.5t-18.5 45.5zM411 820q0 26 18.5 44.5t45.5 18.5q26 0 44.5 -18.5t18.5 -44.5 q0 -27 -18.5 -45.5t-44.5 -18.5q-27 0 -45.5 18.5t-18.5 45.5z" />
<glyph unicode="&#x237;" horiz-adv-x="182" d="M-74 -140q58 0 97 34.5t39 96.5v509h70v-509q0 -91 -60 -143t-146 -52v64z" />
<glyph unicode="&#x2c6;" d="M283 705l207 -100l-23 -48l-184 72l-184 -72l-23 48z" />
<glyph unicode="&#x2dc;" d="M222 641q-46 0 -41 -54h-68q-13 45 17 80.5t83 35.5q37 0 85.5 -28t66.5 -28q51 0 41 54h70q9 -54 -21 -85t-80 -31q-38 0 -68 14t-50.5 28t-34.5 14z" />
<glyph unicode="&#x2000;" horiz-adv-x="509" />
<glyph unicode="&#x2001;" horiz-adv-x="1019" />
<glyph unicode="&#x2002;" horiz-adv-x="509" />
<glyph unicode="&#x2003;" horiz-adv-x="1019" />
<glyph unicode="&#x2004;" horiz-adv-x="339" />
<glyph unicode="&#x2005;" horiz-adv-x="254" />
<glyph unicode="&#x2006;" horiz-adv-x="169" />
<glyph unicode="&#x2007;" horiz-adv-x="169" />
<glyph unicode="&#x2008;" horiz-adv-x="127" />
<glyph unicode="&#x2009;" horiz-adv-x="203" />
<glyph unicode="&#x200a;" horiz-adv-x="56" />
<glyph unicode="&#x2010;" horiz-adv-x="497" d="M66 256v62h366v-62h-366z" />
<glyph unicode="&#x2011;" horiz-adv-x="497" d="M66 256v62h366v-62h-366z" />
<glyph unicode="&#x2012;" horiz-adv-x="497" d="M66 256v62h366v-62h-366z" />
<glyph unicode="&#x2013;" d="M113 283v64h390v-64h-390z" />
<glyph unicode="&#x2014;" horiz-adv-x="906" d="M14 283v64h877v-64h-877z" />
<glyph unicode="&#x2018;" horiz-adv-x="169" d="M80 541l-40 95v84h67l-4 -80l26 -72z" />
<glyph unicode="&#x2019;" horiz-adv-x="282" d="M103 516q28 12 37 36t9 70v9h-63v108h121v-117q0 -125 -104 -147v41z" />
<glyph unicode="&#x201a;" horiz-adv-x="311" d="M121 -126l-63 28l52 105v84h71v-98z" />
<glyph unicode="&#x201c;" horiz-adv-x="336" d="M246 541l-39 95v84h66l-3 -80l26 -72zM60 636v84h66l-4 -80l27 -72l-50 -27z" />
<glyph unicode="&#x201d;" horiz-adv-x="342" d="M181 541l-50 27l27 72l-4 80h66v-84zM-21 568l26 72l-4 80h67v-84l-40 -95z" />
<glyph unicode="&#x201e;" horiz-adv-x="281" d="M121 -126l-63 28l52 105v84h71v-98z" />
<glyph unicode="&#x2022;" horiz-adv-x="374" d="M187 172q-35 0 -61 25t-26 62q0 35 26 60.5t61 25.5t61 -25.5t26 -60.5q0 -37 -25.5 -62t-61.5 -25z" />
<glyph unicode="&#x2026;" horiz-adv-x="614" d="M520 -5q-22 0 -38 15.5t-16 38.5q0 22 16 37.5t38 15.5t38 -15.5t16 -37.5q0 -23 -16 -38.5t-38 -15.5zM40 48q0 22 16 37.5t38 15.5t38 -15.5t16 -37.5q0 -23 -16 -38.5t-38 -15.5t-38 15.5t-16 38.5zM253 49q0 22 16 37.5t38 15.5t38 -15.5t16 -37.5q0 -23 -16 -38.5 t-38 -15.5t-38 15.5t-16 38.5z" />
<glyph unicode="&#x202f;" horiz-adv-x="203" />
<glyph unicode="&#x2039;" d="M397 67l-208 206l208 206l52 -43l-149 -163l149 -163z" />
<glyph unicode="&#x203a;" d="M240 67l-51 43l148 163l-148 163l51 43l209 -206z" />
<glyph unicode="&#x2044;" horiz-adv-x="727" d="M60 -2l581 753h63l-581 -753h-63z" />
<glyph unicode="&#x205f;" horiz-adv-x="254" />
<glyph unicode="&#x2070;" horiz-adv-x="369" d="M185 391q65 0 106.5 56.5t41.5 160.5t-41.5 159t-106.5 55t-107 -55t-42 -159t42 -160.5t107 -56.5zM79 608q0 87 30.5 131.5t75.5 44.5t75 -44.5t30 -131.5t-30.5 -132.5t-74.5 -45.5q-45 0 -75.5 45.5t-30.5 132.5z" />
<glyph unicode="&#x2074;" horiz-adv-x="355" d="M238 395v92h-216v40l216 292h42v-287h59v-45h-59v-92h-42zM75 532h163v226z" />
<glyph unicode="&#x2075;" horiz-adv-x="302" d="M113 395q-69 11 -100 64l36 20q23 -38 70 -46q42 -7 72 15.5t37 63.5q7 39 -17 72.5t-61 38.5q-46 9 -98 -20l-20 34l46 182h180v-39h-146l-33 -126q37 14 77 8q56 -10 89.5 -55.5t24.5 -100.5q-9 -57 -53 -89t-104 -22z" />
<glyph unicode="&#x2076;" horiz-adv-x="282" d="M80 409q-45 26 -58.5 76.5t12.5 96.5l138 237h49l-107 -186q50 18 91 -6q45 -25 59 -75.5t-12 -95.5t-76.5 -59t-95.5 12zM70 560q-17 -30 -8 -63.5t39 -50.5t63.5 -8t50.5 39t8 63t-39 50t-63.5 8t-50.5 -38z" />
<glyph unicode="&#x2077;" horiz-adv-x="327" d="M21 395l226 382h-202v42h276l-251 -424h-49z" />
<glyph unicode="&#x2078;" horiz-adv-x="301" d="M85 408q-48 26 -62.5 74t13.5 92q18 28 48 43q-36 26 -45.5 67.5t12.5 80.5q23 40 70 52.5t87 -10.5q42 -24 54 -68.5t-12 -85.5q-12 -20 -32 -36q47 -26 61 -73t-14 -91q-27 -43 -80 -56t-100 11zM72 554q-18 -29 -8.5 -62t41.5 -49q33 -17 69 -8t55 39q26 41 0 81.5 t-77 40.5q-53 0 -80 -42zM88 746q-22 -38 0 -75t64 -37q40 0 62 38q15 26 7 56t-34 45t-55 7.5t-44 -34.5z" />
<glyph unicode="&#x2079;" horiz-adv-x="282" d="M202 803q45 -26 58.5 -76.5t-12.5 -96.5l-138 -237h-49l108 185q-52 -16 -92 7q-45 25 -59 75.5t12 95.5t76.5 59t95.5 -12zM67 735q-17 -30 -8 -63t39 -50t63 -8t51 38q17 30 8 63.5t-39 50.5t-63.5 8t-50.5 -39z" />
<glyph unicode="&#x2080;" horiz-adv-x="369" d="M185 -4q65 0 106.5 56.5t41.5 160.5t-41.5 159t-106.5 55t-107 -55t-42 -159t42 -160.5t107 -56.5zM79 213q0 87 30.5 131.5t75.5 44.5t75 -44.5t30 -131.5t-30.5 -132.5t-74.5 -45.5q-45 0 -75.5 45.5t-30.5 132.5z" />
<glyph unicode="&#x2081;" horiz-adv-x="267" d="M15 0v39h97v340l-93 -39v44l97 40h38v-385h99v-39h-238z" />
<glyph unicode="&#x2082;" horiz-adv-x="289" d="M11 42q167 173 197 215q32 47 9 87.5t-77 40.5q-28 0 -49.5 -16t-29.5 -42l-42 14q13 39 46 63t75 24q79 0 114.5 -63.5t-12.5 -132.5q-33 -46 -172 -190h209v-42h-268v42z" />
<glyph unicode="&#x2083;" horiz-adv-x="281" d="M132 -2q-41 0 -74.5 22t-49.5 59l39 17q29 -57 85 -57q40 0 65 24.5t25 62.5q0 39 -27.5 65t-75.5 26h-7v35h7q39 0 58.5 19t19.5 50q0 28 -19 46t-46 18q-24 0 -41.5 -13t-22.5 -33l-40 6q7 34 34 58t70 24q44 0 75.5 -31t31.5 -75q0 -25 -12 -48t-33 -35 q31 -12 50.5 -41t19.5 -71q0 -53 -37 -90.5t-95 -37.5z" />
<glyph unicode="&#x2084;" horiz-adv-x="355" d="M238 0v92h-216v40l216 292h42v-287h59v-45h-59v-92h-42zM75 137h163v226z" />
<glyph unicode="&#x2085;" horiz-adv-x="302" d="M113 0q-69 11 -100 64l36 20q23 -38 70 -46q42 -7 72 15.5t37 63.5q7 39 -17 72.5t-61 38.5q-46 9 -98 -20l-20 34l46 182h180v-39h-146l-33 -126q37 14 77 8q56 -10 89.5 -55.5t24.5 -100.5q-9 -57 -53 -89t-104 -22z" />
<glyph unicode="&#x2086;" horiz-adv-x="282" d="M80 14q-45 26 -58.5 76.5t12.5 96.5l138 237h49l-107 -186q50 18 91 -6q45 -25 59 -75.5t-12 -95.5t-76.5 -59t-95.5 12zM70 165q-17 -30 -8 -63.5t39 -50.5t63.5 -8t50.5 39t8 63t-39 50t-63.5 8t-50.5 -38z" />
<glyph unicode="&#x2087;" horiz-adv-x="327" d="M21 0l226 382h-202v42h276l-251 -424h-49z" />
<glyph unicode="&#x2088;" horiz-adv-x="301" d="M85 13q-48 26 -62.5 74t13.5 92q18 28 48 43q-36 26 -45.5 67.5t12.5 80.5q23 40 70 52.5t87 -10.5q42 -24 54 -68.5t-12 -85.5q-12 -20 -32 -36q47 -26 61 -73t-14 -91q-27 -43 -80 -56t-100 11zM72 159q-18 -29 -8.5 -62t41.5 -49q33 -17 69 -8t55 39q26 41 0 81.5 t-77 40.5q-53 0 -80 -42zM88 351q-22 -38 0 -75t64 -37q40 0 62 38q15 26 7 56t-34 45t-55 7.5t-44 -34.5z" />
<glyph unicode="&#x2089;" horiz-adv-x="282" d="M202 408q45 -26 58.5 -76.5t-12.5 -96.5l-138 -237h-49l108 185q-52 -16 -92 7q-45 25 -59 75.5t12 95.5t76.5 59t95.5 -12zM67 340q-17 -30 -8 -63t39 -50t63 -8t51 38q17 30 8 63.5t-39 50.5t-63.5 8t-50.5 -39z" />
<glyph unicode="&#x20ac;" horiz-adv-x="649" d="M424 -6q-91 0 -166.5 58.5t-112.5 153.5h-125v64h107q-7 36 -7 79v27h-100v64h110q26 115 107.5 189.5t186.5 74.5q109 0 193 -79l-48 -47q-65 62 -145 62q-76 0 -138 -55.5t-85 -144.5h265v-64h-276v-27q0 -39 8 -79h268v-64h-246q30 -68 85 -108t119 -40q80 0 145 62 l48 -46q-83 -80 -193 -80z" />
<glyph unicode="&#x2116;" horiz-adv-x="1122" d="M1025 161h-299v49h299v-49zM80 0v700h66l392 -571v571h71v-700h-65l-394 575v-575h-70zM649 469q0 97 66 161t161 64t160.5 -63.5t65.5 -161.5q0 -97 -65.5 -161t-160.5 -64t-161 63.5t-66 161.5zM710 469q0 -75 48.5 -122t117.5 -47q68 0 116.5 47.5t48.5 121.5 q0 75 -48 121.5t-117 46.5t-117.5 -47t-48.5 -121z" />
<glyph unicode="&#x2122;" horiz-adv-x="749" d="M353 357v402h68l115 -301l115 301h68v-402h-70v253l-85 -214h-55l-86 214v-253h-70zM30 695v64h266v-64h-98v-338h-70v338h-98z" />
<glyph unicode="&#x25fc;" horiz-adv-x="500" d="M0 500h500v-500h-500v500z" />
<glyph unicode="&#xfb01;" horiz-adv-x="580" d="M103 0v436h-94v64h94v71q0 144 128 144q80 0 114 -48l-36 -51q-32 37 -73 37q-63 0 -63 -82v-71h346v-500h-70v436h-276v-436h-70zM419 620q0 26 18.5 44.5t45.5 18.5q26 0 44.5 -18.5t18.5 -44.5q0 -27 -18.5 -45.5t-44.5 -18.5q-27 0 -45.5 18.5t-18.5 45.5z" />
<glyph unicode="&#xfb02;" horiz-adv-x="541" d="M292 653q119 0 119 -102v-551h70v561q0 69 -44 111.5t-145 42.5t-145 -42.5t-44 -111.5v-61h-94v-64h94v-436h70v436h143v64h-143v51q0 102 119 102z" />
<glyph unicode="&#xfb04;" horiz-adv-x="805" d="M556 653q119 0 119 -102v-551h70v561q0 69 -44 111.5t-145 42.5q-110 0 -156 -74q-40 74 -128 74q-82 0 -125.5 -44t-43.5 -110v-61h-94v-64h94v-436h70v436h194v-436h70v436h143v64h-143v51q0 102 119 102zM173 500v51q0 48 25.5 75t73.5 27q30 0 50 -12.5t29 -35.5 t12.5 -45.5t3.5 -52.5v-7h-194z" />
<glyph horiz-adv-x="463" d="M214 -2q-75 0 -128 53t-53 128h70q0 -49 33 -83t78 -34q48 0 78.5 28t30.5 89v522h71v-522q0 -87 -50.5 -134t-129.5 -47zM114 771l243 189l45 -72l-258 -159z" />
<glyph horiz-adv-x="193" d="M62 0v500h70v-500h-70zM32 620q0 26 18.5 44.5t45.5 18.5q26 0 44.5 -18.5t18.5 -44.5q0 -27 -18.5 -45.5t-44.5 -18.5q-27 0 -45.5 18.5t-18.5 45.5z" />
<glyph horiz-adv-x="182" d="M-74 -140q58 0 97 34.5t39 96.5v509h70v-509q0 -91 -60 -143t-146 -52v64zM-20 571l243 189l45 -72l-258 -159z" />
<glyph horiz-adv-x="576" d="M516 500v-500h-70v71q-53 -77 -156 -77q-106 0 -180.5 74t-74.5 182q0 109 71.5 182.5t177.5 73.5q108 0 162 -77v71h70zM105 250q0 -83 54.5 -137.5t130.5 -54.5q60 0 100.5 28.5t55.5 68.5v188q-17 42 -60 70.5t-102 28.5q-75 0 -127 -54t-52 -138z" />
<glyph horiz-adv-x="576" d="M516 500v-500h-70v71q-53 -77 -156 -77q-106 0 -180.5 74t-74.5 182q0 109 71.5 182.5t177.5 73.5q108 0 162 -77v71h70zM105 250q0 -83 54.5 -137.5t130.5 -54.5q60 0 100.5 28.5t55.5 68.5v188q-17 42 -60 70.5t-102 28.5q-75 0 -127 -54t-52 -138zM167 571l243 189 l45 -72l-258 -159z" />
<glyph horiz-adv-x="576" d="M516 500v-500h-70v71q-53 -77 -156 -77q-106 0 -180.5 74t-74.5 182q0 109 71.5 182.5t177.5 73.5q108 0 162 -77v71h70zM76 605l207 100l207 -100l-23 -48l-184 72l-184 -72zM105 250q0 -83 54.5 -137.5t130.5 -54.5q60 0 100.5 28.5t55.5 68.5v188q-17 42 -60 70.5 t-102 28.5q-75 0 -127 -54t-52 -138z" />
<glyph horiz-adv-x="576" d="M516 500v-500h-70v71q-53 -77 -156 -77q-106 0 -180.5 74t-74.5 182q0 109 71.5 182.5t177.5 73.5q108 0 162 -77v71h70zM76 620q0 26 18.5 44.5t45.5 18.5q26 0 44.5 -18.5t18.5 -44.5q0 -27 -18.5 -45.5t-44.5 -18.5q-27 0 -45.5 18.5t-18.5 45.5zM105 250 q0 -83 54.5 -137.5t130.5 -54.5q60 0 100.5 28.5t55.5 68.5v188q-17 42 -60 70.5t-102 28.5q-75 0 -127 -54t-52 -138zM365 620q0 26 18.5 44.5t45.5 18.5q26 0 44.5 -18.5t18.5 -44.5q0 -27 -18.5 -45.5t-44.5 -18.5q-27 0 -45.5 18.5t-18.5 45.5z" />
<glyph horiz-adv-x="576" d="M516 500v-500h-70v71q-53 -77 -156 -77q-106 0 -180.5 74t-74.5 182q0 109 71.5 182.5t177.5 73.5q108 0 162 -77v71h70zM105 250q0 -83 54.5 -137.5t130.5 -54.5q60 0 100.5 28.5t55.5 68.5v188q-17 42 -60 70.5t-102 28.5q-75 0 -127 -54t-52 -138zM143 688l45 72 l243 -189l-30 -42z" />
<glyph horiz-adv-x="576" d="M516 500v-500h-70v71q-53 -77 -156 -77q-106 0 -180.5 74t-74.5 182q0 109 71.5 182.5t177.5 73.5q108 0 162 -77v71h70zM105 250q0 -83 54.5 -137.5t130.5 -54.5q60 0 100.5 28.5t55.5 68.5v188q-17 42 -60 70.5t-102 28.5q-75 0 -127 -54t-52 -138zM139 674 q0 61 42.5 103t102.5 42t102 -42t42 -103q0 -60 -42 -102t-102 -42t-102.5 42t-42.5 102zM209 674q0 -33 21.5 -53.5t53.5 -20.5q31 0 52.5 20.5t21.5 53.5t-21.5 54t-52.5 21t-53 -21t-22 -54z" />
<glyph horiz-adv-x="576" d="M516 500v-500h-70v71q-53 -77 -156 -77q-106 0 -180.5 74t-74.5 182q0 109 71.5 182.5t177.5 73.5q108 0 162 -77v71h70zM97 587q-13 45 17 80.5t83 35.5q37 0 85.5 -28t66.5 -28q51 0 41 54h70q9 -54 -21 -85t-80 -31q-38 0 -68 14t-50.5 28t-34.5 14q-46 0 -41 -54h-68 zM105 250q0 -83 54.5 -137.5t130.5 -54.5q60 0 100.5 28.5t55.5 68.5v188q-17 42 -60 70.5t-102 28.5q-75 0 -127 -54t-52 -138z" />
<glyph horiz-adv-x="978" d="M516 500v-97q64 110 206 110q121 0 181.5 -82t39.5 -194h-392q6 -88 55.5 -135.5t126.5 -47.5q119 0 159 96l54 -42q-9 -16 -22 -32t-37.5 -37.5t-64.5 -35t-89 -13.5q-149 0 -217 121v-111h-70v71q-53 -77 -156 -77q-106 0 -180.5 74t-74.5 182q0 109 71.5 182.5 t177.5 73.5q108 0 162 -77v71h70zM105 250q0 -83 54.5 -137.5t130.5 -54.5q60 0 100.5 28.5t55.5 68.5v188q-17 42 -60 70.5t-102 28.5q-75 0 -127 -54t-52 -138zM552 292h323q5 75 -36 119t-117 44q-68 0 -115 -41.5t-55 -121.5z" />
<glyph horiz-adv-x="609" d="M305 -6q-106 0 -175.5 93.5t-69.5 264.5q0 172 69 262.5t176 90.5t175.5 -90.5t68.5 -262.5t-69 -265t-175 -93zM130 352q0 -166 69 -243l161 521q-27 11 -55 11q-75 0 -125 -72.5t-50 -216.5zM248 71q26 -13 57 -13q73 0 123.5 75t50.5 219q0 169 -70 242z" />
<glyph horiz-adv-x="369" d="M185 -4q65 0 106.5 56.5t41.5 160.5t-41.5 159t-106.5 55t-107 -55t-42 -159t42 -160.5t107 -56.5zM79 213q0 87 30.5 131.5t75.5 44.5t75 -44.5t30 -131.5t-30.5 -132.5t-74.5 -45.5q-45 0 -75.5 45.5t-30.5 132.5z" />
<glyph horiz-adv-x="267" d="M15 0v39h97v340l-93 -39v44l97 40h38v-385h99v-39h-238z" />
<glyph horiz-adv-x="289" d="M11 42q167 173 197 215q32 47 9 87.5t-77 40.5q-28 0 -49.5 -16t-29.5 -42l-42 14q13 39 46 63t75 24q79 0 114.5 -63.5t-12.5 -132.5q-33 -46 -172 -190h209v-42h-268v42z" />
<glyph horiz-adv-x="281" d="M132 -2q-41 0 -74.5 22t-49.5 59l39 17q29 -57 85 -57q40 0 65 24.5t25 62.5q0 39 -27.5 65t-75.5 26h-7v35h7q39 0 58.5 19t19.5 50q0 28 -19 46t-46 18q-24 0 -41.5 -13t-22.5 -33l-40 6q7 34 34 58t70 24q44 0 75.5 -31t31.5 -75q0 -25 -12 -48t-33 -35 q31 -12 50.5 -41t19.5 -71q0 -53 -37 -90.5t-95 -37.5z" />
<glyph horiz-adv-x="355" d="M238 0v92h-216v40l216 292h42v-287h59v-45h-59v-92h-42zM75 137h163v226z" />
<glyph horiz-adv-x="302" d="M113 0q-69 11 -100 64l36 20q23 -38 70 -46q42 -7 72 15.5t37 63.5q7 39 -17 72.5t-61 38.5q-46 9 -98 -20l-20 34l46 182h180v-39h-146l-33 -126q37 14 77 8q56 -10 89.5 -55.5t24.5 -100.5q-9 -57 -53 -89t-104 -22z" />
<glyph horiz-adv-x="282" d="M80 14q-45 26 -58.5 76.5t12.5 96.5l138 237h49l-107 -186q50 18 91 -6q45 -25 59 -75.5t-12 -95.5t-76.5 -59t-95.5 12zM70 165q-17 -30 -8 -63.5t39 -50.5t63.5 -8t50.5 39t8 63t-39 50t-63.5 8t-50.5 -38z" />
<glyph horiz-adv-x="327" d="M21 0l226 382h-202v42h276l-251 -424h-49z" />
<glyph horiz-adv-x="301" d="M85 13q-48 26 -62.5 74t13.5 92q18 28 48 43q-36 26 -45.5 67.5t12.5 80.5q23 40 70 52.5t87 -10.5q42 -24 54 -68.5t-12 -85.5q-12 -20 -32 -36q47 -26 61 -73t-14 -91q-27 -43 -80 -56t-100 11zM72 159q-18 -29 -8.5 -62t41.5 -49q33 -17 69 -8t55 39q26 41 0 81.5 t-77 40.5q-53 0 -80 -42zM88 351q-22 -38 0 -75t64 -37q40 0 62 38q15 26 7 56t-34 45t-55 7.5t-44 -34.5z" />
<glyph horiz-adv-x="282" d="M202 408q45 -26 58.5 -76.5t-12.5 -96.5l-138 -237h-49l108 185q-52 -16 -92 7q-45 25 -59 75.5t12 95.5t76.5 59t95.5 -12zM67 340q-17 -30 -8 -63t39 -50t63 -8t51 38q17 30 8 63.5t-39 50.5t-63.5 8t-50.5 -39z" />
<glyph horiz-adv-x="369" d="M185 391q65 0 106.5 56.5t41.5 160.5t-41.5 159t-106.5 55t-107 -55t-42 -159t42 -160.5t107 -56.5zM79 608q0 87 30.5 131.5t75.5 44.5t75 -44.5t30 -131.5t-30.5 -132.5t-74.5 -45.5q-45 0 -75.5 45.5t-30.5 132.5z" />
<glyph horiz-adv-x="267" d="M15 393v39h97v340l-93 -39v44l97 40h38v-385h99v-39h-238z" />
<glyph horiz-adv-x="289" d="M11 437q167 173 197 215q32 46 9 87t-77 41q-28 0 -49.5 -16t-29.5 -42l-42 14q13 39 46 63t75 24q79 0 114.5 -63.5t-12.5 -132.5q-33 -46 -172 -190h209v-42h-268v42z" />
<glyph horiz-adv-x="281" d="M132 393q-41 0 -74.5 22t-49.5 59l39 17q29 -57 85 -57q40 0 65 24.5t25 62.5q0 39 -27.5 65t-75.5 26h-7v35h7q39 0 58.5 19t19.5 50q0 28 -19 46t-46 18q-24 0 -41.5 -13t-22.5 -33l-40 6q7 34 34 58t70 24q44 0 75.5 -31t31.5 -75q0 -25 -12 -48t-33 -35 q31 -12 50.5 -41t19.5 -71q0 -53 -37 -90.5t-95 -37.5z" />
<glyph horiz-adv-x="355" d="M238 395v92h-216v40l216 292h42v-287h59v-45h-59v-92h-42zM75 532h163v226z" />
<glyph horiz-adv-x="302" d="M113 395q-69 11 -100 64l36 20q23 -38 70 -46q42 -7 72 15.5t37 63.5q7 39 -17 72.5t-61 38.5q-46 9 -98 -20l-20 34l46 182h180v-39h-146l-33 -126q37 14 77 8q56 -10 89.5 -55.5t24.5 -100.5q-9 -57 -53 -89t-104 -22z" />
<glyph horiz-adv-x="282" d="M80 409q-45 26 -58.5 76.5t12.5 96.5l138 237h49l-107 -186q50 18 91 -6q45 -25 59 -75.5t-12 -95.5t-76.5 -59t-95.5 12zM70 560q-17 -30 -8 -63.5t39 -50.5t63.5 -8t50.5 39t8 63t-39 50t-63.5 8t-50.5 -38z" />
<glyph horiz-adv-x="327" d="M21 395l226 382h-202v42h276l-251 -424h-49z" />
<glyph horiz-adv-x="301" d="M85 408q-48 26 -62.5 74t13.5 92q18 28 48 43q-36 26 -45.5 67.5t12.5 80.5q23 40 70 52.5t87 -10.5q42 -24 54 -68.5t-12 -85.5q-12 -20 -32 -36q47 -26 61 -73t-14 -91q-27 -43 -80 -56t-100 11zM72 554q-18 -29 -8.5 -62t41.5 -49q33 -17 69 -8t55 39q26 41 0 81.5 t-77 40.5q-53 0 -80 -42zM88 746q-22 -38 0 -75t64 -37q40 0 62 38q15 26 7 56t-34 45t-55 7.5t-44 -34.5z" />
<glyph horiz-adv-x="282" d="M202 803q45 -26 58.5 -76.5t-12.5 -96.5l-138 -237h-49l108 185q-52 -16 -92 7q-45 25 -59 75.5t12 95.5t76.5 59t95.5 -12zM67 735q-17 -30 -8 -63t39 -50t63 -8t51 38q17 30 8 63.5t-39 50.5t-63.5 8t-50.5 -39z" />
</font>
</defs>
</svg>
